<svg xmlns="http://www.w3.org/2000/svg" width="720.878" height="2461.595" viewBox="0 0 720.878 2461.595">
  <g id="Group_416" data-name="Group 416" transform="translate(-307.24 -348.514)">
    <path id="Path_778" data-name="Path 778" d="M4164,3527s-655.162,159.351-663.051,455.206,605.516,205.125,613.406,512.815-644.963,71.005-635.1,431.948,644.207,217.013,650.881,607.489S3440.672,5757.221,3443.75,5988.1" transform="translate(-3136 -3178)" fill="none" stroke="#fd4115" stroke-width="1" opacity="0.55"/>
    <g id="Group_77" data-name="Group 77" transform="translate(1120.957 607.911) rotate(124)">
      <path id="Path_163" data-name="Path 163" d="M7.963,2.746l10.92,13.3L1.715,13.02,7.8,9.451Z" transform="translate(302.898 515.997) rotate(-14)" fill="#932b13"/>
    </g>
    <g id="Group_360" data-name="Group 360" transform="matrix(0.996, 0.087, -0.087, 0.996, 362.028, 493.841)">
      <path id="Path_163-2" data-name="Path 163" d="M7.963,2.746l10.92,13.3L1.715,13.02,7.8,9.451Z" transform="translate(302.898 515.997) rotate(-14)" fill="#932b13"/>
    </g>
    <g id="Group_361" data-name="Group 361" transform="matrix(-0.875, 0.485, -0.485, -0.875, 1206.466, 1815.249)">
      <path id="Path_163-3" data-name="Path 163" d="M7.963,2.746l10.92,13.3L1.715,13.02,7.8,9.451Z" transform="translate(302.898 515.997) rotate(-14)" fill="#932b13"/>
    </g>
    <g id="Group_362" data-name="Group 362" transform="matrix(0.998, 0.07, -0.07, 0.998, 394.504, 1497.609)">
      <path id="Path_163-4" data-name="Path 163" d="M7.963,2.746l10.92,13.3L1.715,13.02,7.8,9.451Z" transform="translate(302.898 515.997) rotate(-14)" fill="#932b13"/>
    </g>
    <g id="Group_363" data-name="Group 363" transform="translate(1334.608 2851.509) rotate(144)">
      <path id="Path_163-5" data-name="Path 163" d="M7.963,2.746l10.92,13.3L1.715,13.02,7.8,9.451Z" transform="translate(302.898 515.997) rotate(-14)" fill="#932b13"/>
    </g>
  </g>
</svg>
