<svg xmlns="http://www.w3.org/2000/svg" width="479" height="355.752" viewBox="0 0 479 355.752"><defs><style>.a{fill:#c48357;}.b{fill:#e0d6ce;}.c{fill:#3f3d56;}.d{fill:#f04923;}.e{fill:#a09c9c;}.e,.f,.g,.h,.i,.j,.l,.m,.q,.r,.s,.t,.u{fill-rule:evenodd;}.f{fill:#e6c59c;}.g,.n{fill:#f5dbbc;}.h{fill:#7e7974;}.i{fill:#f2722a;}.j{fill:#c44f0c;}.k,.l{fill:#575756;}.m{fill:#3c3c3b;}.o{fill:#f2b211;}.p{fill:#fff7b2;}.q{fill:#d4d6df;}.r{fill:#812926;}.s{fill:#ccab82;}.t{fill:#c54f0c;}.u{fill:#878787;}.v,.w{fill:none;stroke:#fff;stroke-miterlimit:10;}.w{stroke-width:0.25px;}.x{fill:#fff;}</style></defs><g transform="translate(86 -244.9)"><rect class="a" width="233.787" height="277.862" transform="translate(35.616 259.942)"/><rect class="b" width="127.096" height="279.844" transform="translate(-85.65 259.009)"/><rect class="b" width="127.096" height="279.844" transform="translate(265.321 259.009)"/><rect class="c" width="78.123" height="1.166" transform="translate(209.352 599.486)"/><path class="c" d="M393,260.175H-86V244.9H393Zm-478.067-.933H392.067V245.833H-85.067Z"/><path class="c" d="M-76.319,256.961a4.728,4.728,0,0,1-4.781-4.781,4.728,4.728,0,0,1,4.781-4.781,4.728,4.728,0,0,1,4.781,4.781,4.728,4.728,0,0,1-4.781,4.781Zm0-8.629a3.882,3.882,0,0,0-3.848,3.848,3.882,3.882,0,0,0,3.848,3.848,3.882,3.882,0,0,0,3.848-3.848,3.738,3.738,0,0,0-3.848-3.848Z" transform="translate(0.813 0.415)"/><path class="c" d="M-65.219,256.961A4.728,4.728,0,0,1-70,252.181a4.728,4.728,0,0,1,4.781-4.781,4.728,4.728,0,0,1,4.781,4.781,4.728,4.728,0,0,1-4.781,4.781Zm0-8.629a3.882,3.882,0,0,0-3.848,3.848,3.882,3.882,0,0,0,3.848,3.848,3.882,3.882,0,0,0,3.848-3.848,3.807,3.807,0,0,0-3.848-3.848Z" transform="translate(2.656 0.415)"/><path class="c" d="M-54.119,256.961a4.728,4.728,0,0,1-4.781-4.781,4.728,4.728,0,0,1,4.781-4.781,4.728,4.728,0,0,1,4.781,4.781,4.728,4.728,0,0,1-4.781,4.781Zm0-8.629a3.882,3.882,0,0,0-3.848,3.848,3.882,3.882,0,0,0,3.848,3.848,3.882,3.882,0,0,0,3.848-3.848h0a3.807,3.807,0,0,0-3.848-3.848Z" transform="translate(4.499 0.415)"/><rect class="d" width="107.507" height="19.589" transform="translate(-79.587 457.582)"/><path class="c" d="M35,448.252H-80.9V421.9H35Zm-114.853-.933H34.186v-24.37H-79.851Z" transform="translate(0.847 29.385)"/><rect class="c" width="80.455" height="4.781" transform="translate(-62.33 281.513)"/><rect class="c" width="80.455" height="4.781" transform="translate(-62.33 353.34)"/><rect class="c" width="80.455" height="4.781" transform="translate(-62.33 363.95)"/><rect class="c" width="80.455" height="4.781" transform="translate(-62.33 374.445)"/><rect class="c" width="80.455" height="4.781" transform="translate(288.875 281.513)"/><rect class="c" width="80.455" height="4.781" transform="translate(288.875 292.007)"/><rect class="c" width="80.455" height="4.781" transform="translate(288.875 302.618)"/><g transform="translate(41.213 424.661)"><path class="e" d="M49.219,513.215c14.342,0,26.119-7.229,26.119-16.208S63.561,480.8,49.219,480.8,23.1,488.029,23.1,497.008,34.877,513.215,49.219,513.215Z" transform="translate(-23.1 -385.497)"/><path class="f" d="M32.67,487.016c1.632,1.749-2.449,3.615.816,7.812,2.682,1.516,9.445-1.049,12.127-2.332h0c5.014-2.332,9.795-6.413,7.579-9.795-.7-.816-2.332-.816-3.265-.583-3.032.7-5.6,3.382-8.862,2.1a13.925,13.925,0,0,1-2.565-1.4Z" transform="translate(-21.593 -385.3)"/><path class="g" d="M49.824,482.613c-4.547,1.166-3.032,1.749-7.113,2.449-.117,1.049-.35,4.781-5.947,5.014-2.332,2.682,5.014.933,6.413.35,2.915-1.166,4.081.466,7.113-3.964C51.923,484.246,51.806,482.03,49.824,482.613Z" transform="translate(-20.907 -385.212)"/><path class="h" d="M32.346,492.628c1.866,1.982,4.2,2.682,10.144-.35,4.081-2.1,5.364.233,9.212-4.081,1.632-1.749,2.449-4.431,1.4-5.6l1.049,1.516a5.187,5.187,0,0,1-1.4,5.014c-3.381,3.5-11.777,6.18-16.208,7C32.813,496.825,31.3,494.144,32.346,492.628Z" transform="translate(-21.619 -385.198)"/><path class="i" d="M27.4,447.718l4.781,1.4a107.8,107.8,0,0,0,4.781-11.077c1.049-2.8.816-3.5,3.848-4.314,8.279-4.547,1.632-9.328,0-8.862,3.381-2.915,2.915-9.911-1.749-8.745-3.848.933-6.3,3.265-7.7,7.229-1.049,2.915.233,8.279-1.283,12.826C27.4,444.1,27.517,445.5,27.4,447.718Z" transform="translate(-22.386 -396.257)"/><path class="j" d="M34.348,417.849a9.273,9.273,0,0,0-3.148,4.314c2.565-.816,5.6-2.565,6.53-4.2A3.492,3.492,0,0,0,38.2,416.8H37.73A6.075,6.075,0,0,0,34.348,417.849Z" transform="translate(-21.755 -396.122)"/><path class="f" d="M45.17,495.316c1.632,1.749-2.449,3.615.816,7.812,2.682,1.516,9.445-1.049,12.127-2.332h0c5.014-2.332,9.795-6.413,7.579-9.795-.7-.816-2.332-.816-3.265-.583-3.032.7-5.6,3.382-8.862,2.1a13.929,13.929,0,0,1-2.565-1.4Z" transform="translate(-19.518 -383.922)"/><path class="g" d="M62.424,490.809c-4.547,1.166-3.032,1.749-7.113,2.449-.117,1.049-.35,4.781-5.947,5.014-2.332,2.682,5.014.933,6.413.35,2.915-1.166,4.081.466,7.113-3.964C64.406,492.442,64.29,490.343,62.424,490.809Z" transform="translate(-18.815 -383.846)"/><path class="h" d="M44.846,500.828c1.866,1.982,4.2,2.682,10.144-.35,4.081-2.1,5.364.233,9.212-4.081,1.632-1.749,2.449-4.431,1.4-5.6l1.049,1.516a5.187,5.187,0,0,1-1.4,5.014c-3.381,3.5-11.777,6.18-16.208,7C45.313,505.142,43.8,502.344,44.846,500.828Z" transform="translate(-19.544 -383.837)"/><path class="i" d="M60.807,425.776a62.962,62.962,0,0,0-1.866,7.579c-.816,3.032.583,9.095-.816,13.293-1.049,3.265-.117,4.548-.816,5.13-5.6,7.929-18.073,4.9-23.67-6.763-1.866-2.1-2.8-9.445.583-19.006a3.941,3.941,0,0,1,.7-1.4c1.749-2.8,5.83-4.664,11.893-4.781C55.443,418.314,60.924,425.543,60.807,425.776Z" transform="translate(-21.629 -395.654)"/><path class="i" d="M33.728,443.4s-.233,13.992-1.749,29.267c-.7,7.929-1.049,13.526.933,18.19,1.749,4.081,10.727,3.964,11.427-2.1.233-4.314-1.049-3.964-.117-14.109.233-2.8-.816-6.3-.35-9.561C44.8,475.7,46.787,496.454,49,499.719c0,3.848,8.629,4.081,10.144-2.215,1.166-2.1-.816-7.113.233-18.073.933-9.445-2.565-21.455-2.332-31.016-1.516,6.18-20.755,4.2-19.706-2.565Z" transform="translate(-21.718 -391.706)"/><path class="j" d="M33.728,443.4c-2.449,11.893.117,13.409-1.749,29.267-.7,6.18-1.049,13.526.933,18.19,1.4,3.265,5.947,3.381,9.328,1.4-7.346.7,3.5-10.261-1.749-11.66-2.682-.816-1.049-5.83-1.049-7-.583-10.261,6.763-5.364,6.18-15.042-.117-.466-11.31-14.225-11.777-15.042Z" transform="translate(-21.718 -391.706)"/><path class="j" d="M43.629,464.125c.35,4.431,1.049,10.727,1.749,16.791.933,8.279-.816,15.508,1.4,17.607,0,2.682,5.713,7.229,10.727,3.148-.583-.233,1.166-13.293-.117-11.544-5.364,7-5.247.233-2.332-6.88.933-2.449-1.982-2.332-2.449-4.781-1.166-7.346,1.283-19.472,3.381-26.352-1.166-.466-8.745,4.2-12.826,2.215a13.977,13.977,0,0,1-6.413-5.13c-1.516,1.632-5.6,7.462-3.032,11.427C34.884,462.493,43.279,463.775,43.629,464.125Z" transform="translate(-21.475 -390.743)"/><path class="f" d="M58.054,446.961c-2.449,2.1-4.2,2.682-5.83,1.866C40.68,447.66,32.168,440.2,31.818,438.1c-.933-6.763,3.265-15.974,9.445-19.706,3.615-2.215,12.593,1.749,15.858,3.615,2.332,1.283,3.731,1.866,4.2,5.247C62.252,432.735,61.086,439.382,58.054,446.961Z" transform="translate(-21.674 -395.966)"/><path class="g" d="M57.115,422.256c-4.9,2.1-5.83,6.53-6.53,12.826-.583,5.48-6.3,1.4-9.212-.7-2.682-1.982-5.713-.35-6.763-3.148-.933-2.332,7.229-5.48,12.127-6.3C50.7,424.355,51.285,418.874,57.115,422.256Z" transform="translate(-21.201 -395.398)"/><path class="k" d="M44.7,494.215c0-.466.117-2.8.117-2.332.816,4.781,12.593,3.032,12.127-2.682a36.453,36.453,0,0,1,.117,3.964C56.01,497.947,45.05,498.88,44.7,494.215Z" transform="translate(-19.514 -384.104)"/><path class="l" d="M39.415,417.8c-1.982,2.215-3.265,1.4-3.615,3.381,2.449,1.166,8.978,4.664,11.427,5.83,3.5-2.8,3.381-3.148,7.346-5.6A124.967,124.967,0,0,0,39.415,417.8Z" transform="translate(-20.992 -395.956)"/><path class="l" d="M33.1,440.9c4.314,9.678,17.024,13.992,23.9,7.229,0,1.516-.117,3.032-.117,4.314-5.83,6.063-21.455,2.1-23.437-6.413A36.674,36.674,0,0,0,33.1,440.9Z" transform="translate(-21.44 -392.121)"/><path class="k" d="M32.4,486.016c0-.466.117-2.8.117-2.332.816,4.781,11.893,3.615,11.427-1.982a11.772,11.772,0,0,1,.816,3.381C43.71,489.747,32.75,490.68,32.4,486.016Z" transform="translate(-21.556 -385.349)"/><g transform="translate(9.212 19.512)"><path class="h" d="M31,421.513c2.8-.583,6.53-2.565,7.7-4.547a3.492,3.492,0,0,0,.466-1.166H38.7C35.547,416.033,33.1,418.365,31,421.513Z" transform="translate(-31 -415.8)"/><path class="f" d="M31.8,420.214c2.565-.816,5.6-2.565,6.646-4.2l.117-.117C35.881,416.017,33.666,417.766,31.8,420.214Z" transform="translate(-30.867 -415.783)"/></g><path class="m" d="M45.386,415.941c3.964.933,6.763,3.848,6.3,6.413-.583,2.682-4.2,3.964-8.279,3.032-3.964-.933-6.763-3.848-6.3-6.413C37.69,416.408,41.421,415.009,45.386,415.941Z" transform="translate(-20.783 -396.313)"/><path class="l" d="M45.391,415.943a9.115,9.115,0,0,1,5.83,3.848,2.385,2.385,0,0,1,0,1.283c-.583,2.682-4.2,3.964-8.279,3.032a9.115,9.115,0,0,1-5.83-3.848,2.385,2.385,0,0,1,0-1.283C37.7,416.293,41.427,415.01,45.391,415.943Z" transform="translate(-20.788 -396.315)"/><path class="h" d="M57.942,444.859c-1.982,1.4-3.5,2.915-5.713,1.632-7.346,1.632-21.571-3.964-20.405-10.727a21.857,21.857,0,0,1-.117-3.964c-.233,5.714,15.508,15.042,22.971,11.194,1.982,1.982,1.982.816,4.9-2.8A44.821,44.821,0,0,1,57.942,444.859Z" transform="translate(-21.679 -393.632)"/><path class="m" d="M56.987,449.113v3.148c-5.83,6.063-21.455,2.1-23.437-6.413L33.2,442C37.631,451.445,50.107,455.642,56.987,449.113Z" transform="translate(-21.423 -391.939)"/><path class="n" d="M49.6,467.732l4.664-3.032.117,1.049L51,468.665l3.5-1.4v.933l-4.664,3.032-.117-.7,1.749-1.166,1.632-.933-3.381,1.4v-.7l3.265-2.8-1.632,1.049L49.6,468.431Z" transform="translate(-18.701 -388.17)"/><path class="n" d="M52.482,470.982l1.166-.933h0l-1.166.583v-.7l2.1-.933.117,1.049L52.482,471.8v-.816Zm-1.166.816,1.166-.933v.7l-2.449,2.1v-.7l.816-.7-.117-.816-.816.466L49.8,471.1l2.682-1.283v.7l-1.166.583Z" transform="translate(-18.667 -387.456)"/><path class="n" d="M53.615,471.7l1.166-.7.117,1.4a1.479,1.479,0,0,1-.117.7c-.117.233-.233.35-.35.583-.233.117-.35.35-.7.466h-.117v-.816h.117a2.176,2.176,0,0,0,.466-.35c.117-.117.117-.233.117-.466v-.233l-.7.466V471.7Zm-1.283,1.866v-.233l-2.215,1.4L50,473.915l3.5-2.215v.816l-.7.466v.35c0,.117,0,.117.117.233h.233c.117,0,.233-.117.35-.233v.816a1.97,1.97,0,0,1-.583.233c-.117,0-.233,0-.35-.233,0,.233-.117.35-.35.583a6.225,6.225,0,0,1-1.166.816c-.583.35-.933.583-.933.7L50,475.431l1.749-1.049a1.61,1.61,0,0,0,.466-.35C52.332,473.915,52.332,473.8,52.332,473.565Z" transform="translate(-18.634 -387.124)"/><path class="n" d="M51.583,475.549l.466-.233v.816l-.466.35a2.544,2.544,0,0,0-.583.466.428.428,0,0,0-.117.35.407.407,0,0,0,.117.233c.117,0,.233-.117.466-.233a.91.91,0,0,0,.466-.466,6.906,6.906,0,0,0,.466-.7l.35-.583c.117-.233.35-.583.466-.816s.35-.35.583-.583a1.861,1.861,0,0,1,.933-.35q.35,0,.35.7a2.328,2.328,0,0,1-.233,1.049,6.663,6.663,0,0,1-.933.816l-.35.233v-.7l.35-.233a1.611,1.611,0,0,0,.466-.35.428.428,0,0,0,.117-.35c0-.117,0-.233-.117-.233a.428.428,0,0,0-.35.117l-.35.35a1.61,1.61,0,0,0-.35.466l-.35.7a6.509,6.509,0,0,1-.583.933,3.091,3.091,0,0,1-.7.583,2.684,2.684,0,0,1-1.049.35q-.35,0-.35-.7a2.328,2.328,0,0,1,.233-1.049A4.234,4.234,0,0,1,51.583,475.549Z" transform="translate(-18.584 -386.659)"/><g transform="translate(40.454 65.369)"><path class="l" d="M62.1,460.369c.117,1.049,1.049,1.4,1.866,1.982.933.7,1.049,2.915,2.682,3.731.816.35.7-.933.117-2.1s-.35-2.332-.933-3.265c-.35-.583-1.516-2.449-2.449-2.215C61.983,458.853,62.217,459.552,62.1,460.369Z" transform="translate(-57.079 -454.571)"/><path class="m" d="M58.384,456.728c.35-1.049,3.381-2.449,3.848-.933.7,1.166,3.615,4.781,3.731,5.13.233.583-.35,1.749-.233,2.332a2.557,2.557,0,0,1-.233,1.866,25.369,25.369,0,0,1-1.283,3.148c-.583.933-1.632,3.265-2.1,3.032a1.361,1.361,0,0,1-.7-.7c-.233.35-.466,1.049-.933.7a1.364,1.364,0,0,1-.466-1.4l-.233.35c-.7.233-.933-1.049-.816-1.516s.583-1.866.7-2.332c.233-1.049.7-3.615,0-1.049-.233,1.166-.933,2.682-1.4,2.1-.7-.933,0-1.749.117-2.915a9.678,9.678,0,0,0-.233-4.081C57.451,458.244,57.918,458.01,58.384,456.728Z" transform="translate(-57.794 -455.128)"/></g><path class="l" d="M64.264,459.5a11.9,11.9,0,0,1,1.283,3.381,1.392,1.392,0,0,1-1.866.933,1.26,1.26,0,0,1-1.749,0,1.18,1.18,0,0,1-1.632-.466,1.845,1.845,0,0,1-1.049-.7,20.378,20.378,0,0,1-.35-2.8C61,459.966,63.447,460.316,64.264,459.5Z" transform="translate(-17.157 -389.033)"/><path class="m" d="M45.186,414.441c3.964.933,6.763,3.848,6.3,6.413-.583,2.682-4.2,3.964-8.279,3.032-3.964-.933-6.763-3.848-6.3-6.413C37.49,414.908,41.221,413.508,45.186,414.441Z" transform="translate(-20.816 -396.562)"/><path class="l" d="M45.191,414.441a9.115,9.115,0,0,1,5.83,3.848,2.385,2.385,0,0,1,0,1.283c-.583,2.682-4.2,3.964-8.279,3.032a9.115,9.115,0,0,1-5.83-3.848,2.385,2.385,0,0,1,0-1.283C37.5,414.908,41.227,413.508,45.191,414.441Z" transform="translate(-20.821 -396.562)"/><path class="m" d="M45.186,412.943c3.964.933,6.763,3.848,6.3,6.413-.583,2.682-4.2,3.964-8.279,3.032-3.964-.933-6.763-3.848-6.3-6.413C37.49,413.293,41.221,412.01,45.186,412.943Z" transform="translate(-20.816 -396.813)"/><path class="l" d="M45.191,412.943a9.115,9.115,0,0,1,5.83,3.848,2.385,2.385,0,0,1,0,1.283c-.583,2.682-4.2,3.964-8.279,3.032a9.115,9.115,0,0,1-5.83-3.848,2.385,2.385,0,0,1,0-1.283C37.5,413.293,41.227,412.01,45.191,412.943Z" transform="translate(-20.821 -396.813)"/><path class="j" d="M57.685,407.182a15.869,15.869,0,0,1-.35,14.808c-5.713,6.063-10.028.117-20.988-2.565-2.565-6.3-2.332-11.194,1.049-14.925C42.643,398.786,54.187,400.3,57.685,407.182Z" transform="translate(-21.188 -398.747)"/><path class="i" d="M57.621,407.182a15.869,15.869,0,0,1-.35,14.808A10.507,10.507,0,0,1,56.1,423.04a23.788,23.788,0,0,1-13.759-5.6A26.766,26.766,0,0,1,35,408.7a10.737,10.737,0,0,1,2.332-4.2C42.579,398.786,54.123,400.3,57.621,407.182Z" transform="translate(-21.124 -398.747)"/><ellipse class="o" cx="5.83" cy="9.328" rx="5.83" ry="9.328" transform="matrix(0.492, -0.871, 0.871, 0.492, 17.447, 10.151)"/><ellipse class="p" cx="2.332" cy="3.848" rx="2.332" ry="3.848" transform="translate(21.969 6.812) rotate(-70.634)"/><path class="q" d="M54.781,405.8c0,3.615-1.166,7.229-4.781,8.978.233,1.4,0,2.915.117,4.431a8.586,8.586,0,0,0,5.13,1.166,16.185,16.185,0,0,0-.117-13.992C55.014,406.15,54.9,406.033,54.781,405.8Z" transform="translate(-18.634 -397.948)"/><path class="r" d="M55.581,407.2c0,3.032-1.4,5.6-4.781,7.346.233,1.166,0,2.565.117,3.964a8.105,8.105,0,0,0,4.664,1.049A17.3,17.3,0,0,0,55.581,407.2Z" transform="translate(-18.501 -397.716)"/><path class="i" d="M55.5,409.4a7.073,7.073,0,0,1-4.2,5.364,4.3,4.3,0,0,1,.117,1.749c1.166.816.466-2.565,2.8-1.4.933.466,1.632-.583,1.866-2.1A18,18,0,0,0,55.5,409.4Z" transform="translate(-18.418 -397.351)"/><path class="s" d="M52.723,431.64c-5.83,6.413-15.391-14.109-16.907,1.516a16.609,16.609,0,0,0,.466,6.53c5.247,3.731,13.059,6.53,17.723,4.2,1.4,1.283,1.749,1.283,2.915-.117a14.473,14.473,0,0,0,.35-3.148c0-1.749-.583-6.063-1.866-7.463C55.055,432.923,52.956,430.941,52.723,431.64Z" transform="translate(-21.008 -394.405)"/><path class="t" d="M50.361,449.9c1.166,6.18,9.561,15.391,9.561,15.391l5.364-3.265c-1.982-3.964-6.763-14.342-5.247-24.02,1.749-11.427-4.9-20.405-8.978-10.611C49.428,431.594,48.262,439.29,50.361,449.9Z" transform="translate(-18.762 -395.058)"/><path class="i" d="M61.229,464.354l3.964-2.332c-1.982-3.964-6.763-14.342-5.247-24.02,1.4-9.211-2.682-16.907-6.413-14.225a8.85,8.85,0,0,0-1.632,2.8c-1.749,4.2-2.1,12.71.233,23.087C53.3,454.91,59.48,462.372,61.229,464.354Z" transform="translate(-18.553 -395.054)"/><path class="t" d="M55.329,424.312c5.247-1.166,6.53,9.795,4.9,13.059-1.166,2.215-7.579-3.731-8.4-7A4.761,4.761,0,0,1,55.329,424.312Z" transform="translate(-18.366 -394.889)"/><path class="u" d="M55.623,423.81c5.247-1.049,6.53,10.028,4.781,13.409-1.166,2.215-7.579-3.964-8.279-7.346A4.812,4.812,0,0,1,55.623,423.81Z" transform="translate(-18.31 -394.97)"/><path class="f" d="M56.064,424.409c4.547-.933,5.713,8.862,4.2,11.777-.933,1.866-6.646-3.5-7.346-6.413C52.332,426.741,54.2,424.759,56.064,424.409Z" transform="translate(-18.168 -394.869)"/><path class="g" d="M56.467,424.606c3.615-.7,4.547,7.113,3.381,9.328-.816,1.516-5.247-2.8-5.83-5.13A3.256,3.256,0,0,1,56.467,424.606Z" transform="translate(-17.988 -394.834)"/><path class="h" d="M50.15,443.367c-3.148,1.982,1.516,8.279,3.964,9.212,1.632.583,1.982-5.714.816-7.812A3.45,3.45,0,0,0,50.15,443.367Z" transform="translate(-18.784 -391.79)"/><path class="f" d="M49.456,443.868h0c-1.632,2.449,2.215,7.579,4.547,8.512.933-1.166.933-5.48,0-7.229A3.222,3.222,0,0,0,49.456,443.868Z" transform="translate(-18.79 -391.707)"/><path class="l" d="M61.679,450.6a8.382,8.382,0,0,1-7.579,3.731c.466.7,1.049,1.516,1.516,2.1a10.724,10.724,0,0,0,7-3.5A19.444,19.444,0,0,1,61.679,450.6Z" transform="translate(-17.953 -390.511)"/><path class="g" d="M50.827,448.924c1.516,1.866,3.964,1.749,2.8-3.032-.466-1.982-3.032-2.449-4.2-1.749C48.844,445.426,49.661,447.408,50.827,448.924Z" transform="translate(-18.761 -391.633)"/><path class="l" d="M64.2,456.6a25.644,25.644,0,0,1-7,1.516c.583,1.166.933,1.982.933,1.982,2.8.35,6.3-.35,6.53-1.866A6.683,6.683,0,0,1,64.2,456.6Z" transform="translate(-17.439 -389.515)"/><path class="l" d="M33.083,433.407c-1.049-2.332-.7-12.943,1.166-15.042,1.049.35.466-.816,1.516-.35-2.215,2.8-2.215,13.526-1.166,15.508C33.666,433.174,33.783,433.99,33.083,433.407Z" transform="translate(-21.54 -395.939)"/><path class="m" d="M39.666,421.9c-.233,1.166-.35,2.332-.466,3.148l.933.466.233-2.565Z" transform="translate(-20.427 -395.276)"/><path class="f" d="M34.579,418.678l14.225,7.7c1.982,1.049,3.615,3.381,3.615,5.247L52.3,460.654a2.046,2.046,0,0,1-.7,1.749h0l-.117.117-5.13,3.265-1.632-5.13.816-.35-10.961-5.83a7.062,7.062,0,0,1-3.5-5.48v-23.32L27,421.476l4.781-3.032a.114.114,0,0,0,.117-.117h0A2.9,2.9,0,0,1,34.579,418.678Z" transform="translate(-22.453 -395.901)"/><path class="g" d="M34.863,419.17l14.225,8.046a6.637,6.637,0,0,1,2.682,4.664,11.065,11.065,0,0,1-3.964,2.565,7.43,7.43,0,0,0-4.2-5.48L28.8,420.919l3.381-1.982c.117,0,.117-.117.233-.117A3.009,3.009,0,0,1,34.863,419.17Z" transform="translate(-22.154 -395.811)"/><path class="s" d="M29.8,421.27l14.225,7.7a7.062,7.062,0,0,1,3.5,5.48v28.8c0,1.982-1.632,2.565-3.5,1.516l-14.225-7.7a7.062,7.062,0,0,1-3.5-5.48v-28.8C26.3,420.92,27.932,420.22,29.8,421.27Z" transform="translate(-22.569 -395.461)"/><path class="f" d="M30.532,423.663l12.476,6.646a6.105,6.105,0,0,1,3.032,4.781v25.186c0,1.632-1.4,2.332-3.032,1.283l-12.476-6.646a6.105,6.105,0,0,1-3.032-4.781V425.062C27.5,423.313,28.9,422.73,30.532,423.663Z" transform="translate(-22.37 -395.056)"/><path class="s" d="M29.532,424.263l12.476,6.646a6.105,6.105,0,0,1,3.032,4.781v25.069c0,1.632-1.4,2.332-3.032,1.283l-12.476-6.53a6.105,6.105,0,0,1-3.032-4.781V425.662C26.5,423.913,27.9,423.33,29.532,424.263Z" transform="translate(-22.536 -394.956)"/><path class="f" d="M29,426h0a.752.752,0,0,0-.7.7l.117,22.737a.752.752,0,0,0,.7.7h0a.752.752,0,0,0,.7-.7L29.7,426.7A.618.618,0,0,0,29,426Z" transform="translate(-22.237 -394.595)"/><path class="f" d="M32.7,428h0a.752.752,0,0,0-.7.7l.117,22.737a.752.752,0,0,0,.7.7h0a.752.752,0,0,0,.7-.7L33.4,428.7A.752.752,0,0,0,32.7,428Z" transform="translate(-21.622 -394.263)"/><path class="f" d="M36.4,430.1h0a.752.752,0,0,0-.7.7l.117,22.737a.752.752,0,0,0,.7.7h0a.752.752,0,0,0,.7-.7L37.1,430.8A.672.672,0,0,0,36.4,430.1Z" transform="translate(-21.008 -393.914)"/><path class="f" d="M40.1,432.1h0a.752.752,0,0,0-.7.7l.117,22.737a.752.752,0,0,0,.7.7h0a.752.752,0,0,0,.7-.7L40.8,432.8A.752.752,0,0,0,40.1,432.1Z" transform="translate(-20.394 -393.582)"/><path class="s" d="M28.7,426.2h0a.752.752,0,0,0-.7.7l.117,22.737a.752.752,0,0,0,.7.7h0a.752.752,0,0,0,.7-.7L29.4,426.9A.618.618,0,0,0,28.7,426.2Z" transform="translate(-22.287 -394.562)"/><path class="s" d="M32.4,428.2h0a.752.752,0,0,0-.7.7l.117,22.737a.752.752,0,0,0,.7.7h0a.752.752,0,0,0,.7-.7L33.1,428.9A.752.752,0,0,0,32.4,428.2Z" transform="translate(-21.672 -394.23)"/><path class="s" d="M36.1,430.3h0a.752.752,0,0,0-.7.7l.117,22.737a.752.752,0,0,0,.7.7h0a.752.752,0,0,0,.7-.7L36.8,431A.672.672,0,0,0,36.1,430.3Z" transform="translate(-21.058 -393.881)"/><path class="s" d="M39.8,432.3h0a.752.752,0,0,0-.7.7l.117,22.737a.752.752,0,0,0,.7.7h0a.752.752,0,0,0,.7-.7L40.5,433A.752.752,0,0,0,39.8,432.3Z" transform="translate(-20.444 -393.549)"/></g><g transform="translate(106.393 286.877)"><path class="v" d="M171.085,347.13s-19.239,15.741-43.259,16.091S84.1,348.3,84.1,348.3c-.233-17.14,13.642-50.255,42.56-67.4C149.281,293.493,171.552,330.106,171.085,347.13Z" transform="translate(-78.154 -280.9)"/><path class="v" d="M151.014,428.658a163.444,163.444,0,0,1-5.48,18.54,44.478,44.478,0,0,1-18.306,4.781,43.791,43.791,0,0,1-18.423-4.2,158.811,158.811,0,0,1-6.3-19.123,129.34,129.34,0,0,1-3.731-44.425s12.593,9.678,27.751,9.328,27.4-10.261,27.4-10.261A136.247,136.247,0,0,1,151.014,428.658Z" transform="translate(-75.806 -263.9)"/><path class="v" d="M170.035,392.969c-.816,5.247-1.866,10.378-3.148,15.858-1.866,7.7-4.2,15.625-6.88,23.787-.583,1.749-1.283,3.5-1.866,5.247a71.518,71.518,0,0,1-28.684,7.463c-11.194.233-21.338-3.032-29.15-6.53-.7-1.749-1.283-3.5-2.1-5.247a225.676,225.676,0,0,1-7.929-24.836C89,403.7,87.948,398.8,86.9,394.019a208.578,208.578,0,0,1-2.8-55.153s19.706,15.275,43.726,14.925S171.085,337.7,171.085,337.7A196.577,196.577,0,0,1,170.035,392.969Z" transform="translate(-78.27 -271.47)"/><path class="v" d="M99.056,425.628,79.7,456.294,79,401.958,87.862,386.1c.933,4.664,1.982,9.795,3.381,14.692A241.067,241.067,0,0,0,99.056,425.628Z" transform="translate(-79 -263.435)"/><path class="v" d="M168.573,400.808l.7,54.336-20.172-30.2c2.8-8.162,5.014-15.974,6.88-23.787,1.166-5.48,2.215-10.727,3.148-15.858Z" transform="translate(-67.362 -263.568)"/><path class="v" d="M151.6,333.723a79.168,79.168,0,0,1-10.378,4.9c-2.682-13.526-8.4-34.281-20.522-54.22C120.7,284.633,143.787,308.187,151.6,333.723Z" transform="translate(-72.077 -280.319)"/><path class="v" d="M151.243,341.294a65.547,65.547,0,0,1-10.961,5.48s-.233-4.314-1.283-11.194a109.9,109.9,0,0,0,10.961-4.781A56.026,56.026,0,0,1,151.243,341.294Z" transform="translate(-69.039 -272.616)"/><path class="v" d="M136.792,404.508l-13.409,67.4L122.1,388.3Z" transform="translate(-71.845 -263.07)"/><path class="v" d="M124.109,388.3l1.283,83.6L110,405.324Z" transform="translate(-73.853 -263.07)"/></g><rect class="w" width="122.082" height="213.848" transform="translate(96.832 286.993)"/><line class="x" x2="122.082" y2="213.848" transform="translate(96.832 286.993)"/><line class="x" x1="122.082" y2="213.848" transform="translate(96.832 286.993)"/></g></svg>