<svg xmlns="http://www.w3.org/2000/svg" width="80" height="80.001" viewBox="0 0 80 80.001"><defs><style>.a{fill:#ef4a23;}</style></defs><g transform="translate(6.667 8.001)"><rect class="a" width="17.333" height="2.667"/></g><g transform="translate(6.667 13.334)"><rect class="a" width="17.333" height="2.667"/></g><g transform="translate(6.667 18.668)"><rect class="a" width="12" height="2.667"/></g><g transform="translate(6.667 24.001)"><rect class="a" width="12" height="2.667"/></g><g transform="translate(0 77.334)"><g transform="translate(0)"><rect class="a" width="80" height="2.667"/></g></g><g transform="translate(5.22 0)"><g transform="translate(0 0)"><path class="a" d="M103.3,11.4,97.963.738a1.333,1.333,0,0,0-1.788-.6h0L85.507,5.474A1.334,1.334,0,1,0,86.7,7.861L94.424,4l-2.108,6.019A71.153,71.153,0,0,1,31.323,57.334L31.55,60A73.821,73.821,0,0,0,94.835,10.9L96.987,4.75,100.91,12.6A1.334,1.334,0,0,0,103.3,11.4Z" transform="translate(-31.323 0.001)"/></g></g><g transform="translate(5.333 64.001)"><path class="a" d="M42.67,384.006H33.336A1.333,1.333,0,0,0,32,385.339v8a1.333,1.333,0,0,0,1.333,1.333H42.67A1.333,1.333,0,0,0,44,393.339v-8A1.333,1.333,0,0,0,42.67,384.006Zm-1.333,8H34.67v-5.333h6.667Z" transform="translate(-32.003 -384.006)"/></g><g transform="translate(20 60.001)"><path class="a" d="M130.67,360.006h-9.333A1.333,1.333,0,0,0,120,361.339v12a1.333,1.333,0,0,0,1.333,1.333h9.333A1.333,1.333,0,0,0,132,373.339v-12A1.333,1.333,0,0,0,130.67,360.006Zm-1.333,12H122.67v-9.333h6.667Z" transform="translate(-120.003 -360.006)"/></g><g transform="translate(34.667 53.334)"><path class="a" d="M218.67,320.006h-9.333A1.333,1.333,0,0,0,208,321.339v18.667a1.333,1.333,0,0,0,1.333,1.333h9.333A1.333,1.333,0,0,0,220,340.006V321.339A1.333,1.333,0,0,0,218.67,320.006Zm-1.333,18.667H210.67v-16h6.667Z" transform="translate(-208.003 -320.006)"/></g><g transform="translate(49.333 44.001)"><path class="a" d="M306.67,264.006h-9.333A1.333,1.333,0,0,0,296,265.339v28a1.333,1.333,0,0,0,1.333,1.333h9.333A1.333,1.333,0,0,0,308,293.339v-28A1.333,1.333,0,0,0,306.67,264.006Zm-1.333,28H298.67V266.673h6.667Z" transform="translate(-296.003 -264.006)"/></g><g transform="translate(64 25.334)"><path class="a" d="M394.67,152.006h-9.333A1.333,1.333,0,0,0,384,153.339v46.667a1.333,1.333,0,0,0,1.333,1.333h9.333A1.333,1.333,0,0,0,396,200.006V153.339A1.333,1.333,0,0,0,394.67,152.006Zm-1.333,46.667H386.67v-44h6.667Z" transform="translate(-384.003 -152.006)"/></g></svg>