<svg xmlns="http://www.w3.org/2000/svg" width="442.818" height="362.01" viewBox="0 0 442.818 362.01"><defs><style>.a{fill:none;stroke:#e06724;stroke-miterlimit:10;stroke-width:4px;}.b{fill:#f04923;}.c{fill:#e0d5ce;}.d{fill:#54433c;}.e{fill:#f2722a;}.f{fill:#878787;}.g{fill:#e6c59c;}.h{fill:#f5dbbc;}.i{fill:#c29f74;}.j{fill:#c44f0c;}.k{fill:#7e7974;}.l{fill:#575756;}.m{fill:#3c3c3b;}.n{fill:#f2b211;}.o{fill:#fff7b2;}.p{fill:#d4d6df;}.q{fill:#812926;}.r{fill:#a85105;}.s{fill:#fc0;}.t{fill:#dbe9f5;}.u{fill:#d2cde8;}.v{fill:#c54f0c;}.w{fill:#b2b2b2;}</style></defs><g transform="translate(76.821 -210.197)"><path class="a" d="M-55.4,413s-27.1-14.9-17.1-28.1,55.4-26.3,90.3-12,77.9-11.2,77.9-11.2"/><path class="b" d="M341.3,329.4c0,15.5-3.7,28.3-10.1,39.2a89.751,89.751,0,0,1-7.1,10.3c-23.4,28.7-67,44.4-106.4,69.8-116.3,75-128.9-45.2-123.6-119.3a131.724,131.724,0,0,1,32.3-78.2A121.967,121.967,0,0,1,139,238.9a120.292,120.292,0,0,1,78.8-28.7c52.6,0,97.6,31.8,115.4,76.5a116.954,116.954,0,0,1,8.1,42.7Z"/><path class="c" d="M244,237,126.3,251.2a121.967,121.967,0,0,1,12.6-12.3Z"/><path class="c" d="M331.2,368.6a89.751,89.751,0,0,1-7.1,10.3L223.3,366.8Z"/><path class="c" d="M337.2,298.9,166.3,276.7l166.8,9.9A104.34,104.34,0,0,1,337.2,298.9Z"/><path class="b" d="M105.7,241.9v.9A12.383,12.383,0,0,1,81,241a12.027,12.027,0,0,1,1.4-4.9l.9-1.5a12.339,12.339,0,0,1,22.3,6.2A4.485,4.485,0,0,1,105.7,241.9Z"/><path class="c" d="M105.7,241.9v.9l-18.5-2.2,18.5.3Z"/><path class="c" d="M101.3,248.1l-17.1,2.1a10.917,10.917,0,0,1-1.3-1.7Z"/><path class="c" d="M96.4,234.4l-14,1.7.9-1.5Z"/><path class="b" d="M275,464.4a3.508,3.508,0,0,1-.5.8,12.333,12.333,0,0,1-20.9-13.1,13.669,13.669,0,0,1,3.5-3.7l1.5-.9a12.341,12.341,0,0,1,16.8,15.9A2.994,2.994,0,0,1,275,464.4Z"/><path class="c" d="M275,464.4a3.508,3.508,0,0,1-.5.8l-15.3-10.6,16.2,8.9A3.553,3.553,0,0,1,275,464.4Z"/><path class="c" d="M268.2,467.8l-16.1-6.2a7.8,7.8,0,0,1-.3-2.2Z"/><path class="c" d="M270.3,453.4l-13.2-5.1,1.5-.9Z"/><path class="b" d="M362.5,251.4a4.349,4.349,0,0,1,.6.7A12.349,12.349,0,1,1,344.2,268a12.214,12.214,0,0,1-2.4-4.5,8.468,8.468,0,0,1-.4-1.7,12.333,12.333,0,0,1,20.3-11.1A2.7,2.7,0,0,1,362.5,251.4Z"/><path class="c" d="M362.5,251.4a4.349,4.349,0,0,1,.6.7l-14.8,11.3,13.5-12.7A4.622,4.622,0,0,1,362.5,251.4Z"/><path class="c" d="M363.7,258.9l-10.8,13.4a19.2,19.2,0,0,1-2.2-.3Z"/><path class="c" d="M350.7,252.5l-8.9,11a8.468,8.468,0,0,1-.4-1.7Z"/><path class="d" d="M118.6,352.7h-.2l.5,1.9a49.708,49.708,0,0,0,2.1,7.8l14.7,55.7a9.439,9.439,0,0,0,7.7,6.9l29.9,4.6a9.4,9.4,0,0,0,9.8-4.9l28.4-53.1a49.154,49.154,0,0,0,2.4-4.5l1-1.8h-.2a50.213,50.213,0,1,0-96.1-12.6Z"/><path class="c" d="M175.1,433.3a8.6,8.6,0,0,1-1.6-.1l-31.3-4.8a10.159,10.159,0,0,1-8.4-7.6l-15.3-58.3a58.359,58.359,0,0,1-2.2-8.2l-.4-2.5a53.071,53.071,0,0,1,45.8-59.3,52.428,52.428,0,0,1,14.8.2l-.1.9A52.076,52.076,0,0,0,117,337.2a50.953,50.953,0,0,0-.1,15.1l.3,1.9a53.441,53.441,0,0,0,2.1,8.1l15.3,58.3a9.585,9.585,0,0,0,7.7,6.9l31.3,4.8a9.4,9.4,0,0,0,9.8-4.9l.8.4a10.294,10.294,0,0,1-9.1,5.5Z"/><rect class="c" width="55.3" height="1.1" transform="matrix(-0.344, 0.939, -0.939, -0.344, 184.05, 365.826)"/><rect class="c" width="1.1" height="55.3" transform="translate(154.391 415.853) rotate(177.484)"/><path class="d" d="M172.4,459.8l-40-6.2a1.118,1.118,0,1,1,.4-2.2l40,6.2a1.146,1.146,0,0,1,1,1.3,1.112,1.112,0,0,1-1.4.9Z"/><path class="d" d="M173.4,451.3l-40-6.2a1.118,1.118,0,1,1,.4-2.2l40,6.2a1.13,1.13,0,0,1,.9,1.3A1.325,1.325,0,0,1,173.4,451.3Z"/><path class="d" d="M174.5,442.7l-40-6.2a1.146,1.146,0,0,1-1-1.3,1.084,1.084,0,0,1,1.3-1h.1l40,6.2a1.13,1.13,0,0,1,.9,1.3A1.181,1.181,0,0,1,174.5,442.7Z"/><path class="d" d="M151.2,464.7c7.9,1.2,15.1-2.2,15.9-7.7l-28.8-4.5C137.5,458.1,143.2,463.5,151.2,464.7Z"/><path class="c" d="M165.5,354.5a7.76,7.76,0,0,1-3.9-2.5c-.3-.3-.5-.6-.8-.9a9.278,9.278,0,0,0-2.9-2.7c-2.6-1.2-5.7.5-8.4,2.3l-.6-.9c2.9-2,6.4-3.9,9.5-2.4a8.91,8.91,0,0,1,3.3,3.1c.2.3.5.6.7.9.8.9,2.4,2.5,4.1,2.1a7.5,7.5,0,0,0,2-1c.4-.3.9-.6,1.4-.9a5.481,5.481,0,0,1,6.1.9,6.469,6.469,0,0,1,.8.9,4.013,4.013,0,0,0,1.6,1.3c.9.3,1.9-.2,3-.8a5.345,5.345,0,0,1,3.5-1h.1c2.2.3,3.3,2.8,3.9,4.7l-1.1.3q-1.2-3.75-3-3.9a4.678,4.678,0,0,0-2.8.9,4.99,4.99,0,0,1-3.9.9,3.92,3.92,0,0,1-2.1-1.7c-.2-.3-.5-.5-.7-.8a4.577,4.577,0,0,0-4.9-.7,9.132,9.132,0,0,0-1.3.8,5.45,5.45,0,0,1-2.4,1.2A4.122,4.122,0,0,0,165.5,354.5Z"/><path class="e" d="M35.7,391.7c-9.2,2.4-24.7-.5-33.5.1-7.9,2.1-7,1.9-9.5,9.3-2.4,7.5-7.4,3.5,2.2,13.9,12.9,1.4,40.1-8.5,45.8-10.2,6.9-2.2,18.4-5.8,22.4-7.9L61,387.4C55.4,385.6,51.7,387.2,35.7,391.7Z"/><path class="f" d="M-4.5,399.9c6.7-.4,20.9-7,17.1-8.6-5.8-2.6-27.7-2.9-27.5,3.5C-14.7,397.3-11.1,400.3-4.5,399.9Z"/><path class="g" d="M-4,398.6c5.9-.4,18.5-6.2,15.1-7.6-5.1-2.2-24.4-2.5-24.3,3.1C-13.1,396.3-10.1,399-4,398.6Z"/><path class="h" d="M-5.5,397.1c4.7-.2,14.8-4.8,12.1-6-4-1.8-19.3-2.1-19.3,2.4C-12.7,395.3-10.1,397.4-5.5,397.1Z"/><path class="g" d="M-26.3,380.5,2.3,440.7c1.6,3.4.9,9.1-1.6,12.7l-16.5,23.7,1.1.8,1.3,9.4-11.5-1.5a3.9,3.9,0,0,1-2.7-2.5l-28.7-60.2c-1.6-3.4-.9-9.1,1.6-12.7l20.9-29.8C-31.4,377.1-28,377-26.3,380.5Z"/><path class="h" d="M-27.4,382l1.8,3.7-18.8,25.9a14.538,14.538,0,0,0-2.4,9.1l-4.4-.3a15.347,15.347,0,0,1-5.1-1.3,15.036,15.036,0,0,1,2.2-8.8l19.6-28.1C-32.1,378.9-28.9,378.8-27.4,382Z"/><path class="i" d="M-15.3,381.9l28.7,60.2c1.6,3.4.9,9.1-1.6,12.7L-9,484.4c-2.5,3.6-5.9,3.8-7.5.3l-28.7-60.2c-1.6-3.4-.9-9.1,1.6-12.7L-22.7,382C-20.2,378.6-16.9,378.4-15.3,381.9Z"/><path class="j" d="M-13.4,415.5c6.1.4,33.6-1.7,40.4-3.7,7-2.1,32.3-12.7,36.3-14.8l-3.7-9.6a6.907,6.907,0,0,1-3.8,7.5c-19.1,9.4-22.5.8-28.5,6.4C15.2,410-6.4,391.4-13.4,415.5Z"/><path class="g" d="M92.1,491.9a22.625,22.625,0,0,0,5.4,3c6.7,2.6,12.2-3,18.6-4.5,2.1-.5,5.5-.4,6.9,1.2,4.5,7.2-5.4,15.7-16,20.7h0c-5.8,2.9-12.5,5.8-18.1,7.1-6-2.4-8-6.1-11.4-9.8Z"/><path class="k" d="M89.1,521.5c2.8.3,6.4-2.7,12.8-5.2,8.8-3.3,15.1-5.9,20.4-11.3,3.4-3.5,4.7-9.7,3.1-11.9l-2.5-2.1c2.1,2.4.4,8.4-2.9,12-8.4,9.1-14.2,7.5-24.1,11-3.2,1.1-4.1,4.5-10.3,3.6C86.8,518.9,86.5,521.3,89.1,521.5Z"/><path class="g" d="M65.3,543.7a30.039,30.039,0,0,0,4.5,4.3c5.9,4.2,12.6.2,19.1.3,2.2,0,5.5,1,6.4,2.9,2.6,8.2-9.1,13.8-20.6,16h0a97.359,97.359,0,0,1-19.3,2.5c-5.2-3.8-6.3-7.9-8.7-12.3Z"/><path class="h" d="M88.9,558c-5.5,4.9-18.6,4-25.2,4.9-6.8.9-9.7,5.8-13.4-2.3h0c6.8,1.5,16.6-3.6,18.8-9.2,6.6,3.8,7.2-1.1,17-1.1C90.4,550.3,93.5,554.1,88.9,558Z"/><path class="k" d="M55,571.9c2.6,1.1,24.7-.6,36.1-7.7,4.1-2.6,6.9-8.3,5.9-10.8l-1.9-2.6c1.3,2.8-1.7,8.2-5.8,10.9-10.2,6.8-15.5,3.7-25.9,4.6-3.4.4-5.1,3.3-10.8.9C53.3,568.7,52.5,570.9,55,571.9Z"/><path class="e" d="M-22.9,400.9c10.6-5,18-4.1,23.4-.7a34.7,34.7,0,0,1,4.6,4c13.9,14.1,18.1,25,16.5,30.3-.1,25.4-19.7,41.2-36.3,31.9-1.7-.3-1.1-3.4-5.7-8.4-6-6.4-8.7-18.1-12.6-22.9-3-4.3-9.8-11.8-9.8-11.8C-43.3,423.1-39.7,405.6-22.9,400.9Z"/><path class="j" d="M12.2,455.8c10.3,8.6-15.2,18.8-23.3,17.9,2.6,2.9-2.1,8.5,12.1,23.5,3.9,4.5,20.1,17.4,24,23.1C35.9,536,41.6,554,44.5,553.5c10.3,11.3,24-6.4,19.1-12.2-1.1-7.7-25.1-40.9-37.3-57.7,15.2-3.8,35,5.1,49.3,23.4,7,5.2,20.8-7.1,15.2-16.1-3.1-9.5-7-15.3-17.8-26.7-16.5-17.7-59.2-11.5-59.2-11.5Z"/><path class="e" d="M14.6,449.9a14.6,14.6,0,0,0,1.1,4.3c11.8,15,46.2,1.4,58.7,17.3,1.4,1.7-.6,7.2-3.5,11.9-5.7,8.9,22.2,16.4,10.2,24.9,7.7-1.4,14.8-9.9,9.8-17.3-3.1-9.5-7-15.3-17.8-26.7-16.6-17.6-58.4-14.7-58.4-14.7Z"/><path class="e" d="M17.1,452.6c1,8.1,2.1,19.6,1.4,21.2-3.5,8.2-15.9,3.6-17,5.7,12,7.6,33.5,19.5,41.2,31.9,2.7,4.3-2.6,5.2-2.9,10.4-.2,3.5,19.3,18.2,15.5,30.9-.6,1.9-5.9,4-6.5,5,12.6-.5,18.3-12.2,14.9-16.3-.6-4.1-7.6-30.1-12.2-35.8-7-8.9-16.5-16.4-25.2-21.9C26.4,480.1,23.5,453.2,17.1,452.6Z"/><path class="g" d="M-43,425.5c-1.9-6.4.2-8.6,3.2-12.8,4.2-5.9,16.7-20.6,25-19.8,14,1.5,29.2,14.5,33.3,27.1,1.1,4.1-9.9-7.8-18.2,2.7-9.2,11.7-4.4,28.1-8.9,33.5-2.2,2.6-5.9,3.2-11.9,1.6C-32.3,447-39.8,436.4-43,425.5Z"/><path class="h" d="M-19.3,410.8c9.2-2.7,26.3-3.9,26.7,1,.4,5.7-6.2,5.5-9.4,11.3-3.3,6.1-9.9,18.1-15.6,8.9-6.6-10.5-11.9-17.4-22.4-17.1C-32.4,403.9-26.8,413-19.3,410.8Z"/><path class="l" d="M47.1,559.2c-1-.9-3.4-6.3-3-6,6.6,8.9,24.3-3.7,19.4-11.8-.5-.7,2.7,2.5,3.3,3.2C72.2,552,54.9,564.8,47.1,559.2Z"/><path class="l" d="M-32.4,414.1c9.1.9,8.4-.3,16.9,1.6,3.3-4.1,5.1-6.3,8.4-10.4-2.4-3.3-2.7-5.3-8.1-7.5C-22.6,403.1-25.7,408.2-32.4,414.1Z"/><path class="m" d="M-10.9,402.8l2.6,4.2,1.2-1.6c-.9-1.3-2.1-3.4-3.5-5.2Z"/><path class="l" d="M24.8,442.7c3.8,16.6-20.4,36.9-36,31.1-1.1-2.2-2.3-4.8-3.7-7.5,17.9,6.1,36.8-12.2,36.3-33.1C22.5,436.3,23.7,439.5,24.8,442.7Z"/><path class="m" d="M69.2,395.8c2-.3,5.5,1,7.1,1.6,1.9.8,2.9,2.6,4.9,1.4,1-.6-1.3-2.2-3.1-3.2-4.1-2.2.1-.3,1.9.5.8.4,2.6,2,3.4,2.3s3.1.5,3.3-.8l-.6-.6a2.269,2.269,0,0,0,2.5,0c.7-.7-.3-1.4-.7-2.1a1.255,1.255,0,0,0,1.1-.6,32.848,32.848,0,0,0-4.5-4.7c-.9-.7-3.9-2.7-4.9-3.4a4.816,4.816,0,0,0-3.2-1.3,26.151,26.151,0,0,0-2.8,0c-.6,0-9.2,1.9-11.3,2.5-2.6.1-1.3,5.7.3,6.7C64.8,395.4,65,396.3,69.2,395.8Z"/><path class="l" d="M66.3,389.2c.3-1.4,4-1.9,5.1-1.8,1.4.1,11,1.3,8.9,2.9-2.3,1.7-4.7-.5-6.5.5-1.6.8-3.8,2.6-5.5,1.8C67,391.7,65.7,391.6,66.3,389.2Z"/><path class="l" d="M62.5,386.1c2.8.7,3.7,5.4,2.6,10.8,0,0-1.5.7-4,1.6a33.586,33.586,0,0,0-1.9-11.8Q61.15,386.4,62.5,386.1Z"/><path class="l" d="M78.5,511.4c-1.1-.6-4.8-5.3-4.4-5.1,8.5,6.9,22.6-9.6,15.8-16.2-.7-.6,3.2,1.7,3.9,2.3C100.9,498.1,87.3,514.8,78.5,511.4Z"/><path class="l" d="M1.3,471.1c11.1,3.7,16.5,9.9,22.4,14.6-9.1-4.2-18.9-8.9-29.3-11.8C-3.7,473.1-.8,471.9,1.3,471.1Z"/><path class="l" d="M25.2,446.4c5.3,18.9,2.8,26.7-1.6,39.3,2.1-11.9,1.8-22.7-1-32C24,455.4,23.9,444.8,25.2,446.4Z"/><path class="m" d="M-41.2,407.8c1.3,5.2,8.7,7.9,16.5,6.2,7.9-1.7,13.3-7.3,12.1-12.4-1.3-5.2-8.7-7.9-16.5-6.2C-36.9,397.2-42.4,402.7-41.2,407.8Z"/><path class="l" d="M-41.2,407.8a7.448,7.448,0,0,0,1.1,2.4c3.1,2.2,8.2,3.1,13.5,2,7.9-1.7,13.3-7.3,12.1-12.4a7.448,7.448,0,0,0-1.1-2.4c-3.1-2.2-8.2-3.1-13.5-2C-36.9,397.2-42.4,402.7-41.2,407.8Z"/><path class="e" d="M-22.8,361c15,6.3,21.4,29.7,14.1,40.1-8.9,12.7-24.7,9.7-36.3,5.8-4.6-4.3-12-16.4-11.6-24.2C-56.1,367.6-36.9,355.1-22.8,361Z"/><path class="j" d="M-27.7,402.6c.8-.1,2.3-1.9,2.3-1.8,3.2.7,12.1-1.2,18-1.8a10.708,10.708,0,0,1-1.3,2.1c-8.9,12.7-24.7,9.7-36.3,5.8a39.112,39.112,0,0,1-4.2-5C-40.3,407.4-28.8,402.8-27.7,402.6Z"/><path class="n" d="M-30.6,363c5.1,3.7,4.5,13.3-1.3,21.6-5.8,8.4-14.7,12.1-19.9,8.5-5.1-3.7-4.5-13.3,1.3-21.6C-44.6,363.2-35.8,359.4-30.6,363Z"/><path class="o" d="M-35.5,364.3c1.8,1.8.8,5.7-2.1,8.6s-6.9,3.8-8.6,1.9c-1.8-1.8-.8-5.7,2.1-8.6C-41.1,363.4-37.2,362.5-35.5,364.3Z"/><path class="p" d="M-12.8,405.3a18.223,18.223,0,0,0,4.1-4.2c7.3-10.3,1.1-33.4-13.6-39.9-9.7.3-23.4,9-24.9,32.9,2.3,3.2,4.5,6.4,6.8,9.6,2.7-.3,5.4-.5,8.2-.8C-24.2,408.8-17.8,408.4-12.8,405.3Z"/><path class="q" d="M-6.9,397.5C-3.2,387-8.3,370-19.4,362.7c-13.7,2.4-23.4,16.3-26.8,31,2.2,3.1,4.4,6,6.5,9.1,2.6-.2,5.1-.5,7.7-.7C-18.9,409.5-11.5,404.8-6.9,397.5Z"/><path class="e" d="M-18.8,364.3c-9,2.3-16.9,9.4-21.1,17.7-.6,1.3-5.7,10.6-3.4,10.6a39.771,39.771,0,0,0,5.9-2.3c1.8-1.8.5-5,.9-7,.4-1.7,4.9-.6,6.8-3.9,1.5-2.6,5.2-.1,4.3-4.9-1-4.9,9.6-2.8,10.4-6.3A20.1,20.1,0,0,0-18.8,364.3Z"/><path class="r" d="M-30.1,400.8c1.4.8,7.1,4.4,14.6,3.2,8.9-3.1,10.4-15.4,6.8-24.8-2.2,18.4-24.1,14.4-30.9,22.2A84.86,84.86,0,0,0-30.1,400.8Z"/><path class="s" d="M-24,367a38.374,38.374,0,0,0-15.6,16.1c-.5,1.1-4.3,8.1-2.6,7.7a34.94,34.94,0,0,0,4.3-2.8c1.3-1.5.4-3.3.7-4.7.4-1.3,2.6-1.8,3.9-4.4,1-2.1,3.8-1.2,3.1-4.1C-31,370.6-26.6,371-24,367Z"/><path class="j" d="M-20.5,458c4.8,1.7,7.8,1.2,9.1-2.6A77.274,77.274,0,0,1-7,430.2L3.6,416.5c3.9-.8,8.5-1.4,12.6.6a60.119,60.119,0,0,1,3,7.1c1.1,4.1-9.9-7.8-18.2,2.7-9.2,11.7-3.8,26.4-8.9,33.5-2.5,3.3-6.4,1.5-10,.9A13.086,13.086,0,0,0-20.5,458Z"/><path class="l" d="M-.7,467.1c-1.1.6-2.3,1.1-3.5,1.7,0-2.7-1.1-6.3-6.5-13.7,1.1-.6,2.3-1.1,3.5-1.7C-1.8,461-.4,464.9-.7,467.1Z"/><path class="l" d="M21.4,435.7c.1,1.8,1.2,2.5-.3,2.8,0-2.7-2-13.1-7.4-20.5,1.2-.6,2.1,1,3.3.5A24.589,24.589,0,0,1,21.4,435.7Z"/><path class="k" d="M-26.7,451.3c8.2,4.1,12.8,5.1,14.7-.1A77.274,77.274,0,0,1-7.6,426L3,412.3c3.9-.8,8.5-1.4,12.6.6a60.119,60.119,0,0,1,3,7.1c1.1,4.1-9.9-7.8-18.2,2.7-9.2,11.7-3.8,26.4-8.9,33.5-2.9,4.2-6.9,2.8-11.5,2A43.315,43.315,0,0,1-26.7,451.3Z"/><path class="j" d="M-8.1,391.5a20.435,20.435,0,0,1-17.6,9.7C-19.6,404.9-8.1,402.5-8.1,391.5Z"/><path class="m" d="M22.2,435.4c.8,2.4,1.7,4.8,2.6,7.2,3.8,16.6-20.4,36.9-36,31.1-.8-1.7-1.7-3.6-2.7-5.5C3.9,474,22.3,456,22.2,435.4Z"/><path class="j" d="M-57.5,392.1c-1.2.6-2,2.5-1.7,4.3.2,1,.9,2.3,2.1,2.4l15.2,1.3.6-6.9-15.2-1.3A2.509,2.509,0,0,0-57.5,392.1Z"/><path class="t" d="M-56.5,391.9c-.6,0-1.3,1.4-1.5,3.5a13.277,13.277,0,0,0,0,2l16.1,1.3.5-5.5-15.1-1.3Z"/><path class="e" d="M-57.5,392.1c-1.2.6-2,2.5-1.7,4.3a2.388,2.388,0,0,0,.2.9l17.2,1.5.5-5.5-15.3-1.4A2.388,2.388,0,0,0-57.5,392.1Z"/><path class="n" d="M-56.5,391.9a2,2,0,0,0-.9.2,3.564,3.564,0,0,0-1.8,3.1l17.6,1.5.3-3.4Z"/><path class="l" d="M-40.8,399.8c-1.3.6-2.6-.4-2.9-2.2s.4-3.7,1.7-4.3,2.6.4,2.9,2.2C-38.9,397.4-39.6,399.3-40.8,399.8Z"/><path class="e" d="M-42.6,397.7a3.424,3.424,0,0,0,.9,1.7l-1-.7a1.728,1.728,0,0,1-.5-1.3,3.314,3.314,0,0,1,1.3-3.4l1.1-.2A4.224,4.224,0,0,0-42.6,397.7Z"/><path class="l" d="M-40,399.6c-1.1.6-2.2-.3-2.4-1.9A3.226,3.226,0,0,1-41,394c1.1-.6,2.2.3,2.4,1.9C-38.4,397.4-39,399.1-40,399.6Z"/><path class="u" d="M-40.1,399c-.8.4-1.7-.3-2-1.5a2.84,2.84,0,0,1,1.1-2.9c.8-.4,1.7.3,2,1.5C-38.8,397.4-39.3,398.7-40.1,399Z"/><path class="j" d="M-2.2,410.2a4.759,4.759,0,0,1,3.1,2.6c.4,1.1-.3,1.8-1.5,1.5a4.759,4.759,0,0,1-3.1-2.6C-4.2,410.7-3.5,410-2.2,410.2Z"/><path class="e" d="M-1.9,409.9a4.759,4.759,0,0,1,3.1,2.6c.4,1.1-.3,1.8-1.5,1.5a4.759,4.759,0,0,1-3.1-2.6C-3.9,410.2-3.2,409.5-1.9,409.9Z"/><path class="k" d="M-1.6,410.6a2.815,2.815,0,0,1,1.9,1.6c.2.8-.2,1.2-1,1a2.815,2.815,0,0,1-1.9-1.6C-2.9,410.9-2.4,410.4-1.6,410.6Z"/><path class="o" d="M-40.5,396.8c-.2.2-.5,0-.6-.5a1.113,1.113,0,0,1,.3-1c.2-.2.5,0,.6.5A.944.944,0,0,1-40.5,396.8Z"/><path class="j" d="M-4.8,413.4A4.759,4.759,0,0,1-1.7,416c.4,1.1-.2,1.9-1.5,1.5a5.051,5.051,0,0,1-3.1-2.6C-6.7,413.8-6.2,413.1-4.8,413.4Z"/><path class="e" d="M-4.4,413.1a4.759,4.759,0,0,1,3.1,2.6c.4,1.1-.2,1.9-1.5,1.5a5.051,5.051,0,0,1-3.1-2.6C-6.4,413.4-5.8,412.7-4.4,413.1Z"/><path class="k" d="M-4.2,413.8a2.815,2.815,0,0,1,1.9,1.6c.2.8-.2,1.2-1,1a2.815,2.815,0,0,1-1.9-1.6C-5.4,414-5,413.6-4.2,413.8Z"/><path class="j" d="M-7.4,416.6a4.759,4.759,0,0,1,3.1,2.6c.4,1.1-.2,1.9-1.5,1.5a4.759,4.759,0,0,1-3.1-2.6C-9.3,417-8.7,416.3-7.4,416.6Z"/><path class="e" d="M-7,416.3a4.759,4.759,0,0,1,3.1,2.6c.4,1.1-.2,1.9-1.5,1.5a4.759,4.759,0,0,1-3.1-2.6C-9,416.6-8.3,415.9-7,416.3Z"/><path class="k" d="M-6.7,416.9a2.815,2.815,0,0,1,1.9,1.6c.2.8-.2,1.2-1,1a2.815,2.815,0,0,1-1.9-1.6C-8.1,417.2-7.7,416.7-6.7,416.9Z"/><path class="j" d="M-10,419.8a4.759,4.759,0,0,1,3.1,2.6c.4,1.1-.2,1.9-1.5,1.5a5.051,5.051,0,0,1-3.1-2.6C-12,420.2-11.3,419.5-10,419.8Z"/><path class="e" d="M-9.7,419.3a4.759,4.759,0,0,1,3.1,2.6c.4,1.1-.2,1.9-1.5,1.5a5.051,5.051,0,0,1-3.1-2.6C-11.6,419.8-11,419-9.7,419.3Z"/><path class="k" d="M-9.4,420a2.815,2.815,0,0,1,1.9,1.6c.2.8-.2,1.2-1,1a2.815,2.815,0,0,1-1.9-1.6C-10.6,420.3-10.2,419.9-9.4,420Z"/><path class="h" d="M119.1,500.2c-4.2,6.2-17,8.5-23.1,11-6.5,2.6-7.9,8.1-13.6,1.2h0c6.9,0,15.1-7.6,15.9-13.5,7.4,2,6.6-2.9,16.2-5.3C118.7,492.5,122.6,495.4,119.1,500.2Z"/><path class="j" d="M-.3,446.3c4.5-5.2,9.3-9.5,12.4-17.6.5-2.3-1.3-5.1-4.2-8.1C8.5,430.7,4.4,438.7-.3,446.3Z"/><path class="j" d="M1.6,455.2c5-4.7,10.1-8.6,14-16.4.8-2.3-.9-5.2-3.4-8.5C11.9,440.5,7.1,448,1.6,455.2Z"/><path class="j" d="M5.4,461.6c4.5-3.9,9.4-7.1,13.1-13.7.7-2-.5-4.7-2.6-7.6C15,449.2,10.4,455.6,5.4,461.6Z"/><path class="l" d="M25,453.2l1.4,3.9a4.865,4.865,0,0,1-.2,2.9c-1.1,3.4-7,8.7-14.7,15.7-1.5-.6-2.5-.4-3.6-1.7-.7-.9-4-6.3-2.5-7.4,6.5-4.5,10.8-8.8,13.1-13.5C19.4,451.5,24.6,451.8,25,453.2Z"/><path class="m" d="M25.1,453.7l1.3,3.8a4.535,4.535,0,0,1-.3,2.5c-1.9,3.5-7.6,9.5-14.2,15.6a.947.947,0,0,1-.8-.7L10,471a4.976,4.976,0,0,1,1.2-4l11.6-13.1C23.7,452.7,24.8,452.7,25.1,453.7Z"/><path class="e" d="M-23.8,419.4c1.1.3,2.2.5,3.5.8l-.1.5-1.6-.4,1.6.6-.1.6-2.7-1.1a2.512,2.512,0,0,0,1.8,2.2c.2,0,.4.1.6.1l-.1.5a2.92,2.92,0,0,1-.9-.2c-2-.5-2.7-2-2-3.6Zm3.7-.3-2.4-1.4a7.892,7.892,0,0,1,3-1.2l-.1.5a4.221,4.221,0,0,0-1.2.3l1.1.5-.2.7-.5-.2.5.2Zm-1,4.3.1-.6a6.589,6.589,0,0,0,3.1-.3l-2.7-1.1.1-.6,1,.3,1.1.5,1.3.5.6.2c-.2.2-.5.3-.7.5h0a7.261,7.261,0,0,1-3.8.6Zm.6-2.6.1-.4,3.1.8-2.9-1.8.1-.6,4.1,2.5h0l.5.3a.349.349,0,0,0-.1.2.349.349,0,0,0-.1.2l-2.2-.5h0l-2.6-.7Zm2.3-1.5,1,.3,1.5.6.6.2c0-.2.1-.4.1-.6h0a2.745,2.745,0,0,0-2.1-2.9,5.661,5.661,0,0,0-2.6-.3l-.1.5a4.694,4.694,0,0,1,2.4.3,2.474,2.474,0,0,1,1.8,2.2l-4.3-1.7-.1.6Z"/><path class="l" d="M-14.8,496.8c1.5-.7,4.8,2.1,5.6,3.1,1.4,1.5,1.5,3.8,3.3,5.7,1.7,2,2.5,4.4.8,4-3.3-.7-4.7-4.8-6.9-5.7-1.9-.8-3.8-.9-4.5-2.9C-16.6,499.3-17.4,498.1-14.8,496.8Z"/><path class="m" d="M-25.1,502.4c1.2,1.9,2.1,5.7,2.4,7.7.3,2.2-.6,4.3,1.2,5.6,1.1.8,1.6-2.5,1.6-4.7,0-5.2.3-.1.6,2,.1,1-.2,3.9-.1,4.8.1,1,1.1,3.4,2.3,2.6l.3-.9a2.335,2.335,0,0,0,1.4,2.4c1.1.3,1.1-1.1,1.4-1.9.2.6,1.1.9,1.6.9.9.1,1.7-4.7,2.4-6.9.3-1.3.7-5.2.8-6.6a4.594,4.594,0,0,0-.5-3.8c-.5-1.1-.2-3.6-.8-4.5-.4-.5-7.9-5.9-9.7-7.8-1.5-2.5-6.8,1.7-6.9,3.8C-27.1,497.9-27.8,498.6-25.1,502.4Z"/><path class="l" d="M-23.6,502.3c.9,2,.9,3.6,1.9,5.1a4.029,4.029,0,0,0,2.4.8,2.357,2.357,0,0,0,3.3-.1c.8.7,2.4.4,3.3-.8,1.9.4,3-1,3.2-2.6a25.755,25.755,0,0,0-4.1-5.9C-14.9,500.8-19.7,501.3-23.6,502.3Z"/><path class="j" d="M-43.5,424.5a21.947,21.947,0,0,1,4.9-6.7c2.4-3.1,24.3,9.6,15.2,29.4-9.6,11.2,3.3,37.8,7.1,45.5L-27,499s-16.2-18-18.5-30.3C-49.3,447.8-47,432.7-43.5,424.5Z"/><path class="e" d="M-43.4,424.5a12.809,12.809,0,0,1,2.9-4.7c1.7-2.1,14.3,1.2,18.1,11.2h0l.1.1a4.169,4.169,0,0,1,.2.6c1.8,6.7-10.4,25.3-10.5,33.7-.1,7.3,5.2,19.6,9.1,25a31.772,31.772,0,0,1,3.1,4.8L-27,499s-16.2-18-18.5-30.3C-49.3,447.8-47,432.7-43.4,424.5Z"/><path class="v" d="M-30.8,433.4c-1.6,6.4-14.5,17.8-16.6,13.5-3.3-6.5-.6-28,9.8-25.6A9.926,9.926,0,0,1-30.8,433.4Z"/><path class="l" d="M-22.2,444.3c-1.8-4.1-6.5-11.5-13.5-11.9.7-2.2,0-2.6.7-4.7,5.7-.1,11.6,6.4,13.8,11.1A22.888,22.888,0,0,1-22.2,444.3Z"/><path class="f" d="M-31.6,432.2c-1.7,6.5-14.3,18.4-16.5,14.2-3.2-6.5-.5-28.2,9.7-26.1C-34.2,421.1-30,425.6-31.6,432.2Z"/><path class="g" d="M-33.7,432c-1.4,5.7-12.6,16.3-14.5,12.5-2.9-5.7-.5-24.8,8.5-23A8.291,8.291,0,0,1-33.7,432Z"/><path class="h" d="M-35.9,430.2c-1.1,4.6-10,13-11.5,10-2.3-4.6-.4-19.8,6.8-18.3C-37.8,422.4-34.8,425.6-35.9,430.2Z"/><path class="v" d="M-26.1,476.1l7.4,13.7c.1.3.1.7-.3.8l-6.8,2.4c-.3.1-.8,0-.9-.3L-34.1,479c-.1-.3-.1-.7.3-.8l6.9-2.4C-26.7,475.6-26.3,475.8-26.1,476.1Z"/><path class="l" d="M-20.1,483.8a23.506,23.506,0,0,0-13.7,6.8c-1-1.3-1.9-2.7-2.9-4.2,3.1-3.8,10.2-7.1,14.9-7.1C-21.3,480.7-20.7,482.3-20.1,483.8Z"/><path class="l" d="M-25.3,474.7l6.6,13.8c.1.3.1.7-.3.8l-6.9,2.4c-.3.1-.8,0-.9-.3l-6.6-13.8c-.1-.3-.1-.7.3-.8l6.9-2.4C-25.8,474.3-25.4,474.4-25.3,474.7Z"/><path class="w" d="M-25.1,474.2l6.6,13.8c.1.3.1.7-.3.8l-6.9,2.4c-.3.1-.8,0-.9-.3l-6.6-13.8c-.1-.3-.1-.7.3-.8l6.9-2.4A.806.806,0,0,1-25.1,474.2Z"/><path class="m" d="M-25.3,475l6.1,12.6c.2.2,0,.5-.3.7l-6,2.1a.67.67,0,0,1-.8-.3l-6.1-12.6c-.2-.2,0-.5.3-.7l6-2.1A.912.912,0,0,1-25.3,475Z"/><path class="k" d="M-37.3,471c1.9,3.5,1.3,14.1-1.5,13.1-4.2-1.5-12-12.3-6.5-15.6A6.076,6.076,0,0,1-37.3,471Z"/><path class="g" d="M-38.9,472.1c1.6,2.7,1.4,10.1-.2,12.1-3.8-1.5-10.2-10.3-7.5-14.4h0A5.351,5.351,0,0,1-38.9,472.1Z"/><path class="h" d="M-46.3,470.1c1.9-1,6.2-.3,7,3.1,1.9,8.2-2.3,8.3-4.7,5.1C-46.2,475.7-47.4,472.3-46.3,470.1Z"/><path class="l" d="M-14.5,495.5c.4,2.8-5.9,6-11.4,6.7,0,0-1.2-1.2-2.8-3.2a49.657,49.657,0,0,0,12.6-6.4A28.811,28.811,0,0,1-14.5,495.5Z"/></g></svg>