<svg xmlns="http://www.w3.org/2000/svg" width="80" height="80" viewBox="0 0 80 80"><defs><style>.a{fill:#ef4a23;}</style></defs><path class="a" d="M59.547,47.2l-2.992,1.733A10.667,10.667,0,0,0,54,47.449V44H46v3.449a10.667,10.667,0,0,0-2.555,1.48l-.112-.064V41.333c0-3.664-7.6-5.333-14.667-5.333S14,37.669,14,41.333v24c0,3.664,7.6,5.333,14.667,5.333,6.727,0,13.927-1.517,14.6-4.827l.179-.1A10.667,10.667,0,0,0,46,67.217v3.449h8V67.217a10.667,10.667,0,0,0,2.555-1.48l2.992,1.733,4-6.933-2.988-1.725a10.14,10.14,0,0,0,0-2.952l2.988-1.727Zm-19.093,0-1.975,3.42A30.825,30.825,0,0,1,28.667,52c-7.8,0-11.8-1.947-12-2.667V44.577c.019.009.041.016.06.025q.481.237,1.031.447c.1.037.2.071.305.108.283.1.573.2.876.289.144.043.289.083.437.123q.433.12.889.225c.145.035.289.069.437.1q.571.123,1.165.224l.224.041q.712.116,1.453.205l.427.045c.361.04.724.076,1.092.105.172.015.344.028.517.04.359.024.719.045,1.08.061l.473.021c.512.017,1.023.028,1.532.028s1.02-.011,1.532-.028l.473-.021c.361-.016.721-.037,1.08-.061.173-.012.345-.025.517-.04.368-.029.731-.065,1.092-.105l.427-.045q.74-.091,1.453-.205l.224-.041q.6-.1,1.165-.224c.148-.031.292-.065.437-.1q.456-.105.889-.225c.148-.04.293-.08.437-.123.3-.091.593-.188.876-.289.1-.037.208-.071.305-.108q.548-.208,1.031-.447c.019-.009.041-.016.06-.025v2.748ZM28.667,38.667c.485,0,.956.008,1.413.021.161,0,.311.016.469.023.287.012.576.023.851.04.225.015.436.035.653.052.193.016.4.029.58.047.267.025.509.056.759.085.127.016.267.028.383.044.328.043.639.091.943.133l.107.015c3.7.615,5.645,1.677,5.836,2.2a.457.457,0,0,1-.035.067.577.577,0,0,1-.051.083c-.02.024-.049.049-.073.075a1.325,1.325,0,0,1-.105.1c-.043.036-.068.051-.1.076s-.1.077-.164.119c-.039.025-.088.052-.133.079-.071.043-.133.085-.221.133-.049.027-.109.053-.161.08-.091.047-.179.092-.281.133l-.188.08c-.111.047-.219.095-.341.143-.068.027-.147.053-.219.08-.133.048-.257.1-.4.143-.083.028-.176.055-.267.083-.145.045-.287.092-.443.133-.1.029-.211.056-.315.084-.157.043-.312.085-.48.127-.119.029-.249.056-.373.084-.167.039-.329.077-.505.113-.143.029-.3.055-.447.083-.173.032-.343.067-.524.1s-.349.052-.524.079-.347.055-.533.079-.4.047-.605.069c-.181.02-.356.043-.543.061-.227.021-.468.037-.7.056-.177.013-.347.031-.533.043-.3.019-.609.031-.921.043-.133,0-.267.015-.4.02-.457.013-.933.021-1.413.021-.975,0-1.891-.031-2.747-.085-5.973-.381-9.055-1.94-9.249-2.575C16.911,40.593,20.905,38.667,28.667,38.667Zm-12,13.9c2.836,1.431,7.523,2.1,12,2.1a39.242,39.242,0,0,0,7.912-.752l-.125.217,2.988,1.725a10.319,10.319,0,0,0-.108,1.476c0,.3.039.608.067.913A27.256,27.256,0,0,1,28.667,60c-7.8,0-11.8-1.947-12-2.667h0Zm0,12.764V60.577c2.839,1.423,7.528,2.089,12,2.089a37.908,37.908,0,0,0,8.5-.895l2.5,4.34C38.031,66.96,34.369,68,28.667,68,20.865,68,16.867,66.053,16.667,65.333Zm41.108-9.852a7.724,7.724,0,0,1,0,3.7l-.228.965L59.9,61.512l-1.333,2.309L56.212,62.46l-.723.68A8.019,8.019,0,0,1,52.289,65l-.956.283V68H48.667V65.28L47.713,65a8.018,8.018,0,0,1-3.2-1.857l-.723-.68-2.359,1.361L40.1,61.512l2.357-1.361-.228-.965a7.724,7.724,0,0,1,0-3.7l.228-.965L40.1,53.155l1.333-2.309,2.359,1.361.723-.68a8.019,8.019,0,0,1,3.2-1.857l.953-.283v-2.72h2.667v2.72l.953.283a8.019,8.019,0,0,1,3.2,1.857l.723.68,2.359-1.361L59.9,53.155l-2.355,1.361Z" transform="translate(2 9.333)"/><path class="a" d="M42.333,48a5.333,5.333,0,1,0,5.333,5.333A5.333,5.333,0,0,0,42.333,48Zm0,8A2.667,2.667,0,1,1,45,53.333,2.667,2.667,0,0,1,42.333,56Z" transform="translate(9.667 13.333)"/><path class="a" d="M42,2H26V28.667H42ZM39.333,4.667v16H28.667v-16ZM34,26H28.667V23.333H39.333V26Z" transform="translate(6 -2)"/><path class="a" d="M33.667,19.333a1.4,1.4,0,0,0-.387-.947,1.357,1.357,0,0,0-1.213-.36.848.848,0,0,0-.24.08,1.043,1.043,0,0,0-.241.12,2.266,2.266,0,0,0-.2.16,1.393,1.393,0,0,0-.387.947,1.333,1.333,0,1,0,2.667,0Z" transform="translate(7.667 3.333)"/><path class="a" d="M13.667,24H11v8H37.667v5.333h2.667V32H67V24H64.333v5.333h-24V24H37.667v5.333h-24Z" transform="translate(1 5.333)"/><path class="a" d="M10,26H7.333v2.667h16V26H20.667V23.333h8V2H2V23.333h8Zm8,0H12.667V23.333H18ZM4.667,4.667H26V15.333H4.667Zm0,16V18H26v2.667Z" transform="translate(-2 -2)"/><path class="a" d="M42,28.667H68.667V2H42ZM66,26H44.667V12.667H66ZM44.667,4.667H66V10H44.667Z" transform="translate(11.333 -2)"/><path class="a" d="M47.067,5.226a.757.757,0,0,0-.227-.12.812.812,0,0,0-.255-.08,1.333,1.333,0,0,0-1.2.36,1.376,1.376,0,0,0-.28.44,1.32,1.32,0,0,0,.28,1.453,1.54,1.54,0,0,0,.44.28,1.256,1.256,0,0,0,1.013,0,1.559,1.559,0,0,0,.44-.28,1.325,1.325,0,0,0,.388-.947,1.4,1.4,0,0,0-.387-.947,1.334,1.334,0,0,0-.213-.16Z" transform="translate(12.333 -1)"/><path class="a" d="M50.28,5.383a1.4,1.4,0,0,0-1.893,0,1.376,1.376,0,0,0-.28.44A1.333,1.333,0,0,0,48,6.329a1.117,1.117,0,0,0,.107.507,1.559,1.559,0,0,0,.28.44,1.32,1.32,0,0,0,1.453.28,1.559,1.559,0,0,0,.44-.28,1.559,1.559,0,0,0,.28-.44,1.256,1.256,0,0,0,0-1.013,1.54,1.54,0,0,0-.28-.44Z" transform="translate(13.333 -0.996)"/><path class="a" d="M53.28,5.387a1.559,1.559,0,0,0-.44-.28,1.265,1.265,0,0,0-.773-.08.848.848,0,0,0-.24.08,1.043,1.043,0,0,0-.241.12,2.266,2.266,0,0,0-.2.16,1.244,1.244,0,0,0-.28.44,1.257,1.257,0,0,0,0,1.013,1.559,1.559,0,0,0,.28.44,1.54,1.54,0,0,0,.44.28,1.333,1.333,0,0,0,.507.107,1.377,1.377,0,0,0,.947-.387,1.559,1.559,0,0,0,.28-.44,1.256,1.256,0,0,0,0-1.013,1.244,1.244,0,0,0-.28-.44Z" transform="translate(14.333 -1)"/></svg>