<svg xmlns="http://www.w3.org/2000/svg" xmlns:xlink="http://www.w3.org/1999/xlink" width="427.481" height="316.164" viewBox="0 0 427.481 316.164"><defs><style>.a{fill:url(#a);}.b{fill:url(#b);}.c{clip-path:url(#c);}.by,.d,.e,.f,.g,.h{opacity:0.5;}.d{fill:url(#d);}.e{fill:url(#g);}.f{fill:url(#h);}.g{fill:url(#i);}.h{fill:url(#j);}.i{fill:url(#k);}.j{clip-path:url(#l);}.k{fill:#ffa300;}.l{fill:#ed8526;}.m{fill:#fffdf1;}.n{fill:#9e4000;}.o{fill:#ff7f00;}.p{fill:url(#m);}.q{fill:#db4e00;}.r{fill:#7a4800;}.s{fill:url(#n);}.t{fill:url(#o);}.u{fill:url(#p);}.v{fill:#f77e06;}.w{fill:#774900;}.x{fill:url(#q);}.y{fill:#fc910f;}.z{fill:#ff606c;}.aa{fill:#010078;}.ab{fill:url(#r);}.ac{fill:url(#s);}.ad{fill:url(#t);}.ae{fill:url(#u);}.af{fill:url(#v);}.ag{fill:url(#w);}.ah{fill:url(#x);}.ai{fill:url(#y);}.aj{fill:none;stroke:red;stroke-miterlimit:10;}.ak{fill:url(#z);}.al{fill:url(#aa);}.am{fill:url(#ab);}.an{fill:url(#ac);}.ao{fill:url(#ad);}.ap{fill:#beb1fc;}.aq{fill:url(#ae);}.ar{fill:url(#af);}.as{fill:url(#ag);}.at{fill:#d0c3fc;}.au{fill:url(#ah);}.av{fill:url(#ai);}.aw{fill:url(#aj);}.ax{fill:#e7e3fc;}.ay{fill:url(#ak);}.az{fill:url(#al);}.ba{fill:#fff;}.bb{fill:url(#am);}.bc{fill:url(#an);}.bd{fill:url(#ao);}.be{fill:#8680bc;}.bf{fill:url(#ap);}.bg{fill:url(#aq);}.bh{fill:url(#ar);}.bi{fill:url(#as);}.bj{fill:url(#at);}.bk{fill:url(#au);}.bl{fill:url(#av);}.bm{fill:url(#aw);}.bn{fill:url(#ax);}.bo{fill:url(#ay);}.bp{fill:url(#az);}.bq{fill:url(#ba);}.br{fill:url(#bb);}.bs{fill:url(#bc);}.bt{fill:url(#bd);}.bu{fill:url(#be);}.bv{fill:url(#bf);}.bw{fill:url(#bg);}.bx{fill:url(#bh);}.by{fill:#02007c;}.bz{fill:#ef4a23;}.ca{fill:red;}.cb{fill:#ead0ad;}.cc{fill:#d69f6e;}.cd{fill:#eabc96;}.ce{fill:url(#bi);}.cf{fill:#fec928;}.cg{fill:#fec007;}.ch{fill:url(#bk);}.ci{fill:url(#bl);}.cj{fill:url(#bm);}.ck{fill:url(#bn);}.cl{fill:url(#bo);}.cm{fill:url(#bp);}.cn{fill:url(#bq);}.co{fill:url(#br);}.cp{fill:url(#bs);}.cq{fill:url(#bt);}.cr{fill:url(#bu);}.cs{fill:url(#bv);}.ct{fill:url(#bw);}.cu{fill:url(#bx);}.cv{fill:url(#by);}.cw{fill:url(#bz);}.cx{fill:url(#ca);}.cy{fill:url(#cb);}.cz{fill:url(#cc);}.da{fill:url(#cd);}.db{fill:#7c7c7c;}.dc{fill:#3a3a3a;}.dd{fill:#5b5b5b;}.de{fill:#afafb2;}.df{fill:#c6c6c6;}.dg{fill:url(#ce);}.dh{fill:url(#cf);}</style><linearGradient id="a" y1="0.471" x2="1" y2="0.471" gradientUnits="objectBoundingBox"><stop offset="0" stop-color="#ef4a23"/><stop offset="0.666" stop-color="#ae4822"/><stop offset="1" stop-color="#924722"/></linearGradient><linearGradient id="b" x1="0" y1="0.484" x2="1" y2="0.484" xlink:href="#a"/><clipPath id="c"><path d="M668.609,413.005a10.747,10.747,0,0,1-1.094,4.738,10.5,10.5,0,0,1-4.374,4.738L470.833,533.435a32.941,32.941,0,0,1-32.8,0L257.967,429.48a10.5,10.5,0,0,1-4.374-4.738A10.747,10.747,0,0,1,252.5,420h0a10.7,10.7,0,0,1,5.467-9.4h0L450.276,299.574h0a32.669,32.669,0,0,1,32.659,0L663.142,403.528h0A10.814,10.814,0,0,1,668.609,413.005Z" transform="translate(-252.5 -295.2)"/></clipPath><linearGradient id="d" x1="-0.001" y1="0.37" x2="0.999" y2="0.37" gradientUnits="objectBoundingBox"><stop offset="0" stop-color="#02027e"/><stop offset="1" stop-color="#00a6f8" stop-opacity="0"/></linearGradient><linearGradient id="g" x1="13.114" y1="0.37" x2="14.114" y2="0.37" xlink:href="#d"/><linearGradient id="h" x1="16.743" y1="0.37" x2="17.743" y2="0.37" xlink:href="#d"/><linearGradient id="i" x1="0" y1="0.36" x2="1" y2="0.36" xlink:href="#d"/><linearGradient id="j" x1="1" y1="0.395" x2="0" y2="0.395" xlink:href="#d"/><linearGradient id="k" x1="0.372" y1="0.104" x2="0.628" y2="0.864" gradientUnits="objectBoundingBox"><stop offset="0" stop-color="#fff" stop-opacity="0"/><stop offset="1" stop-color="#fff" stop-opacity="0.502"/></linearGradient><clipPath id="l"><path d="M668.434,413.014a11.1,11.1,0,0,1-1.021,4.593,10.28,10.28,0,0,1-4.228,4.593L470.877,533.152a32.127,32.127,0,0,1-32.367,0L258.449,429.2a10.28,10.28,0,0,1-4.228-4.593,10.853,10.853,0,0,1-1.021-4.593,10.359,10.359,0,0,1,5.322-9.112L450.684,299.947l.073-.073a32.127,32.127,0,0,1,32.367,0L663.185,403.828A10.47,10.47,0,0,1,668.434,413.014Z" transform="translate(-253.2 -295.5)"/></clipPath><linearGradient id="m" x1="-0.001" y1="0.401" x2="0.999" y2="0.401" xlink:href="#a"/><linearGradient id="n" x1="-0.001" y1="0.326" x2="0.999" y2="0.326" xlink:href="#a"/><linearGradient id="o" x1="0.499" y1="0.955" x2="0.499" y2="-0.045" gradientUnits="objectBoundingBox"><stop offset="0" stop-color="#ffbc60" stop-opacity="0.502"/><stop offset="1" stop-color="#ffc24c" stop-opacity="0.051"/></linearGradient><linearGradient id="p" x1="0.499" y1="0.954" x2="0.499" y2="-0.046" xlink:href="#o"/><radialGradient id="q" cx="0.5" cy="0.499" r="0.708" gradientTransform="translate(0.211) scale(0.577 1)" gradientUnits="objectBoundingBox"><stop offset="0" stop-color="#f9cc12"/><stop offset="0.498" stop-color="#fbad10"/><stop offset="1" stop-color="#fc910f"/></radialGradient><linearGradient id="r" x1="0.499" y1="0.947" x2="0.499" y2="-0.053" xlink:href="#o"/><linearGradient id="s" x1="0.499" y1="0.946" x2="0.499" y2="-0.054" xlink:href="#o"/><linearGradient id="t" x1="-0.002" y1="0.395" x2="0.998" y2="0.395" xlink:href="#a"/><linearGradient id="u" x1="-0.002" y1="0.34" x2="0.998" y2="0.34" xlink:href="#a"/><linearGradient id="v" x1="-0.001" y1="0.34" x2="0.999" y2="0.34" gradientUnits="objectBoundingBox"><stop offset="0" stop-color="#fffdf1"/><stop offset="0.475" stop-color="#e9ad8a"/><stop offset="0.834" stop-color="#d97643"/><stop offset="1" stop-color="#d36027"/></linearGradient><linearGradient id="w" x1="-0.001" y1="0.384" x2="0.999" y2="0.384" xlink:href="#a"/><linearGradient id="x" x1="-0.001" y1="0.285" x2="0.999" y2="0.285" xlink:href="#a"/><radialGradient id="y" cx="0.499" cy="0.501" r="0.731" gradientTransform="translate(0.223) scale(0.554 1)" xlink:href="#q"/><linearGradient id="z" x1="0.499" y1="0.964" x2="0.499" y2="-0.036" xlink:href="#o"/><linearGradient id="aa" x1="0.498" y1="0.963" x2="0.498" y2="-0.037" xlink:href="#o"/><linearGradient id="ab" x1="0.499" y1="0.964" x2="0.499" y2="-0.036" xlink:href="#o"/><linearGradient id="ac" x1="0.498" y1="0.963" x2="0.498" y2="-0.037" xlink:href="#o"/><linearGradient id="ad" x1="0.247" y1="0.593" x2="0.524" y2="0.101" gradientUnits="objectBoundingBox"><stop offset="0" stop-color="#f9a487"/><stop offset="1" stop-color="#ffcebb"/></linearGradient><linearGradient id="ae" x1="-0.008" y1="0.351" x2="0.989" y2="0.351" gradientUnits="objectBoundingBox"><stop offset="0" stop-color="#0a1b33"/><stop offset="1" stop-color="#264572"/></linearGradient><linearGradient id="af" x1="-0.001" y1="0.37" x2="0.996" y2="0.37" xlink:href="#ae"/><linearGradient id="ag" x1="-0.009" y1="0.173" x2="0.991" y2="0.173" xlink:href="#ae"/><linearGradient id="ah" x1="0.965" y1="0.529" x2="0.271" y2="-0.028" xlink:href="#ad"/><linearGradient id="ai" x1="1.066" y1="0.334" x2="0.053" y2="-0.318" xlink:href="#ad"/><linearGradient id="aj" x1="1.48" y1="0.662" x2="0.445" y2="-0.688" xlink:href="#ad"/><linearGradient id="ak" x1="-0.014" y1="0.247" x2="0.993" y2="0.247" xlink:href="#ae"/><linearGradient id="al" x1="0.622" y1="-0.127" x2="0.309" y2="-0.826" xlink:href="#ad"/><linearGradient id="am" x1="0.864" y1="-0.087" x2="0.059" y2="-0.733" xlink:href="#ad"/><linearGradient id="an" x1="0.718" y1="0.205" x2="-0.087" y2="-0.005" xlink:href="#ad"/><linearGradient id="ao" x1="0.628" y1="0.457" x2="0.09" y2="0.308" xlink:href="#ae"/><linearGradient id="ap" x1="0" y1="0.377" x2="1.004" y2="0.377" xlink:href="#ae"/><linearGradient id="aq" x1="-0.009" y1="0.362" x2="0.991" y2="0.362" xlink:href="#ae"/><linearGradient id="ar" x1="0.315" y1="0.562" x2="0.493" y2="0.017" gradientUnits="objectBoundingBox"><stop offset="0" stop-color="#994025"/><stop offset="1" stop-color="#c66a4e"/></linearGradient><linearGradient id="as" x1="0.377" y1="-0.087" x2="0.617" y2="-0.449" xlink:href="#ar"/><linearGradient id="at" x1="0.442" y1="-1.147" x2="0.932" y2="-1.335" xlink:href="#ar"/><linearGradient id="au" x1="0.24" y1="-0.826" x2="0.794" y2="-1.002" xlink:href="#ar"/><linearGradient id="av" x1="0.088" y1="0.162" x2="0.771" y2="0.09" xlink:href="#ar"/><linearGradient id="aw" x1="0.237" y1="0.229" x2="0.765" y2="-0.121" xlink:href="#ae"/><linearGradient id="ax" x1="0.912" y1="-0.757" x2="0.394" y2="-0.122" gradientUnits="objectBoundingBox"><stop offset="0" stop-color="#264572"/><stop offset="1" stop-color="#3a68a0"/></linearGradient><linearGradient id="ay" x1="0.349" y1="-0.735" x2="0.88" y2="-0.18" xlink:href="#ax"/><linearGradient id="az" x1="0.136" y1="-1.209" x2="0.521" y2="-0.885" xlink:href="#ar"/><linearGradient id="ba" x1="0.101" y1="-0.413" x2="0.645" y2="0.072" xlink:href="#ar"/><linearGradient id="bb" x1="0.878" y1="0.827" x2="0.534" y2="0.026" xlink:href="#ae"/><linearGradient id="bc" x1="0.924" y1="-0.29" x2="0.141" y2="-0.353" xlink:href="#ad"/><linearGradient id="bd" x1="0.94" y1="0.168" x2="0.047" y2="-0.199" xlink:href="#ad"/><linearGradient id="be" x1="0.496" y1="0.025" x2="0.425" y2="0.656" xlink:href="#ae"/><linearGradient id="bf" x1="0.494" y1="0.053" x2="0.398" y2="0.715" xlink:href="#ae"/><linearGradient id="bg" x1="0.697" y1="0.355" x2="0.085" y2="-0.153" gradientUnits="objectBoundingBox"><stop offset="0" stop-color="#992d17"/><stop offset="0.995" stop-color="#db7709"/></linearGradient><linearGradient id="bh" x1="0.472" y1="-0.67" x2="0.524" y2="-0.017" xlink:href="#ad"/><linearGradient id="bi" x1="0.497" y1="0.768" x2="0.497" y2="0.145" gradientUnits="objectBoundingBox"><stop offset="0" stop-color="#fbb03b"/><stop offset="0.406" stop-color="#fd6321"/><stop offset="0.812" stop-color="#fe1c09"/><stop offset="1" stop-color="red"/></linearGradient><linearGradient id="bk" x1="-0.001" y1="0.415" x2="0.999" y2="0.415" xlink:href="#bi"/><linearGradient id="bl" y1="0.397" x2="1" y2="0.397" gradientUnits="objectBoundingBox"><stop offset="0" stop-color="#009eff"/><stop offset="0.349" stop-color="#0162ce"/><stop offset="0.793" stop-color="#021c93"/><stop offset="1" stop-color="#02007c"/></linearGradient><linearGradient id="bm" x1="0.999" y1="0.435" x2="-0.001" y2="0.435" gradientUnits="objectBoundingBox"><stop offset="0" stop-color="#beb1fc"/><stop offset="0.557" stop-color="#dfd9f8"/><stop offset="1" stop-color="#f5f5f5"/></linearGradient><linearGradient id="bn" x1="-0.659" y1="0.566" x2="1.484" y2="0.165" xlink:href="#bi"/><linearGradient id="bo" x1="-0.007" y1="0.4" x2="0.996" y2="0.4" xlink:href="#bi"/><linearGradient id="bp" x1="-0.487" y1="-0.141" x2="0.473" y2="0.499" xlink:href="#bi"/><linearGradient id="bq" x1="0.722" y1="0.448" x2="1.592" y2="0.348" xlink:href="#bi"/><linearGradient id="br" x1="0.029" y1="0.053" x2="1.267" y2="-0.133" xlink:href="#ad"/><linearGradient id="bs" x1="0.296" y1="0.217" x2="0.902" y2="0.194" xlink:href="#ad"/><linearGradient id="bt" x1="-0.004" y1="0.283" x2="0.996" y2="0.283" xlink:href="#ae"/><linearGradient id="bu" x1="0" y1="0.387" x2="0.999" y2="0.387" xlink:href="#ae"/><linearGradient id="bv" x1="0.004" y1="0.391" x2="0.998" y2="0.391" xlink:href="#ae"/><linearGradient id="bw" x1="0.004" y1="-1.303" x2="1" y2="-1.303" xlink:href="#ad"/><linearGradient id="bx" x1="0.001" y1="-0.375" x2="0.999" y2="-0.375" xlink:href="#ad"/><linearGradient id="by" x1="0.944" y1="0.033" x2="0.053" y2="-0.06" xlink:href="#ad"/><linearGradient id="bz" x1="0.613" y1="0.261" x2="0.18" y2="0.103" xlink:href="#ad"/><linearGradient id="ca" x1="-0.003" y1="0.387" x2="0.996" y2="0.387" xlink:href="#ae"/><linearGradient id="cb" x1="-0.006" y1="0.391" x2="0.992" y2="0.391" xlink:href="#ae"/><linearGradient id="cc" x1="0.738" y1="0.422" x2="-0.023" y2="-0.526" xlink:href="#bg"/><linearGradient id="cd" x1="-0.018" y1="-0.113" x2="0.976" y2="-0.113" xlink:href="#ad"/><linearGradient id="ce" x1="0.882" y1="-0.367" x2="0.068" y2="-0.919" xlink:href="#ad"/><linearGradient id="cf" x1="-0.025" y1="-0.11" x2="0.977" y2="-0.11" xlink:href="#ad"/></defs><g transform="translate(-242.4 -207.3)"><path class="a" d="M668.609,456.8v9.477a10.9,10.9,0,0,1-5.467,9.477L470.833,586.706a32.941,32.941,0,0,1-32.8,0L257.967,482.752a10.814,10.814,0,0,1-5.467-9.477V463.8a10.981,10.981,0,0,0,1.093,4.738,10.5,10.5,0,0,0,4.374,4.738L438.029,577.23a32.942,32.942,0,0,0,32.8,0L663.142,466.2a11.039,11.039,0,0,0,5.467-9.4Z" transform="translate(-2.737 -67.616)"/><path class="b" d="M668.609,413.005a10.747,10.747,0,0,1-1.094,4.738,10.5,10.5,0,0,1-4.374,4.738L470.833,533.435a32.941,32.941,0,0,1-32.8,0L257.967,429.48a10.5,10.5,0,0,1-4.374-4.738A10.747,10.747,0,0,1,252.5,420h0a10.7,10.7,0,0,1,5.467-9.4h0L450.276,299.574h0a32.669,32.669,0,0,1,32.659,0L663.142,403.528h0A10.814,10.814,0,0,1,668.609,413.005Z" transform="translate(-2.737 -23.822)"/><g transform="translate(249.763 271.378)"><g transform="translate(0 0)"><g class="c"><g transform="translate(40.523 87.169)"><path class="d" d="M752.366,442.932c-5.467,3.135-14.434,3.135-19.9,0l-24.713-14.288c-5.54-3.208-5.54-8.311-.073-11.518,5.467-3.135,14.434-3.135,19.9,0l24.713,14.288C757.834,434.622,757.834,439.725,752.366,442.932Z" transform="translate(-415.271 -414.775)"/><path class="d" d="M717.366,535.332c-5.467,3.135-14.434,3.135-19.9,0l-24.713-14.288c-5.54-3.208-5.54-8.311-.073-11.518,5.467-3.135,14.434-3.135,19.9,0l24.713,14.288C722.834,527.022,722.834,532.125,717.366,535.332Z" transform="translate(-405.786 -439.816)"/><path class="d" d="M612.466,583.932c-5.467,3.135-14.434,3.135-19.9,0l-24.713-14.288c-5.54-3.208-5.54-8.311-.073-11.518,5.467-3.135,14.434-3.135,19.9,0l24.713,14.288C617.934,575.622,618.007,580.725,612.466,583.932Z" transform="translate(-377.357 -452.987)"/><path class="e" d="M443.779,583.932c5.467,3.135,14.434,3.135,19.9,0l24.713-14.288c5.54-3.208,5.54-8.311.073-11.518-5.467-3.135-14.434-3.135-19.9,0l-24.713,14.288C438.311,575.622,438.311,580.725,443.779,583.932Z" transform="translate(-343.752 -452.987)"/><path class="f" d="M312.179,540.032c5.467,3.135,14.434,3.135,19.9,0l24.713-14.288c5.54-3.208,5.54-8.311.073-11.518-5.467-3.135-14.434-3.135-19.9,0l-24.713,14.288C306.712,531.722,306.712,536.9,312.179,540.032Z" transform="translate(-308.087 -441.09)"/></g><path class="g" d="M723.341,385.895l-3.062,1.677-24.494,13.195-46.218.146L625,386.77l27.337-14.07h46.437Z" transform="translate(-353.45 -316.203)"/><path class="h" d="M432.57,382.369v.146a2.673,2.673,0,0,1-1.385,2.26h0l-4.082,2.333-12.247,7.071-12.32,7.071a8.164,8.164,0,0,1-4.082,1.094H363.462a8.164,8.164,0,0,1-4.082-1.094h0l-8.165-4.738-12.247-7.071-4.082-2.333a2.788,2.788,0,0,1-1.385-2.333,2.634,2.634,0,0,1,1.385-2.333l28.649-16.548a8.164,8.164,0,0,1,4.082-1.094h34.992a8.164,8.164,0,0,1,4.082,1.094l24.567,14.215h.073A2.512,2.512,0,0,1,432.57,382.369Z" transform="translate(-274.452 -314.062)"/></g></g></g><path class="i" d="M454.423,538.111a32.93,32.93,0,0,1-16.548-4.447L257.813,429.709a11.241,11.241,0,0,1-4.52-4.884,11.375,11.375,0,0,1-1.093-4.884,11.2,11.2,0,0,1,5.613-9.768l192.381-111.1h0A33.551,33.551,0,0,1,466.67,294.7a32.93,32.93,0,0,1,16.548,4.447L663.206,403.1a11.3,11.3,0,0,1,4.593,14.653,11.241,11.241,0,0,1-4.52,4.884L470.971,533.664A33.9,33.9,0,0,1,454.423,538.111ZM450.413,299.8,258.251,410.829a10.359,10.359,0,0,0-5.322,9.112,10.853,10.853,0,0,0,1.021,4.593,10.28,10.28,0,0,0,4.228,4.593L438.239,533.081a32.127,32.127,0,0,0,32.367,0L662.914,422.055a10.28,10.28,0,0,0,4.228-4.593,10.852,10.852,0,0,0,1.021-4.593,10.44,10.44,0,0,0-5.249-9.112L482.853,299.8a32.269,32.269,0,0,0-16.184-4.374,32.739,32.739,0,0,0-16.257,4.374Z" transform="translate(-2.656 -23.686)"/><g transform="translate(250.273 271.597)"><g class="j"><g transform="translate(-44.614 -30.326)"><path class="k" d="M449.991,551.766h0L192,402.833l.146-.073L449.918,253.9h.073L707.908,402.833l-.146.073ZM192.437,402.833,449.991,551.548,707.544,402.833,449.991,254.119Z" transform="translate(-192 -253.9)"/></g><g transform="translate(-34.494 112.81)"><rect class="k" width="297.648" height="0.219" transform="matrix(0.866, 0.5, -0.5, 0.866, 0.109, 0)"/></g><g transform="translate(-24.657 107.101)"><rect class="k" width="297.648" height="0.219" transform="matrix(0.866, 0.5, -0.5, 0.866, 0.109, 0)"/></g><g transform="translate(-14.666 101.366)"><rect class="k" width="297.648" height="0.219" transform="matrix(0.866, 0.5, -0.5, 0.866, 0.109, 0)"/></g><g transform="translate(-4.829 95.658)"><rect class="k" width="297.648" height="0.219" transform="matrix(0.866, 0.5, -0.5, 0.866, 0.109, 0)"/></g><g transform="translate(5.161 89.924)"><rect class="k" width="297.648" height="0.219" transform="matrix(0.866, 0.5, -0.5, 0.866, 0.109, 0)"/></g><g transform="translate(14.998 84.215)"><rect class="k" width="297.648" height="0.219" transform="matrix(0.866, 0.5, -0.5, 0.866, 0.109, 0)"/></g><g transform="translate(24.988 78.48)"><rect class="k" width="297.648" height="0.219" transform="matrix(0.866, 0.5, -0.5, 0.866, 0.109, 0)"/></g><g transform="translate(34.915 72.708)"><rect class="k" width="297.648" height="0.219" transform="matrix(0.866, 0.5, -0.5, 0.866, 0.109, 0)"/></g><g transform="translate(44.816 67.037)"><rect class="k" width="297.648" height="0.219" transform="matrix(0.866, 0.5, -0.5, 0.866, 0.109, 0)"/></g><g transform="translate(54.743 61.265)"><rect class="k" width="297.648" height="0.219" transform="matrix(0.866, 0.5, -0.5, 0.866, 0.109, 0)"/></g><g transform="translate(64.58 55.557)"><rect class="k" width="297.648" height="0.219" transform="matrix(0.866, 0.5, -0.5, 0.866, 0.109, 0)"/></g><g transform="translate(74.571 49.822)"><rect class="k" width="297.648" height="0.219" transform="matrix(0.866, 0.5, -0.5, 0.866, 0.109, 0)"/></g><g transform="translate(84.408 44.113)"><rect class="k" width="297.648" height="0.219" transform="matrix(0.866, 0.5, -0.5, 0.866, 0.109, 0)"/></g><g transform="translate(94.398 38.378)"><rect class="k" width="297.648" height="0.219" transform="matrix(0.866, 0.5, -0.5, 0.866, 0.109, 0)"/></g><g transform="translate(104.235 32.67)"><rect class="k" width="297.648" height="0.219" transform="matrix(0.866, 0.5, -0.5, 0.866, 0.109, 0)"/></g><g transform="translate(114.226 26.934)"><rect class="k" width="297.648" height="0.219" transform="matrix(0.866, 0.5, -0.5, 0.866, 0.109, 0)"/></g><g transform="translate(124.063 21.226)"><rect class="k" width="297.648" height="0.219" transform="matrix(0.866, 0.5, -0.5, 0.866, 0.109, 0)"/></g><g transform="translate(133.99 15.402)"><rect class="k" width="297.648" height="0.219" transform="matrix(0.866, 0.5, -0.5, 0.866, 0.109, 0)"/></g><g transform="translate(143.891 9.729)"><rect class="k" width="297.648" height="0.219" transform="matrix(0.866, 0.5, -0.5, 0.866, 0.109, 0)"/></g><g transform="translate(153.818 3.958)"><rect class="k" width="297.648" height="0.219" transform="matrix(0.866, 0.5, -0.5, 0.866, 0.109, 0)"/></g><g transform="translate(163.718 -1.714)"><rect class="k" width="297.648" height="0.219" transform="matrix(0.866, 0.5, -0.5, 0.866, 0.109, 0)"/></g><g transform="translate(173.645 -7.486)"><rect class="k" width="297.648" height="0.219" transform="matrix(0.866, 0.5, -0.5, 0.866, 0.109, 0)"/></g><g transform="translate(183.546 -13.158)"><rect class="k" width="297.648" height="0.219" transform="matrix(0.866, 0.5, -0.5, 0.866, 0.109, 0)"/></g><g transform="translate(193.473 -18.93)"><rect class="k" width="297.648" height="0.219" transform="matrix(0.866, 0.5, -0.5, 0.866, 0.109, 0)"/></g><g transform="translate(203.373 -24.601)"><rect class="k" width="297.648" height="0.219" transform="matrix(0.866, 0.5, -0.5, 0.866, 0.109, 0)"/></g><g transform="translate(203.415 112.695)"><rect class="k" width="0.219" height="297.648" transform="translate(257.674 0) rotate(59.966)"/></g><g transform="translate(193.398 107.017)"><rect class="k" width="0.219" height="297.648" transform="translate(257.674 0) rotate(59.966)"/></g><g transform="translate(183.581 101.247)"><rect class="k" width="0.219" height="297.648" transform="translate(257.674 0) rotate(59.966)"/></g><g transform="translate(173.628 95.533)"><rect class="k" width="0.219" height="297.648" transform="translate(257.674) rotate(59.966)"/></g><g transform="translate(163.748 89.799)"><rect class="k" width="0.219" height="297.648" transform="translate(257.674 0) rotate(59.966)"/></g><g transform="translate(153.795 84.085)"><rect class="k" width="0.219" height="297.648" transform="translate(257.674 0) rotate(59.966)"/></g><g transform="translate(143.915 78.351)"><rect class="k" width="0.219" height="297.648" transform="translate(257.674 0) rotate(59.966)"/></g><g transform="translate(133.962 72.637)"><rect class="k" width="0.219" height="297.648" transform="translate(257.674 0) rotate(59.966)"/></g><g transform="translate(124.082 66.903)"><rect class="k" width="0.219" height="297.648" transform="translate(257.674 0) rotate(59.966)"/></g><g transform="translate(114.129 61.189)"><rect class="k" width="0.219" height="297.648" transform="translate(257.674) rotate(59.966)"/></g><g transform="translate(104.311 55.419)"><rect class="k" width="0.219" height="297.648" transform="translate(257.674) rotate(59.966)"/></g><g transform="translate(94.296 49.741)"><rect class="k" width="0.219" height="297.648" transform="translate(257.674) rotate(59.966)"/></g><g transform="translate(84.478 43.971)"><rect class="k" width="0.219" height="297.648" transform="translate(257.674 0) rotate(59.966)"/></g><g transform="translate(74.463 38.293)"><rect class="k" width="0.219" height="297.648" transform="translate(257.674 0) rotate(59.966)"/></g><g transform="translate(64.546 32.569)"><rect class="k" width="0.219" height="297.648" transform="translate(257.674) rotate(59.966)"/></g><g transform="translate(54.63 26.845)"><rect class="k" width="0.219" height="297.648" transform="translate(257.674 0) rotate(59.966)"/></g><g transform="translate(44.786 21.174)"><rect class="k" width="0.219" height="297.648" transform="translate(257.674 0) rotate(59.966)"/></g><g transform="translate(34.969 15.404)"><rect class="k" width="0.219" height="297.648" transform="translate(257.674 0) rotate(59.966)"/></g><g transform="translate(24.953 9.727)"><rect class="k" width="0.219" height="297.648" transform="translate(257.674) rotate(59.966)"/></g><g transform="translate(15.036 4.002)"><rect class="k" width="0.219" height="297.648" transform="translate(257.674 0) rotate(59.966)"/></g><g transform="translate(5.119 -1.721)"><rect class="k" width="0.219" height="297.648" transform="translate(257.674 0) rotate(59.966)"/></g><g transform="translate(-4.797 -7.446)"><rect class="k" width="0.219" height="297.648" transform="translate(257.674 0) rotate(59.966)"/></g><g transform="translate(-14.714 -13.17)"><rect class="k" width="0.219" height="297.648" transform="translate(257.674) rotate(59.966)"/></g><g transform="translate(-24.63 -18.894)"><rect class="k" width="0.219" height="297.648" transform="translate(257.674 0) rotate(59.966)"/></g><g transform="translate(-34.547 -24.617)"><rect class="k" width="0.219" height="297.648" transform="translate(257.674) rotate(59.966)"/></g></g></g><g transform="translate(513.221 207.3)"><path class="l" d="M687.277,382.1v4.811L658.7,403.459v-4.811l24.421-14.142Z" transform="translate(-626.041 -254.672)"/><path class="m" d="M649.567,399.542v4.811L625,390.211V385.4l4.155,2.406Z" transform="translate(-616.908 -255.566)"/><path class="n" d="M687.277,379.5l-8.165-7L658.7,384.31v11.737Z" transform="translate(-626.041 -252.07)"/><path class="o" d="M625,382.771l8.311-7.071,16.256,9.477v11.737Z" transform="translate(-616.908 -252.938)"/><path class="p" d="M683.373,329.881l-4.155,2.333-32.659,18.881-28.576-16.475-4.082-2.333L650.641,311Z" transform="translate(-613.9 -235.403)"/><path class="q" d="M619.4,346l12.393,21.651,16.257,9.477V362.986Z" transform="translate(-615.391 -244.889)"/><path class="r" d="M691.359,343.4l-12.247,21.214L658.7,376.423V362.281Z" transform="translate(-626.041 -244.184)"/><path class="l" d="M695.514,336.9v4.738L658.7,362.852v-4.738l32.659-18.881Z" transform="translate(-626.041 -242.423)"/><path class="m" d="M646.559,359.008v4.738L613.9,344.938V340.2l4.082,2.333Z" transform="translate(-613.9 -243.317)"/><path class="s" d="M635.1,323.247,656.387,311,674.1,321.206l-21.287,12.539Z" transform="translate(-619.645 -235.403)"/><g transform="translate(0)"><path class="t" d="M636.5,295.144l14.215-8.165-.073-79.679L613.9,228.587Z" transform="translate(-613.9 -207.3)"/><path class="u" d="M674.943,293.1l-10.57-6.124L664.3,207.3l32.732,18.881Z" transform="translate(-627.559 -207.3)"/></g><path class="n" d="M680.687,325l3.572,8.31L659.4,347.672V337.539Z" transform="translate(-626.231 -239.198)"/><path class="o" d="M633.772,327.8l-3.572,8.311,21.287,12.32V338.3Z" transform="translate(-618.317 -239.956)"/><path class="v" d="M674.943,322.724l-1.822,1.021-8.821-5.1V316.6Z" transform="translate(-627.559 -236.921)"/><path class="w" d="M659.042,316.6v2.041l-12.393,7.144-1.75-1.021Z" transform="translate(-622.301 -236.921)"/><path class="x" d="M668.514,324.5l-12.393,7.144-8.821-5.1,12.393-7.144Z" transform="translate(-622.952 -237.68)"/><g transform="translate(8.748 7.071)"><g transform="translate(3.499 3.718)"><path class="y" d="M643.6,283.919l-.437-.219,9.4-19.173,12.174-16.986-12.393-24.348L631.137,253.52l-.437-.365L652.424,222.1l12.9,25.515-.073.146L653.08,264.819Z" transform="translate(-630.7 -222.1)"/><rect class="y" width="17.35" height="0.51" transform="translate(22.235 42.283) rotate(27.659)"/></g><g transform="translate(12.539 61.162)"><path class="z" d="M646.745,306.014v4.228l-3.645-2.114V303.9Z" transform="translate(-643.1 -301.713)"/><path class="y" d="M651.818,303.9v4.228l-3.718,2.114v-4.228Z" transform="translate(-644.455 -301.713)"/><path class="aa" d="M650.463,303.087l-3.718,2.114-3.645-2.114,3.645-2.187Z" transform="translate(-643.1 -300.9)"/></g><g transform="translate(21.943 41.99)"><path class="z" d="M659.718,279.687v4.228L656,281.8v-4.3Z" transform="translate(-656 -275.386)"/><path class="y" d="M664.745,277.5v4.3l-3.645,2.114v-4.228Z" transform="translate(-657.382 -275.386)"/><path class="aa" d="M663.363,276.714l-3.645,2.187L656,276.714l3.718-2.114Z" transform="translate(-656 -274.6)"/></g><g transform="translate(37.324 50.082)"><path class="z" d="M680.745,290.714v4.3l-3.645-2.187V288.6Z" transform="translate(-677.1 -286.486)"/><path class="y" d="M685.818,288.6v4.228l-3.718,2.187v-4.3Z" transform="translate(-678.455 -286.486)"/><path class="aa" d="M684.463,287.814l-3.718,2.114-3.645-2.114,3.645-2.114Z" transform="translate(-677.1 -285.7)"/></g><g transform="translate(0 30.691)"><path class="z" d="M629.618,264.187v4.228L625.9,266.3V262Z" transform="translate(-625.9 -259.886)"/><path class="y" d="M634.645,262v4.3L631,268.415v-4.228Z" transform="translate(-627.282 -259.886)"/><path class="aa" d="M633.263,261.214l-3.645,2.187-3.718-2.187,3.718-2.114Z" transform="translate(-625.9 -259.1)"/></g><g transform="translate(34.117 24.932)"><path class="z" d="M676.418,256.287v4.228L672.7,258.4v-4.3Z" transform="translate(-672.7 -251.986)"/><path class="y" d="M681.518,254.1v4.3l-3.718,2.114v-4.228Z" transform="translate(-674.082 -251.986)"/><path class="aa" d="M680.136,253.314l-3.718,2.187-3.718-2.187,3.718-2.114Z" transform="translate(-672.7 -251.2)"/></g><g transform="translate(21.505)"><path class="z" d="M659.045,222.014v4.3L655.4,224.2v-4.3Z" transform="translate(-655.4 -217.786)"/><path class="y" d="M664.118,219.9v4.3l-3.718,2.114v-4.3Z" transform="translate(-656.755 -217.786)"/><path class="aa" d="M662.763,219.114l-3.718,2.114-3.645-2.114L659.045,217Z" transform="translate(-655.4 -217)"/></g></g><path class="ab" d="M659.4,308.286v-53.8L695.7,233.2l-22.089,66.922Z" transform="translate(-626.231 -214.319)"/><path class="ac" d="M647.069,309.181l-10.57-6.124L613.9,236.5l33.169,18.881Z" transform="translate(-613.9 -215.213)"/></g><g transform="translate(344.022 208.393)"><path class="ad" d="M445.978,349.869v.146a2.673,2.673,0,0,1-1.385,2.26h0l-4.082,2.333-12.247,7.071-12.32,7.071a8.167,8.167,0,0,1-8.165,0h0l-8.165-4.738-12.247-7.071-4.082-2.333a2.788,2.788,0,0,1-1.385-2.333,2.634,2.634,0,0,1,1.385-2.333l28.649-16.548a8.167,8.167,0,0,1,8.165,0l24.567,14.142h.073A2.631,2.631,0,0,1,445.978,349.869Z" transform="translate(-381.827 -242.269)"/><path class="ae" d="M445.978,356.5v4.738a2.673,2.673,0,0,1-1.385,2.26l-12.247,7.071-16.4,9.477a8.164,8.164,0,0,1-4.082,1.094h0a8.164,8.164,0,0,1-4.082-1.094h0l-12.247-7.071L383.285,365.9h0a2.788,2.788,0,0,1-1.385-2.333v-4.738a2.556,2.556,0,0,0,1.385,2.333l4.082,2.333,12.247,7.071,8.165,4.738h0a8.164,8.164,0,0,0,4.082,1.094h0a8.164,8.164,0,0,0,4.082-1.094l12.32-7.071,12.247-7.071,4.082-2.333h0A3.078,3.078,0,0,0,445.978,356.5Z" transform="translate(-381.827 -248.828)"/><path class="af" d="M445.951,363v4.738a2.673,2.673,0,0,1-1.385,2.26l-8.165,4.738-20.485,11.81a8.164,8.164,0,0,1-4.082,1.093h0a8.164,8.164,0,0,1-4.082-1.093h0l-16.4-9.477h0l-8.165-4.738A2.788,2.788,0,0,1,381.8,370V365.26a2.556,2.556,0,0,0,1.385,2.333h0l12.247,7.071,12.247,7.071h0a8.164,8.164,0,0,0,4.082,1.093h0a8.163,8.163,0,0,0,4.082-1.093l16.4-9.477,12.247-7.071A2.552,2.552,0,0,0,445.951,363Z" transform="translate(-381.8 -250.589)"/><path class="ag" d="M445.951,369.5v14a2.745,2.745,0,0,1-1.385,2.406L415.917,402.45a8.164,8.164,0,0,1-4.082,1.093h0a8.164,8.164,0,0,1-4.082-1.093h0l-24.567-14.142a2.788,2.788,0,0,1-1.385-2.333V371.833a2.556,2.556,0,0,0,1.385,2.333l8.165,4.738h0l16.4,9.477h0a8.164,8.164,0,0,0,4.082,1.093h0a8.164,8.164,0,0,0,4.082-1.093l20.485-11.81,8.165-4.738A3.079,3.079,0,0,0,445.951,369.5Z" transform="translate(-381.8 -252.351)"/><path class="ah" d="M441.619,351.219a1.314,1.314,0,0,1-.656,1.166l-2.114,1.239-18.444-10.643a3.816,3.816,0,0,0-3.937,0l-.073.073-22.453,12.9-2.187-1.239a1.365,1.365,0,0,1,0-2.333h.073L416.4,338.17l.073-.073a3.816,3.816,0,0,1,3.937,0l20.412,11.81.146.073A1.9,1.9,0,0,1,441.619,351.219Z" transform="translate(-384.32 -243.692)"/><path class="ai" d="M439.833,355.413,417.38,368.389l-.219.073a3.775,3.775,0,0,1-3.791,0L395,357.746l22.453-12.976.073-.073a3.816,3.816,0,0,1,3.937,0Z" transform="translate(-385.377 -245.481)"/><line class="aj" y1="0.073" transform="translate(29.962 127.501)"/><g transform="translate(6.839)"><g transform="translate(3.877 16.257)"><g transform="translate(3.412 4.242)"><rect class="y" width="0.51" height="24.13" transform="matrix(0.808, 0.589, -0.589, 0.808, 16.07, 53.328)"/><rect class="y" width="26.608" height="0.583" transform="matrix(0.802, 0.597, -0.597, 0.802, 16.449, 53.275)"/><rect class="y" width="31.638" height="0.51" transform="matrix(0.508, 0.861, -0.861, 0.508, 0.439, 26.151)"/><rect class="y" width="32.149" height="0.51" transform="translate(0.243 25.97) rotate(16.757)"/><rect class="y" width="35.502" height="0.583" transform="matrix(0.021, 1, -1, 0.021, 30.555, 0)"/></g><g transform="translate(1.822 72.972)"><path class="z" d="M402.718,336.287v4.228L399,338.4v-4.3Z" transform="translate(-399 -331.986)"/><path class="y" d="M407.745,334.1v4.3l-3.645,2.114v-4.228Z" transform="translate(-400.382 -331.986)"/><path class="aa" d="M406.363,333.314l-3.645,2.187L399,333.314l3.718-2.114Z" transform="translate(-399 -331.2)"/></g><g transform="translate(16.111 53.508)"><path class="z" d="M422.245,309.514v4.3l-3.645-2.187V307.4Z" transform="translate(-418.6 -305.286)"/><path class="y" d="M427.318,307.4v4.228l-3.718,2.187v-4.3Z" transform="translate(-419.955 -305.286)"/><path class="aa" d="M425.963,306.614l-3.718,2.114-3.645-2.114,3.645-2.114Z" transform="translate(-418.6 -304.5)"/></g><g transform="translate(37.397 69.4)"><path class="z" d="M451.518,331.314v4.3L447.8,333.5v-4.3Z" transform="translate(-447.8 -327.086)"/><path class="y" d="M456.618,329.2v4.3l-3.718,2.114v-4.3Z" transform="translate(-449.182 -327.086)"/><path class="aa" d="M455.236,328.414l-3.718,2.114-3.718-2.114,3.718-2.114Z" transform="translate(-447.8 -326.3)"/></g><g transform="translate(0 26.244)"><path class="z" d="M400.145,272.187v4.228L396.5,274.3V270Z" transform="translate(-396.5 -267.886)"/><path class="y" d="M405.218,270v4.3l-3.718,2.114v-4.228Z" transform="translate(-397.855 -267.886)"/><path class="aa" d="M403.863,269.214l-3.718,2.187-3.645-2.187,3.645-2.114Z" transform="translate(-396.5 -267.1)"/></g><g transform="translate(30.764 35.502)"><path class="z" d="M442.418,284.914v4.228l-3.718-2.114V282.8Z" transform="translate(-438.7 -280.613)"/><path class="y" d="M447.518,282.8v4.228l-3.718,2.114v-4.228Z" transform="translate(-440.082 -280.613)"/><path class="aa" d="M446.136,281.987l-3.718,2.114-3.718-2.114,3.718-2.187Z" transform="translate(-438.7 -279.8)"/></g><g transform="translate(30.035)"><path class="z" d="M441.418,236.187v4.228L437.7,238.3V234Z" transform="translate(-437.7 -231.886)"/><path class="y" d="M446.445,234v4.3l-3.645,2.114v-4.228Z" transform="translate(-439.082 -231.886)"/><path class="aa" d="M445.063,233.214l-3.645,2.187-3.718-2.187,3.718-2.114Z" transform="translate(-437.7 -231.1)"/></g></g><path class="ak" d="M418.537,208.8v93.967h0a3.968,3.968,0,0,0-1.968.51l-.073.073-24.567,14.215h-.073a1.431,1.431,0,0,0-.656.948h0V224.546Z" transform="translate(-391.186 -208.8)"/><path class="al" d="M451.882,221.849v94.332a1.574,1.574,0,0,0-.656-1.021l-.146-.073-20.412-11.81a3.783,3.783,0,0,0-1.968-.51h0V208.8Z" transform="translate(-401.349 -208.8)"/><path class="am" d="M450.337,226.7v94.477a1.314,1.314,0,0,1-.656,1.166l-2.114,1.239-22.453,12.976-.219.073a3.532,3.532,0,0,1-1.9.51v-94.55Z" transform="translate(-399.804 -213.651)"/><path class="an" d="M414.377,243.913v94.259h0a3.532,3.532,0,0,1-1.9-.51l-18.444-10.716-2.187-1.239a1.273,1.273,0,0,1-.656-1.312V230.5Z" transform="translate(-391.181 -214.681)"/></g></g><g transform="translate(306.766 363.374)"><path class="ao" d="M361,450.491l3.208,1.75,5.54-9.258-1.677-4.082-4.666,1.385Z" transform="translate(-338.907 -426.14)"/><path class="ap" d="M356.836,513.1s-4.811,5.395-7.436,6.78c0,0,3.062,2.333,7.071-.365l1.385-2.551v2.114s.875.219,1.094-.365a22.983,22.983,0,0,0,.729-4.009C359.606,513.975,358.658,513.1,356.836,513.1Z" transform="translate(-335.764 -446.248)"/><path class="ap" d="M366.78,517.894s-4.3,5.832-6.78,7.436c0,0,3.28,2.041,7-1.021l1.094-2.7.219,2.114s.948.146,1.093-.437a24.29,24.29,0,0,0,.365-4.082C369.623,518.55,368.529,517.748,366.78,517.894Z" transform="translate(-338.636 -447.543)"/><path class="aq" d="M356.2,478.7s.948,10.425,1.239,11.372-.364,1.094.219,4.593a50.578,50.578,0,0,1,.437,9.768c-.146.656,1.75,1.239,2.551.292,0,0,2.406-8.165.948-10.789a72.168,72.168,0,0,0,1.9-7.582,52.737,52.737,0,0,0,.073-7.581L356.2,478.7Z" transform="translate(-337.607 -436.926)"/><path class="ar" d="M362.7,481.616s1.822,12.393,2.7,14.361,1.968,10.789,1.9,11.956c0,0,.292,1.968,2.551.656,0,0,1.75-9.331,0-11.737,0,0,0-10.352,1.239-13.632s-.583-4.52-.583-4.52Z" transform="translate(-339.368 -436.926)"/><path class="as" d="M360.2,463.6h4.52l2.551-9.55s-4.957.583-6.925-2.551Z" transform="translate(-338.691 -429.554)"/><path class="at" d="M372.688,483.7s-3.426,3.353-8.675-.219c0,0-2.187-8.6-2.114-9.768.073-1.021.219-8.092.292-11.154,0,0,1.6-5.54,3.572-7.144a7.4,7.4,0,0,1-.656-1.75l2.114-.948.437-5.322s1.822.948,2.7,1.531c0,0,3.062,2.406,0,6.78,0,0-1.458,1.75-.219,5.613s1.75,4.738,1.531,8.894A83.877,83.877,0,0,0,372.688,483.7Z" transform="translate(-339.151 -428.443)"/><path class="au" d="M335.534,426.429s-2.187-5.176-3.28-5.03.729,2.479.729,2.479-2.7,2.77-.583,4.447c.656.51,2.187,1.531,2.187,1.531Z" transform="translate(-330.937 -421.396)"/><path class="av" d="M335.529,430.317s-1.823-3.28.292-4.884c0,0-.292-2.114.875-2.333,0,0,.51,1.6.8,2.551A12.6,12.6,0,0,1,335.529,430.317Z" transform="translate(-331.807 -421.858)"/><path class="aw" d="M332.813,424.8s-3.28,1.968-1.677,3.135,2.187-.948,2.187-.948A3.562,3.562,0,0,0,332.813,424.8Z" transform="translate(-330.694 -422.318)"/><path class="ax" d="M367.43,452.622l-2.114.948a7.4,7.4,0,0,0,.656,1.75c-1.968,1.6-3.572,7.144-3.572,7.144v-1.239a21.666,21.666,0,0,1,5.54-13.924Z" transform="translate(-339.287 -428.416)"/><path class="ap" d="M353.764,441.481s-6.561.51-9.914-1.166c0,0-6.124-8.967-7.144-9.914a3.62,3.62,0,0,0-2.406,1.458s5.54,10.935,6.488,11.372,7.8,4.155,11.081,3.718C351.869,446.948,356.388,441.481,353.764,441.481Z" transform="translate(-331.671 -423.836)"/><path class="at" d="M359.373,461.971h0s.365.729.365,4.082a47.589,47.589,0,0,1-.656,7.071l-1.458,8.894s-3.135.51-6.124-2.989c0,0,2.187-7.509,2.989-11.226.8-3.645,3.135-7.582,2.624-9.987s-2.843-4.009-2.624-5.322,2.26-5.54,3.937-6.925a5.876,5.876,0,0,1,2.843.219L357.4,449.36l.8,2.187-1.166,1.239C357.186,453.224,359.227,461.461,359.373,461.971Z" transform="translate(-336.333 -427.924)"/><path class="ax" d="M361.46,462.084c-.146-.51-2.187-8.748-2.26-9.185l1.166-1.239-.8-2.187,3.864-3.572C363.355,445.9,359.565,451.732,361.46,462.084Z" transform="translate(-338.419 -428.037)"/><path class="ay" d="M362.359,428.9s-2.843.875-2.041,7.144c.729,6.269-2.989,5.9-3.718,5.759,0,0,1.021,2.041,4.155.073a5.2,5.2,0,0,1-1.385,2.624C359.3,444.5,366.66,442.241,362.359,428.9Z" transform="translate(-337.715 -423.43)"/><path class="az" d="M366.1,465s1.677-.146,2.114.656a15.537,15.537,0,0,1,1.093,2.77h-2.551Z" transform="translate(-340.289 -433.209)"/><path class="ba" d="M355.3,460a18.481,18.481,0,0,0,7.071,1.166s3.062,1.094,2.114,11.154c0,0-4.666.073-6.342-1.6C358.07,470.716,357.779,463.28,355.3,460Z" transform="translate(-337.363 -431.858)"/><path class="bb" d="M365.681,465.553s-1.75-.365-1.968.146-.729,1.531,1.093,2.989a5.029,5.029,0,0,0,4.3.656l.146-1.385A6.725,6.725,0,0,1,365.681,465.553Z" transform="translate(-339.579 -433.329)"/><path class="bc" d="M369.561,430.138a5.471,5.471,0,0,0-7.217.875c-1.6,1.968-2.843,7.29-1.385,8.238,2.7,1.677,6.707-.51,8.6-2.916C371.53,433.856,371.092,431.3,369.561,430.138Z" transform="translate(-338.721 -423.501)"/><path class="ap" d="M372.5,449.5a34.478,34.478,0,0,1,6.853,11.81s1.239,3.28-.8,3.791-8.748.365-8.748.365.875-1.458.219-2.406c0,0,5.395-.729,5.467-1.239a21.072,21.072,0,0,0-4.228-5.54C371.258,456.353,369.727,451.468,372.5,449.5Z" transform="translate(-341.292 -429.012)"/><path class="bd" d="M368.009,430.492s-9.331-1.166-5.03-8.092a3.958,3.958,0,0,0,4.738,3.208c4.009-.656,3.791,2.916,3.791,2.916s2.26.51,1.458,5.1.437,7,3.791,6.124c0,0-.51,3.864-5.322,1.677a8.2,8.2,0,0,1-2.843,3.353,11.871,11.871,0,0,0,1.094-3.28s-2.26,2.916-4.593,3.28c0,0,2.989-4.009,2.187-8.092C366.7,433.043,366.113,432.168,368.009,430.492Z" transform="translate(-339.137 -421.668)"/></g><g transform="translate(553.553 366.301)"><path class="be" d="M688.646,512.956s-.292.365,1.677.656c2.041.365,1.9,1.385,3.864,2.333,1.9.875,3.645.364,3.718-.729-1.239,1.093-3.937.729-5.03-.51a4.6,4.6,0,0,0-3.135-1.823,3.255,3.255,0,0,1-1.239-.583C688.573,512.664,688.646,512.956,688.646,512.956Z" transform="translate(-674.449 -448.958)"/><path class="ax" d="M688.493,511.124a3.868,3.868,0,0,0,1.239.583,4.6,4.6,0,0,1,3.135,1.822,3.971,3.971,0,0,0,5.03.51v-.073c0-1.166-.656-1.385-2.041-2.26a19.916,19.916,0,0,1-3.645-3.28s-.437-.729-2.333-.365C688.493,508.354,688.42,510.176,688.493,511.124Z" transform="translate(-674.442 -447.782)"/><path class="be" d="M676.62,519.122c2.041.583,2.187,1.531,4.155,2.77,1.9,1.166,3.791.8,4.01-.365-1.166,1.166-2.989.729-4.374-.51a9.8,9.8,0,0,0-3.791-2.406A4.068,4.068,0,0,1,674.8,517.3v.146C674.8,517.883,674.579,518.539,676.62,519.122Z" transform="translate(-670.734 -450.313)"/><path class="ax" d="M674.9,516.364a4.068,4.068,0,0,0,1.822,1.312,9.016,9.016,0,0,1,3.791,2.406c1.312,1.239,3.208,1.6,4.374.51h0c.146-1.239-.51-1.531-1.9-2.551a23.878,23.878,0,0,1-3.426-3.791s-.364-.8-2.406-.656C675.265,513.521,674.9,515.707,674.9,516.364Z" transform="translate(-670.763 -449.304)"/><path class="bf" d="M677.3,471.6s-1.458,1.6-1.094,8.092.8,8.894.51,10.643c-.365,1.677-1.75,4.009-.583,12.976a2.255,2.255,0,0,0,2.77-.219s1.021-9.55,2.479-12.976,3.426-16.986,3.426-16.986Z" transform="translate(-670.972 -437.928)"/><path class="bg" d="M689.311,471.1a36.861,36.861,0,0,1,2.7,12.174c.073,6.051-1.312,11.883-1.094,15.746,0,0-.8,1.312-2.7.365,0,0-1.458-6.707-.948-11.883,0-3.208-1.677-2.041-2.77-12.684Z" transform="translate(-673.365 -437.793)"/><path class="bh" d="M679.78,437.8s-.219,6.342.219,8.456c.437,2.187,4.957,1.968,5.249-.583l-2.843-5.54Z" transform="translate(-672.071 -428.768)"/><path class="bi" d="M716.28,439.177h0a1.008,1.008,0,0,0-1.312.8c-.146.875.8,1.385,1.385,1.531a7.491,7.491,0,0,1-2.7.8L713,440.489s3.208-3.208,4.811-3.5S716.645,438.885,716.28,439.177Z" transform="translate(-681.089 -428.541)"/><path class="bj" d="M717.544,442.127c-.146.073-.219.219-.365.292-.583-.219-1.531-.656-1.385-1.531a.989.989,0,0,1,1.312-.8h0C717.325,440.231,718.419,441.252,717.544,442.127Z" transform="translate(-681.842 -429.377)"/><path class="bk" d="M713.1,441.158s.365-1.458,1.312-1.458,1.823,1.75,1.531,1.9-.8-.948-1.385-.583c-.219.146,0,1.531-.656,1.6S713.1,441.158,713.1,441.158Z" transform="translate(-681.116 -429.283)"/><path class="bl" d="M679.252,428.5s-5.759,5.395,1.021,9.623c6.853,4.228,6.124-8.821,3.28-9.185S679.252,428.5,679.252,428.5Z" transform="translate(-671.324 -426.248)"/><path class="ap" d="M689.053,443.068l9.039,4.447s6.707-5.686,8.456-6.415a2.524,2.524,0,0,1,1.094,2.479s-5.978,7.071-8.821,7.144a63.231,63.231,0,0,1-8.894-1.312S687.158,443.068,689.053,443.068Z" transform="translate(-674.419 -429.662)"/><path class="bm" d="M678.764,433.713s-1.021-1.6-1.458-.365,1.458,2.041,1.458,2.041.437.875-.437.948c0,0-.8.729-1.166-.292,0,0-1.239.146-1.094-1.021a.92.92,0,0,1-.51-1.458s-.948-.656-.364-1.458c0,0-.656-1.094,0-1.677,0,0-.292-1.093.51-1.312,0,0-.292-2.041,1.312-2.041a1.532,1.532,0,0,1,2.041-1.021,1.14,1.14,0,0,1,1.822-.292s.948-.729,1.458.219a.9.9,0,0,1,1.239.8s1.385.219.875,1.239a1.011,1.011,0,0,1-1.385.583s.073,1.021-1.312.656c0,0-.146,1.093-1.823.729,0,0-.51.146-.219,1.166a1.018,1.018,0,0,1-.656,1.312S680.076,433.349,678.764,433.713Z" transform="translate(-670.763 -425.41)"/><path class="at" d="M693.054,475.58a3.794,3.794,0,0,1-3.937,1.75s-2.187-9.55-2.551-13.268l2.551-8.821-1.458-2.187.729-2.77a15.977,15.977,0,0,0-2.989-7,6.126,6.126,0,0,1,2.77.292s2.479,6.051,1.9,18.881A50.934,50.934,0,0,1,693.054,475.58Z" transform="translate(-673.609 -430.244)"/><path class="at" d="M684.177,464.527l-.948,13.705c-4.447,5.1-9.55-.292-9.55-.292-1.677-12.247,3.791-16.621,1.385-22.38s-.948-7.8-.948-7.8a9.953,9.953,0,0,1,2.77-2.26,57.909,57.909,0,0,0,.729,7.144,9.447,9.447,0,0,0,2.624,2.843,5.062,5.062,0,0,0-.948,2.114,33.927,33.927,0,0,1,4.666,5.978A2.519,2.519,0,0,1,684.177,464.527Z" transform="translate(-670.344 -430.855)"/><path class="bn" d="M685.914,445.477l-.292,1.239-.365,1.823-1.458-1.823.8-2.333.219-.583Z" transform="translate(-673.175 -430.394)"/><path class="bo" d="M682.526,447.122l-.656,2.114-1.677-1.458-1.093-1.021.729-1.458Z" transform="translate(-671.901 -430.801)"/><path class="ax" d="M688.9,455.255l-1.968,6.853-.146.365L686.35,464v-.51s.073-.583.219-1.458c0-.292.073-.656.073-1.021.292-3.572.656-10.06-.8-14.507a9.8,9.8,0,0,0-1.021-2.333,2.212,2.212,0,0,0-.219-.8l.583-.073a16.875,16.875,0,0,1,2.989,7l-.729,2.77Z" transform="translate(-673.392 -430.259)"/><path class="ax" d="M685.369,463.362a1.524,1.524,0,0,0-.292-.437c-.073-.146-.219-.292-.292-.437a40.031,40.031,0,0,0-4.082-5.1,5.062,5.062,0,0,1,.948-2.114,9.447,9.447,0,0,1-2.624-2.843,44.673,44.673,0,0,1-.729-7.144,8.8,8.8,0,0,1,1.094-.583c0,.219.292.437.292.437a15.665,15.665,0,0,0,.365,2.479c1.021,4.52,3.718,10.06,4.884,13.851a6.075,6.075,0,0,1,.292,1.094A2.621,2.621,0,0,1,685.369,463.362Z" transform="translate(-671.683 -430.638)"/><path class="bp" d="M673.6,477.6s2.187,1.166,1.9,2.041-.875.583-.875.583Z" transform="translate(-670.411 -439.554)"/><path class="bq" d="M671.446,476.2a17.022,17.022,0,0,0-.365,3.791,5.662,5.662,0,0,0,2.406,2.041,2.275,2.275,0,0,0,.948-.437,6.2,6.2,0,0,0-.437-2.7c-.51-.729-1.458-2.187-1.458-2.187Z" transform="translate(-669.715 -439.175)"/><path class="br" d="M685.584,462.307c-1.166-3.791-3.937-9.331-4.884-13.851l1.677,1.458.656-2.114,1.458,1.822.365-1.822C686.24,452.247,685.876,458.735,685.584,462.307Z" transform="translate(-672.335 -431.478)"/><path class="ap" d="M673,448.521s-3.426,7.727-3.718,10.789c0,0-.437,2.333,1.166,10.5,0,0,1.823,1.312,2.624,0,0,0-.146-7.582-.51-9.258l2.187-5.1C675.622,453.478,674.237,447.063,673,448.521Z" transform="translate(-669.225 -431.616)"/></g><g transform="translate(579.486 299.981)"><path class="bs" d="M721.732,350.221s.292,2.7-.146,3.5,3.28-.292,3.28-.292l.292-4.228Z" transform="translate(-709.34 -338.436)"/><path class="bt" d="M720.141,342c-1.823.656-1.6,7,.51,7s4.884-1.677,4.884-4.082C725.536,341.121,721.381,341.558,720.141,342Z" transform="translate(-708.623 -336.408)"/><path class="bu" d="M714.6,380.6s-1.239,4.811,0,15.746a13.6,13.6,0,0,0,.292,4.155,51.482,51.482,0,0,1,.219,10.935s.948,1.239,2.551,0c0,0,1.239-8.238.948-12.757s4.593-11.3,3.864-15.163Z" transform="translate(-707.305 -346.946)"/><path class="ax" d="M724.732,351.2s-4.228,1.385-4.593,2.26a1.466,1.466,0,0,0,0,1.385l5.176-2.114Z" transform="translate(-708.913 -338.978)"/><path class="bv" d="M727.758,379.7s1.239,2.843.073,9.04c-1.239,6.2-.146,8.456-.146,11.008a64.194,64.194,0,0,1-1.458,9.477,1.209,1.209,0,0,1-1.968-.219s.073-8.675-.656-11.591c-.656-2.916-.656-7.29-1.166-9.7s-.437-1.458-.437-1.458Z" transform="translate(-709.46 -346.702)"/><path class="ap" d="M727.287,352.68c1.021-.437,2.916,1.9,1.531,4.811-1.385,2.989-5.03,6.561-5.9,6.561-.8,0-2.041-.948-1.822-1.822s2.624-3.208,3.791-4.957C726.121,355.6,726.048,353.263,727.287,352.68Z" transform="translate(-709.208 -339.365)"/><path class="at" d="M720.806,352.746s-4.155,1.822-5.176,3.28-3.062,5.322-.51,5.9c0,0,1.531,2.7-.729,7.071s-3.791,12.976-3.791,12.976,4.52,4.666,10.716,3.28l.875-3.864.729,3.426a6.083,6.083,0,0,0,2.916-1.968s.656-11.445-2.77-18.589c-1.385-3.937,4.884-9.185,1.968-12.1C723.795,351.069,720.806,352.746,720.806,352.746Z" transform="translate(-706.372 -339.139)"/><path class="ap" d="M714.4,420.539s2.843,3.864,6.707,3.28l2.406-2.187v2.479s.365.365,1.094-.219c0,0,1.6-3.645.583-4.957s-2.333-1.094-3.5-.583C720.6,418.935,720.013,421.414,714.4,420.539Z" transform="translate(-707.402 -357.069)"/><path class="bw" d="M718.936,335.211s-2.77,6.342,2.624,5.9c0,0-1.458,2.843,1.385,3.062,0,0-1.823,4.957,2.77,4.738s3.062-5.176-.656-2.7c0,0,.292-2.114,1.021-2.77s.656-2.406-.146-2.77a1.113,1.113,0,0,0-.8-1.823c-1.677-.364-4.811-2.041-1.239-4.374a3.644,3.644,0,0,0-4.3,2.916A3.157,3.157,0,0,1,718.936,335.211Z" transform="translate(-708.438 -334.435)"/><path class="ap" d="M717.286,356.78c1.021-.437,2.916,1.9,1.531,4.811-1.385,2.989-5.03,6.561-5.9,6.561s-2.041-.948-1.822-1.822,2.624-3.208,3.791-4.957S716.047,357.364,717.286,356.78Z" transform="translate(-706.497 -340.476)"/><path class="bx" d="M713.936,365.1s-1.6-.219-2.843,2.26a1.746,1.746,0,0,0,.875,1.822c.948.437,2.77-1.822,2.624-2.551C714.52,366.192,712.989,366.192,713.936,365.1Z" transform="translate(-706.501 -342.744)"/><path class="ap" d="M704.8,423.639s2.843,3.864,6.707,3.28l2.406-2.187v2.479s.365.365,1.094-.219c0,0,1.6-3.645.583-4.957s-2.333-1.094-3.5-.583C711,421.962,710.413,424.441,704.8,423.639Z" transform="translate(-704.8 -357.909)"/></g><g transform="translate(242.4 295.891)"><path class="by" d="M247.482,330.268A2.736,2.736,0,0,0,243.4,332.6h0v56.716h0a8.113,8.113,0,0,0,4.082,7.071h0l69.546,40.168h0a2.736,2.736,0,0,0,4.082-2.333h0V377.507h0a8.113,8.113,0,0,0-4.082-7.071h0l-69.546-40.168Z" transform="translate(-242.671 -329.12)"/><path class="bz" d="M318.142,437.354a3.882,3.882,0,0,1-1.75-.437l-69.546-40.168a8.878,8.878,0,0,1-4.447-7.727V332.306a3.461,3.461,0,0,1,1.75-2.989,3.228,3.228,0,0,1,3.426,0l69.546,40.167a8.878,8.878,0,0,1,4.447,7.727v56.716a3.424,3.424,0,0,1-3.426,3.426ZM245.826,330.338a1.822,1.822,0,0,0-1.021.292,1.963,1.963,0,0,0-1.021,1.75v56.716a7.716,7.716,0,0,0,3.718,6.488l69.546,40.167a1.907,1.907,0,0,0,1.968,0,1.963,1.963,0,0,0,1.021-1.75V377.285a7.716,7.716,0,0,0-3.718-6.488l-69.473-40.167A1.674,1.674,0,0,0,245.826,330.338Z" transform="translate(-242.4 -328.825)"/><path class="ca" d="M254.6,395.6V353.1l8.165,4.738v42.5Z" transform="translate(-245.706 -335.404)"/><path class="ca" d="M291.1,413.24V361.7l8.165,4.738v51.54Z" transform="translate(-255.598 -337.734)"/><path class="y" d="M310.9,431.5V398.4l8.165,4.738v33.1Z" transform="translate(-260.964 -347.68)"/><path class="ca" d="M327.5,446.481V427.6l8.238,4.738v18.881Z" transform="translate(-265.463 -355.594)"/><path class="y" d="M271.4,407.279V370.1l8.238,4.738v37.179Z" transform="translate(-250.259 -340.011)"/><path class="ba" d="M337.268,392.033a1.054,1.054,0,0,1-.51-.146l-10.06-5.832a1,1,0,0,1-.365-1.458,1.017,1.017,0,0,1,1.458-.365l10.06,5.832a1,1,0,0,1,.365,1.458A1.246,1.246,0,0,1,337.268,392.033Z" transform="translate(-265.097 -343.792)"/><path class="ba" d="M337.268,398.533a1.054,1.054,0,0,1-.51-.146l-10.06-5.832a1,1,0,0,1-.365-1.458,1.017,1.017,0,0,1,1.458-.364l10.06,5.832a1,1,0,0,1,.365,1.458A1.246,1.246,0,0,1,337.268,398.533Z" transform="translate(-265.097 -345.553)"/><path class="ba" d="M337.268,404.933a1.054,1.054,0,0,1-.51-.146l-10.06-5.832a1.063,1.063,0,1,1,1.093-1.822l10.06,5.832a1,1,0,0,1,.365,1.458A1.062,1.062,0,0,1,337.268,404.933Z" transform="translate(-265.097 -347.288)"/></g><g transform="translate(590.713 295.891)"><path class="by" d="M794.928,330.268a2.736,2.736,0,0,1,4.082,2.333h0v56.716h0a8.113,8.113,0,0,1-4.082,7.071h0l-69.546,40.168h0a2.736,2.736,0,0,1-4.082-2.333h0V377.507h0a8.113,8.113,0,0,1,4.082-7.071h0l69.546-40.168Z" transform="translate(-720.498 -329.12)"/><path class="bz" d="M723.7,437.354a3.882,3.882,0,0,1-1.75-.437,3.461,3.461,0,0,1-1.75-2.989V377.212a8.878,8.878,0,0,1,4.447-7.727l69.546-40.167a3.228,3.228,0,0,1,3.426,0,3.461,3.461,0,0,1,1.75,2.989v56.716a8.878,8.878,0,0,1-4.447,7.727l-69.546,40.167A3.386,3.386,0,0,1,723.7,437.354Zm71.3-106.725L725.449,370.8a7.38,7.38,0,0,0-3.718,6.488V434a1.963,1.963,0,0,0,1.021,1.75,1.907,1.907,0,0,0,1.968,0l69.546-40.168a7.38,7.38,0,0,0,3.718-6.488V332.379a1.963,1.963,0,0,0-1.021-1.75,1.907,1.907,0,0,0-1.968,0Z" transform="translate(-720.2 -328.825)"/><g transform="translate(4.52 25.489)"><path class="y" d="M728.1,415.6v35.794L769,427.7l-11.664-1.75-3.28,4.082-11.664-8.821-5.03,7.436Z" transform="translate(-726.861 -377.831)"/><path class="ca" d="M726.4,409.629a2.947,2.947,0,0,1,1.239-2.187c.656-.364,1.239-.073,1.239.729a2.947,2.947,0,0,1-1.239,2.187C726.983,410.8,726.4,410.431,726.4,409.629Z" transform="translate(-726.4 -375.578)"/><path class="ca" d="M746,418.317a2.947,2.947,0,0,1,1.239-2.187c.656-.437,1.239-.073,1.239.729a2.947,2.947,0,0,1-1.239,2.187C746.583,419.484,746,419.119,746,418.317Z" transform="translate(-731.712 -377.924)"/><path class="ca" d="M766.3,425.317a2.947,2.947,0,0,1,1.239-2.187c.656-.437,1.239-.073,1.239.729a2.947,2.947,0,0,1-1.239,2.187C766.883,426.484,766.3,426.119,766.3,425.317Z" transform="translate(-737.213 -379.821)"/><g transform="translate(29.13)"><path class="ca" d="M796.622,367.4v15.965L783.5,390.946C783.646,382.417,789.332,372.211,796.622,367.4Z" transform="translate(-771.004 -364.768)"/><path class="y" d="M811.885,373.857c0,8.967-6.342,19.974-14.215,24.421-7.144,4.155-13.122,1.458-14.07-5.9l15.163-8.748V365.109C806.126,361.61,811.885,365.255,811.885,373.857Z" transform="translate(-771.031 -363.79)"/><path class="ba" d="M798.929,407.195a.657.657,0,0,1-.365-.073.9.9,0,0,1-.365-.729,2.118,2.118,0,0,1,1.021-1.75.938.938,0,0,1,.875-.073.9.9,0,0,1,.365.729,2.118,2.118,0,0,1-1.021,1.75A1.352,1.352,0,0,1,798.929,407.195Zm.875-2.406a.438.438,0,0,0-.292.073,2.067,2.067,0,0,0-.875,1.458.616.616,0,0,0,.146.437.46.46,0,0,0,.51-.073,2.067,2.067,0,0,0,.875-1.458.616.616,0,0,0-.146-.437Z" transform="translate(-774.988 -374.82)"/><path class="ba" d="M809.429,421.195a.657.657,0,0,1-.365-.073.9.9,0,0,1-.365-.729,2.118,2.118,0,0,1,1.021-1.75.938.938,0,0,1,.875-.073.9.9,0,0,1,.365.729,2.118,2.118,0,0,1-1.021,1.75A.694.694,0,0,1,809.429,421.195Zm.8-2.333a.438.438,0,0,0-.292.073,2.067,2.067,0,0,0-.875,1.458.616.616,0,0,0,.146.437.46.46,0,0,0,.51-.073,2.067,2.067,0,0,0,.875-1.458.616.616,0,0,0-.146-.437Z" transform="translate(-777.834 -378.614)"/><path class="ba" d="M799.5,421.642V407.719a.233.233,0,0,1,.219-.219.193.193,0,0,1,.219.219v13.341l6.415-3.791a.163.163,0,0,1,.146.292Z" transform="translate(-775.341 -375.636)"/><g transform="translate(10.673 5.177)"><path class="ba" d="M781.729,373.595a.657.657,0,0,1-.364-.073.9.9,0,0,1-.365-.729,2.118,2.118,0,0,1,1.021-1.75.938.938,0,0,1,.875-.073.9.9,0,0,1,.365.729,2.118,2.118,0,0,1-1.021,1.75A1.855,1.855,0,0,1,781.729,373.595Zm.8-2.406a.438.438,0,0,0-.292.073,2.067,2.067,0,0,0-.875,1.458.616.616,0,0,0,.146.437.46.46,0,0,0,.51-.073,2.067,2.067,0,0,0,.875-1.458.616.616,0,0,0-.146-.437Z" transform="translate(-781 -370.891)"/><path class="ba" d="M782.3,387.8V374.019a.233.233,0,0,1,.219-.219.193.193,0,0,1,.219.219v13.122l7.8-4.374a.163.163,0,0,1,.146.292Z" transform="translate(-781.352 -371.679)"/></g><path class="ba" d="M767.118,379.519a.87.87,0,0,1-.656-.365.738.738,0,0,1,.292-1.021l6.2-3.572a.751.751,0,1,1,.729,1.312l-6.2,3.572C767.337,379.446,767.264,379.519,767.118,379.519Z" transform="translate(-766.359 -366.681)"/><path class="ba" d="M767.118,382.719a.87.87,0,0,1-.656-.365.738.738,0,0,1,.292-1.021l6.2-3.572a.751.751,0,1,1,.729,1.312l-6.2,3.572A.657.657,0,0,1,767.118,382.719Z" transform="translate(-766.359 -367.549)"/><path class="ba" d="M813.018,414.519a.87.87,0,0,1-.656-.365.738.738,0,0,1,.292-1.021l6.2-3.572a.751.751,0,1,1,.729,1.312l-6.2,3.572A.793.793,0,0,1,813.018,414.519Z" transform="translate(-778.798 -376.167)"/><path class="ba" d="M813.018,417.719a.87.87,0,0,1-.656-.365.738.738,0,0,1,.292-1.021l6.2-3.572a.751.751,0,1,1,.729,1.312l-6.2,3.572A.793.793,0,0,1,813.018,417.719Z" transform="translate(-778.798 -377.034)"/></g></g></g><g transform="translate(383.047 336.769)"><path class="cb" d="M514.124,465.162c-10.935,0-14-8.6-14-8.6-7.363.292-8.456-8.894-8.456-8.894-6.2,12.539-17.86,7.873-20.63.073h0c-8.383,4.884-11.008-3.135-11.008-3.135-12.174-6.561-7.727-15.309-7.727-15.309,3.645,3.5,10.06,4.082,10.06,4.082-13.122-7.363-9.112-19.464-9.112-19.464-5.03,2.916-3.718,9.914-3.718,9.914-12.83.292-6.2-19.391,2.479-20.922,2.041-6.415,6.707-2.624,6.707-2.624s-4.155-9.331,6.925-10.643c11.008-1.312,13.049,12.612,13.049,12.612s2.7-6.561,8.092-4.811,2.843,7.363,2.843,7.363c11.445,3.864,17.787-19.9,17.787-19.9h6.78Z" transform="translate(-437.239 -384.9)"/><path class="ba" d="M511.7,401.3s-5.686,12.976-12.174,15.236a8.138,8.138,0,0,0-6.342-3.864c-4.447-.219-5.9,2.479-7.582,4.811,0,0-1.458-10.57-6.488-12.174s-8.821-1.094-13.268,2.77a17.148,17.148,0,0,1,9.112.365c-5.613.365-7.29,1.312-9.477,3.791s-2.26,6.561-1.6,9.185c-1.822-1.75-2.114-5.467-1.239-9.331-6.561,12.539,4.52,19.974,8.019,20.266,0,0-5.9,12.9,7.509,11.591-1.093,5.1,5.03,11.81,10.352,5.832,0,0,9.4,1.75,9.4-8.165,0,0,4.884,3.718,8.456.8,0,0-.292,11.008,12.685,11.008V401.446Z" transform="translate(-442.182 -389.345)"/><path class="cc" d="M458.126,451.283c-17.933-4.666-10.279-17.423-10.06-17.86-.437.073-13.632,3.572-12.685-11.081.948-14.871,14.726-12.684,14.726-12.684-8.675,1.531-15.309,21.214-2.479,20.922,0,0-1.385-7,3.718-9.914,0,0-4.009,12.028,9.112,19.464,0,0-6.415-.583-10.06-4.082C450.4,436.048,445.879,444.8,458.126,451.283Z" transform="translate(-435.333 -391.579)"/><path class="cc" d="M510.76,479.894c-5.9,2.114-9.112-3.062-9.112-3.062-15.236,13.122-19.9-4.957-20.047-5.759,2.843,7.8,14.507,12.466,20.63-.073C502.3,471,503.4,480.258,510.76,479.894Z" transform="translate(-447.872 -408.234)"/></g><g transform="translate(459.858 336.769)"><path class="cd" d="M540.773,465.162c10.935,0,14-8.6,14-8.6,7.363.292,8.456-8.894,8.456-8.894,6.2,12.539,17.86,7.873,20.63.073h0c8.383,4.884,11.008-3.135,11.008-3.135,12.174-6.561,7.727-15.309,7.727-15.309-3.645,3.5-10.06,4.082-10.06,4.082,13.122-7.363,9.112-19.464,9.112-19.464,5.03,2.916,3.718,9.914,3.718,9.914,12.83.292,6.2-19.391-2.479-20.922-2.041-6.415-6.707-2.624-6.707-2.624s4.155-9.331-6.925-10.643C578.243,388.326,576.2,402.25,576.2,402.25s-2.7-6.561-8.092-4.811-2.843,7.363-2.843,7.363c-11.445,3.864-17.787-19.9-17.787-19.9H540.7Z" transform="translate(-540.7 -384.9)"/><path class="ba" d="M548.163,401.3s5.686,12.976,12.174,15.236a8.138,8.138,0,0,1,6.342-3.864c4.447-.219,5.9,2.479,7.582,4.811,0,0,1.458-10.57,6.488-12.174s8.821-1.094,13.268,2.77a17.148,17.148,0,0,0-9.112.365c5.613.365,7.29,1.312,9.477,3.791s2.26,6.561,1.6,9.185c1.823-1.75,2.114-5.467,1.239-9.331,6.561,12.539-4.52,19.974-8.019,20.266,0,0,5.9,12.9-7.509,11.591,1.093,5.1-5.03,11.81-10.352,5.832,0,0-9.4,1.75-9.4-8.165,0,0-4.884,3.718-8.456.8,0,0,.292,11.008-12.685,11.008V401.446Z" transform="translate(-540.727 -389.345)"/><path class="cc" d="M614.133,451.283c17.933-4.666,10.279-17.423,10.06-17.86.437.073,13.632,3.572,12.685-11.081-.948-14.871-14.726-12.684-14.726-12.684,8.675,1.531,15.309,21.214,2.479,20.922,0,0,1.385-7-3.718-9.914,0,0,4.009,12.028-9.112,19.464,0,0,6.415-.583,10.06-4.082C621.933,436.048,626.38,444.8,614.133,451.283Z" transform="translate(-559.969 -391.579)"/><path class="cc" d="M560,479.894c5.9,2.114,9.112-3.062,9.112-3.062,15.236,13.122,19.9-4.957,20.047-5.759-2.843,7.8-14.507,12.466-20.63-.073C568.456,471,567.363,480.258,560,479.894Z" transform="translate(-545.93 -408.234)"/></g><g transform="translate(431.282 228.295)"><g transform="translate(17.327 101.549)"><path class="ce" d="M525.292,392.313s1.9-3.791,2.26-4.374c0,0-.292,14.507,1.385,21.651,0,0,.292-7.582,1.677-10.643,0,0,1.385,13.195,5.978,21.287v-42.5l-8.967-2.333A56.435,56.435,0,0,0,525.292,392.313Z" transform="translate(-525.269 -375.4)"/><path class="ce" d="M549.767,375.4l-8.967,2.333v42.5c4.52-8.092,5.978-21.287,5.978-21.287,1.385,3.062,1.677,10.643,1.677,10.643,1.677-7.144,1.385-21.651,1.385-21.651.437.583,2.26,4.374,2.26,4.374A56.435,56.435,0,0,0,549.767,375.4Z" transform="translate(-529.478 -375.4)"/></g><path class="cf" d="M533.714,379.2s-1.75,8.675-2.114,12.9a9.464,9.464,0,0,1,2.406-3.353s-.8,8.019,4.374,18.371V379.856Z" transform="translate(-509.657 -274.881)"/><path class="cg" d="M545.466,379.2s1.75,8.675,2.114,12.9a9.464,9.464,0,0,0-2.406-3.353s.8,8.019-4.374,18.371V379.856Z" transform="translate(-512.151 -274.881)"/><path class="ch" d="M556.234,273.862s-11.008,8.748-24.567,8.748-24.567-8.748-24.567-8.748c0-9.7,8.165-28.358,24.567-37.762C544.279,243.317,556.6,264.166,556.234,273.862Z" transform="translate(-503.018 -236.1)"/><path class="ci" d="M548.54,354.588a94.549,94.549,0,0,1-3.28,10.425,22.571,22.571,0,0,1-20.849,0,88.211,88.211,0,0,1-3.426-10.862A73.95,73.95,0,0,1,519.161,329s7,5.54,15.6,5.54,15.6-5.54,15.6-5.54A69.557,69.557,0,0,1,548.54,354.588Z" transform="translate(-506.185 -261.277)"/><path class="cj" d="M554.917,319.074c-.51,2.916-1.166,5.9-1.9,8.967-1.094,4.374-2.479,8.821-4.082,13.413-.365.948-.729,1.968-1.094,2.916a35.988,35.988,0,0,1-32.732,0c-.364-1.021-.729-1.968-1.093-2.989-1.75-4.811-3.135-9.55-4.3-14.07-.729-2.843-1.239-5.613-1.75-8.311a113.684,113.684,0,0,1-1.094-31.2s11.008,8.748,24.567,8.748S556.01,287.8,556.01,287.8A114.036,114.036,0,0,1,554.917,319.074Z" transform="translate(-502.794 -250.111)"/><path class="ck" d="M512.727,353.18l-11.226,17.2V339.694l5.176-8.894c.437,2.7,1.021,5.54,1.75,8.31A138.5,138.5,0,0,0,512.727,353.18Z" transform="translate(-501.5 -261.764)"/><path class="cl" d="M575.954,339.694v30.691L564.8,353.18a132.62,132.62,0,0,0,4.082-13.413c.729-3.062,1.385-6.051,1.9-8.967Z" transform="translate(-518.655 -261.764)"/><path class="ba" d="M557.858,267.339a40.74,40.74,0,0,1-5.9,2.7A94.572,94.572,0,0,0,540.8,239.2C540.8,239.273,553.63,252.832,557.858,267.339Z" transform="translate(-512.151 -236.94)"/><path class="ba" d="M563.552,287.4a40.952,40.952,0,0,1-6.2,3.062,60.538,60.538,0,0,0-.656-6.342,45.263,45.263,0,0,0,6.2-2.624A28.165,28.165,0,0,1,563.552,287.4Z" transform="translate(-516.46 -248.404)"/><path class="cm" d="M548.965,342.458,540.8,380.439V333.2Z" transform="translate(-512.151 -262.415)"/><path class="cn" d="M537.765,333.2v47.239L529.6,342.677Z" transform="translate(-509.115 -262.415)"/></g><g transform="translate(411.526 384.227)"><path class="be" d="M476.3,565.908a1.629,1.629,0,0,0,.51.875s2.843.729,4.3-.656c2.7-2.479,3.718-.656,5.978-2.989a1.932,1.932,0,0,0,.364-.437,12.953,12.953,0,0,1-4.009,1.531c-2.114.365-3.135,1.677-4.884,1.9A4.624,4.624,0,0,1,476.3,565.908Z" transform="translate(-474.915 -480.542)"/><path class="ax" d="M476.205,565.175a4.624,4.624,0,0,0,2.26.219c1.75-.292,2.77-1.6,4.884-1.9a14.49,14.49,0,0,0,4.009-1.531c1.531-1.9-.8-1.6-.8-1.6a12.567,12.567,0,0,1-4.957.146c-2.333-.51-2.843-.656-3.791-.365,0,0-1.385.219-1.677,1.239A8.382,8.382,0,0,0,476.205,565.175Z" transform="translate(-474.82 -479.81)"/><path class="ax" d="M492.173,570a5.75,5.75,0,0,0,3.645-.146c2.187-.948,2.551-1.822,5.176-2.114a5.859,5.859,0,0,0,3.28-2.041c1.021-1.75-1.166-1.312-1.166-1.312a13.063,13.063,0,0,1-5.322.437c-2.551-.437-3.062-.51-4.082-.146,0,0-1.531.292-1.75,1.385A9.319,9.319,0,0,0,492.173,570Z" transform="translate(-479.124 -480.985)"/><path class="be" d="M492.3,570.5a1.875,1.875,0,0,0,.583,1.021s3.135.583,4.593-.948c2.77-2.77,4.009-.875,6.2-3.572a4.33,4.33,0,0,0,.583-.8,5.627,5.627,0,0,1-3.28,2.041c-2.551.292-2.989,1.166-5.176,2.114A5.314,5.314,0,0,1,492.3,570.5Z" transform="translate(-479.251 -481.491)"/><path class="co" d="M484.756,472.4a32.519,32.519,0,0,1-.656,5.54s2.114,3.645,5.249,1.75a33.272,33.272,0,0,1-.8-5.395Z" transform="translate(-477.029 -456.071)"/><path class="ap" d="M478.191,479.2s-3.208,5.686-3.791,15.528a24.088,24.088,0,0,0,5.03,12.539l1.166-2.624s-2.187-7.29-2.479-8.894l3.062-7.436Z" transform="translate(-474.4 -457.913)"/><path class="cp" d="M482.4,460.2s3.937-4.447,8.165-.583.948,12.174-.875,11.883S482.619,471.86,482.4,460.2Z" transform="translate(-476.568 -452.178)"/><path class="cq" d="M487.395,459.039a4.5,4.5,0,0,1,.583,4.228s-1.968-2.187-2.114,0c-.219,2.187,1.239,2.187,1.239,2.187s-.437,3.28-3.062,2.7-5.176-5.978-4.666-7.582a4.491,4.491,0,0,1,1.677-2.333s-2.916-2.843,8.383-8.238a3.8,3.8,0,0,1-.656,3.208l5.03-2.041s-1.458,3.353-2.187,4.009l2.916-.875s-2.187,2.624-3.28,3.135a13.6,13.6,0,0,0,2.187.219S491.4,459.55,487.395,459.039Z" transform="translate(-475.731 -450)"/><path class="cr" d="M489.237,518.966a38.889,38.889,0,0,1-2.479,8.238c-1.822,3.718-3.353,6.342-3.353,6.342a20.167,20.167,0,0,1-1.166,5.978,86.122,86.122,0,0,0-1.677,9.112c-1.312,1.6-3.208,0-3.208,0-.583-6.561-.729-8.383,1.094-13.705,1.75-5.322,1.968-14,1.968-14a10.073,10.073,0,0,1-.365-6.634,8.741,8.741,0,0,0,3.135,3.937A7.114,7.114,0,0,0,489.237,518.966Z" transform="translate(-475.094 -467.426)"/><path class="cs" d="M495.1,537.527c.073,1.75-.656,2.624-.51,4.52.146,1.458-.656,11.956-.656,11.956a2.469,2.469,0,0,1-2.916.219c-1.968-9.55-1.968-11.664-1.312-14.726.51-2.333.073-7.071-1.166-11.081A20.247,20.247,0,0,0,487,524.842a11.736,11.736,0,0,1-1.6-5.395,7.673,7.673,0,0,0,6.051.729,17.928,17.928,0,0,0,4.082-1.677C496.335,525.863,495.023,535.85,495.1,537.527Z" transform="translate(-477.381 -468.564)"/><g transform="translate(31.274 42.051)"><path class="ct" d="M518.846,508.716a16.9,16.9,0,0,1,2.406-1.021c.51-.073,2.187.219,2.624.146s-.292.948-1.166.875-1.531.583-1.312,1.021-2.7-.292-2.7-.292Z" transform="translate(-517.679 -507.684)"/><path class="cu" d="M518.393,508.7s2.916,1.385,4.3,1.239,1.75-.146,1.6.583-1.677,3.135-3.28,2.624A13.029,13.029,0,0,1,517.3,510.6Z" transform="translate(-517.3 -507.959)"/></g><path class="at" d="M495.226,524.187c-5.322,2.7-10.206-1.458-10.206-1.458a29.346,29.346,0,0,0-.875-6.124,16.9,16.9,0,0,1-1.458,5.249c-1.677.219-4.228-2.916-4.228-2.916-1.385-6.925,1.385-14.8,2.406-21.287s-4.082-14.653-2.406-18.006a3.373,3.373,0,0,1,3.572-1.75,9.968,9.968,0,0,1,2.989.8,17.762,17.762,0,0,1,3.208,1.385,11.788,11.788,0,0,1,1.312.729c1.677,1.094,3.572,1.75,3.645,4.009.073.656.51,7.436.729,10.206.219,2.843,0,6.853.146,9.7.146,3.28.656,5.322.8,8.529.073,2.552.219,5.1.292,7.654C495.153,522.073,495.226,523.094,495.226,524.187Z" transform="translate(-475.397 -457.557)"/><path class="ap" d="M495.109,485.707c1.166-2.7,2.843-2.114,8.6,9.768,0,0,6.488,5.686,8.821,6.342a2.665,2.665,0,0,1-.219,3.864s-7.509-2.77-10.279-6.269l-6.561-7.654A7.142,7.142,0,0,1,495.109,485.707Z" transform="translate(-479.873 -459.318)"/><path class="ax" d="M489.7,479.835c-1.021-.51-2.114-.948-3.208-1.385a8.575,8.575,0,0,0-2.989-.8l.365-.948s4.3.365,5.613,1.75Z" transform="translate(-476.866 -457.236)"/></g><g transform="translate(475.24 386.557)"><path class="ap" d="M593.6,478.7s-3.208-.219-2.041,7.509a69.458,69.458,0,0,0,1.385,7.144,16.69,16.69,0,0,0-6.269-1.312c-.8.073-1.6,1.458-1.385,1.822,1.312,2.479,9.55,5.9,11.008,3.791a.993.993,0,0,0,.219-.437C598.19,493.571,596.367,478.7,593.6,478.7Z" transform="translate(-568.155 -460.108)"/><path class="be" d="M596.754,565.908a1.629,1.629,0,0,1-.51.875s-2.843.729-4.3-.656c-2.7-2.479-3.718-.656-5.978-2.989a1.93,1.93,0,0,1-.365-.437,12.953,12.953,0,0,0,4.009,1.531c2.114.365,3.135,1.677,4.884,1.9A4.715,4.715,0,0,0,596.754,565.908Z" transform="translate(-568.25 -482.872)"/><path class="ax" d="M596.56,565.175a4.625,4.625,0,0,1-2.26.219c-1.75-.292-2.77-1.6-4.884-1.9a14.49,14.49,0,0,1-4.009-1.531c-1.531-1.9.8-1.6.8-1.6a12.567,12.567,0,0,0,4.957.146c2.333-.51,2.843-.656,3.791-.365,0,0,1.385.219,1.677,1.239A11.167,11.167,0,0,1,596.56,565.175Z" transform="translate(-568.056 -482.14)"/><path class="ax" d="M580.3,570a5.75,5.75,0,0,1-3.645-.146c-2.187-.948-2.551-1.822-5.176-2.114a5.859,5.859,0,0,1-3.28-2.041c-1.021-1.75,1.166-1.312,1.166-1.312a13.063,13.063,0,0,0,5.322.437c2.552-.437,3.062-.51,4.082-.146,0,0,1.531.292,1.75,1.385A10.686,10.686,0,0,1,580.3,570Z" transform="translate(-563.461 -483.315)"/><path class="be" d="M580.456,570.5a1.875,1.875,0,0,1-.583,1.021s-3.135.583-4.593-.948c-2.77-2.77-4.009-.875-6.2-3.572a4.33,4.33,0,0,1-.583-.8,5.627,5.627,0,0,0,3.28,2.041c2.552.292,2.989,1.166,5.176,2.114A5.319,5.319,0,0,0,580.456,570.5Z" transform="translate(-563.616 -483.821)"/><path class="cv" d="M590.393,472.4a32.523,32.523,0,0,0,.656,5.54s-2.114,3.645-5.249,1.75a33.272,33.272,0,0,0,.8-5.395Z" transform="translate(-568.304 -458.401)"/><path class="cw" d="M590.9,460.2s-3.937-4.447-8.165-.583-.948,12.174.875,11.883S590.678,471.86,590.9,460.2Z" transform="translate(-566.913 -454.508)"/><path class="cx" d="M583.3,518.966a38.885,38.885,0,0,0,2.479,8.238c1.823,3.718,3.353,6.342,3.353,6.342a20.165,20.165,0,0,0,1.166,5.978,86.11,86.11,0,0,1,1.677,9.112c1.312,1.6,3.208,0,3.208,0,.583-6.561.729-8.383-1.094-13.705-1.75-5.322-1.968-14-1.968-14a10.073,10.073,0,0,0,.365-6.634,8.741,8.741,0,0,1-3.135,3.937A7.025,7.025,0,0,1,583.3,518.966Z" transform="translate(-567.627 -469.756)"/><path class="cy" d="M578.152,537.527c-.073,1.75.656,2.624.51,4.52-.146,1.458.656,11.956.656,11.956a2.469,2.469,0,0,0,2.916.219c1.968-9.55,1.968-11.664,1.312-14.726-.51-2.333-.073-7.071,1.166-11.081a20.242,20.242,0,0,1,1.531-3.572,11.737,11.737,0,0,0,1.6-5.395,7.673,7.673,0,0,1-6.051.729,17.927,17.927,0,0,1-4.082-1.677C576.985,525.863,578.225,535.85,578.152,537.527Z" transform="translate(-566.05 -470.894)"/><path class="at" d="M575.5,524.187c5.322,2.7,10.206-1.458,10.206-1.458a29.343,29.343,0,0,1,.875-6.124,16.9,16.9,0,0,0,1.458,5.249c1.677.219,4.228-2.916,4.228-2.916,1.385-6.925-1.385-14.8-2.406-21.287s4.082-14.653,2.406-18.006a3.373,3.373,0,0,0-3.572-1.75,9.967,9.967,0,0,0-2.989.8,17.763,17.763,0,0,0-3.208,1.385,11.793,11.793,0,0,0-1.312.729c-1.677,1.094-3.572,1.75-3.645,4.009-.073.656-.51,7.436-.729,10.206-.219,2.843,0,6.853-.146,9.7-.146,3.28-.656,5.322-.8,8.529-.073,2.552-.219,5.1-.292,7.654C575.573,522.073,575.5,523.094,575.5,524.187Z" transform="translate(-565.513 -459.887)"/><path class="ax" d="M585.1,479.835c1.021-.51,2.114-.948,3.208-1.385a8.574,8.574,0,0,1,2.989-.8l-.365-.948s-4.3.365-5.613,1.75Z" transform="translate(-568.114 -459.566)"/><path class="cz" d="M591.53,459.25s2.843-4.374-5.54-3.791c0,0-.8-3.353-4.3-1.9s-1.093,8.6,4.155,6.707a2.723,2.723,0,0,0-.437,4.009s.729-1.822,1.823-1.021-.729,2.551-.729,2.551a4.715,4.715,0,0,1,0,3.208,4.439,4.439,0,0,0,3.572-1.677C592.55,464.79,594.737,459.833,591.53,459.25Z" transform="translate(-566.744 -453.196)"/><path class="da" d="M567.907,503.1s-3.572-2.26-2.843-5.176,2.187.073,2.187.073Z" transform="translate(-562.658 -464.972)"/><g transform="translate(0 26.028)"><path class="db" d="M566.4,497.693V496.6h.729Z" transform="translate(-563.047 -490.987)"/><rect class="dc" width="5.03" height="0.364" transform="translate(1.18 0.956) rotate(38.96)"/><g transform="translate(3.378 3.442)"><path class="dd" d="M573.555,496.4v1.021l-4.155,2.406v-1.021Z" transform="translate(-567.238 -494.375)"/><path class="db" d="M568.6,499.05v1.021c-1.531-.656-2.479-1.75-2.041-2.77A3.34,3.34,0,0,0,568.6,499.05Z" transform="translate(-566.439 -494.619)"/><path class="de" d="M572.751,495.647l-.583.292-3.572,2.114a3.56,3.56,0,0,1-2.041-1.75c-.365-.8.073-1.677,1.6-2.406C571,492.731,572.751,495.647,572.751,495.647Z" transform="translate(-566.434 -493.622)"/><g transform="translate(1.506 1.077)"><ellipse class="db" cx="0.656" cy="0.364" rx="0.656" ry="0.364" transform="translate(0 1.166)"/><ellipse class="df" cx="0.656" cy="0.364" rx="0.656" ry="0.364" transform="translate(0 0.948)"/><ellipse class="db" cx="0.656" cy="0.364" rx="0.656" ry="0.364" transform="translate(1.677 0.219)"/><ellipse class="df" cx="0.656" cy="0.364" rx="0.656" ry="0.364" transform="translate(1.677)"/></g></g><circle class="ca" cx="0.729" cy="0.729" r="0.729"/></g><path class="dg" d="M573.6,494.5l-1.6.729a1.9,1.9,0,0,0,1.9.51,1.387,1.387,0,0,1,.219,1.312c-.219.875,1.531,1.458,2.114.656C576.738,496.906,574.77,494.792,573.6,494.5Z" transform="translate(-564.564 -464.39)"/><path class="dh" d="M569.57,501.8s-.292-1.968-.948-2.479c-.656-.583-.365-.8,0-1.166a1.333,1.333,0,0,0,.073-1.458s-1.75,1.021-1.75,1.968a2.554,2.554,0,0,1-.146,1.166,4.22,4.22,0,0,0,1.6,3.353Z" transform="translate(-563.155 -464.986)"/><path class="ap" d="M576.7,485s-3.208-.219-2.041,7.509a69.494,69.494,0,0,0,1.385,7.144,16.69,16.69,0,0,0-6.269-1.312c-.8.073-1.6,1.458-1.385,1.822,1.312,2.479,9.55,5.9,11.008,3.791a.993.993,0,0,0,.219-.437C581.29,499.871,579.54,485,576.7,485Z" transform="translate(-563.575 -461.815)"/></g></g></svg>