<svg xmlns="http://www.w3.org/2000/svg" width="80" height="80" viewBox="0 0 80 80"><defs><style>.a{fill:#ef4a23;}</style></defs><path class="a" d="M13,9h2v2H13Z" transform="translate(2.6 -1)"/><path class="a" d="M17,9h2v2H17Z" transform="translate(3.8 -1)"/><path class="a" d="M21,9h2v2H21Z" transform="translate(5 -1)"/><path class="a" d="M81,12.9l-3.117-.778,1.653-2.756-6.9-6.9L69.883,4.116,69.1,1H59.347l-.778,3.117L55.815,2.465l-3.7,3.7H11.323V39.71H7.452A6.459,6.459,0,0,0,1,46.161V74.548A6.459,6.459,0,0,0,7.452,81H66.806a6.459,6.459,0,0,0,6.452-6.452V32.463l6.279-6.276-1.653-2.756L81,22.653ZM49.535,8.742l-.621.619,1.653,2.756-3.116.778V13.9H34.014l-2.581,2.581H13.9V8.742ZM7.452,42.29h9.032a3.889,3.889,0,0,1,3.1,1.547l2.71,3.614H56.484a3.866,3.866,0,0,1,3.634,2.581H3.581V46.161A3.876,3.876,0,0,1,7.452,42.29Zm0,36.129a3.876,3.876,0,0,1-3.871-3.871V52.613H60.355V74.548a6.426,6.426,0,0,0,1.293,3.871Zm59.355,0a3.876,3.876,0,0,1-3.871-3.871V51.323a6.459,6.459,0,0,0-6.452-6.452h-32.9l-1.935-2.582a6.483,6.483,0,0,0-5.161-2.579H13.9V19.065H32.5l2.581-2.581H47.452v6.169l3.117.778-1.653,2.756,6.9,6.9,2.754-1.653.778,3.116H69.1l.778-3.117.795.477v42.64A3.876,3.876,0,0,1,66.806,78.419ZM78.419,20.637l-2.515.628-.689.265-.6,1.47,1.672,2.786-4.049,4.05-2.785-1.672-1.574.64-.79,3.164H61.363l-.628-2.515-.262-.69L59,28.164l-2.785,1.672-4.049-4.05L53.837,23l-.649-1.574-3.156-.788V14.911l3.156-.788.649-1.574L52.165,9.763l4.049-4.05L59,7.385l1.574-.64.79-3.164h5.726L67.717,6.1l.262.69,1.474.6,2.785-1.672,4.049,4.05-1.672,2.786.649,1.574,3.156.788Z" transform="translate(-1 -1)"/><path class="a" d="M50,7a7,7,0,1,0,7,7A7.008,7.008,0,0,0,50,7Zm0,12a5,5,0,1,1,5-5A5.006,5.006,0,0,1,50,19Z" transform="translate(13.757 2.243)"/><path class="a" d="M5,35H7v2H5Z" transform="translate(-1 9.2)"/><path class="a" d="M9,35h2v2H9Z" transform="translate(-1 9.2)"/><path class="a" d="M13,35h2v2H13Z" transform="translate(2.6 9.2)"/><path class="a" d="M17.4,17.2,12.333,21,17.4,24.8l1.2-1.6L15.667,21,18.6,18.8Z" transform="translate(2.66 4.36)"/><path class="a" d="M38.4,26.8,41.333,29,38.4,31.2l1.2,1.6L44.667,29,39.6,25.2Z" transform="translate(11.079 7.007)"/><path class="a" d="M21,17H35v2H21Z" transform="translate(6.5 3.8)"/><path class="a" d="M21,21H35v2H21Z" transform="translate(6.5 5)"/><path class="a" d="M21,25H35v2H21Z" transform="translate(6.5 6.2)"/><path class="a" d="M21,29H31v2H21Z" transform="translate(5.923 7.4)"/><path class="a" d="M33,29h2v2H33Z" transform="translate(8.6 7.4)"/><path class="a" d="M28.36,46.769,33.438,51,28.36,55.231l1.28,1.538L36.562,51,29.64,45.231Z" transform="translate(8.154 17)"/><path class="a" d="M20.36,45.231,13.438,51l6.922,5.769,1.28-1.538L16.562,51l5.078-4.231Z" transform="translate(3.162 17)"/><path class="a" d="M0,0H16.492V2H0Z" transform="translate(27.766 75.753) rotate(-75.992)"/><path class="a" d="M5,51H7v2H5Z" transform="translate(-1 17)"/><path class="a" d="M5,47H7v2H5Z" transform="translate(-1 12.8)"/><path class="a" d="M5,43H7v2H5Z" transform="translate(-1 11.6)"/><path class="a" d="M43,53h2v2H43Z" transform="translate(11.6 17)"/><path class="a" d="M43,49h2v2H43Z" transform="translate(11.6 13.4)"/><path class="a" d="M43,57h2v2H43Z" transform="translate(11.6 17)"/><path class="a" d="M51,49h2v2H51Z" transform="translate(17 13.4)"/><path class="a" d="M51,57h2v2H51Z" transform="translate(17 17)"/><path class="a" d="M51,53h2v2H51Z" transform="translate(17 17)"/><path class="a" d="M50,11a3,3,0,1,0,3,3A3,3,0,0,0,50,11Zm0,4a1,1,0,1,1,1-1A1,1,0,0,1,50,15Z" transform="translate(13.786 2.214)"/></svg>