<svg xmlns="http://www.w3.org/2000/svg" width="79.765" height="74.448" viewBox="0 0 79.765 74.448"><defs><style>.a{fill:#ef4a23;}</style></defs><path class="a" d="M5.318,64.062H7.977V61.4H5.318a2.659,2.659,0,0,1-2.659-2.659V5.568A2.659,2.659,0,0,1,5.318,2.909H63.812a2.659,2.659,0,0,1,2.659,2.659V8.227H69.13V5.568A5.318,5.318,0,0,0,63.812.25H5.318A5.318,5.318,0,0,0,0,5.568V58.745A5.318,5.318,0,0,0,5.318,64.062Zm0,0" transform="translate(0 -0.25)"/><path class="a" d="M62.5,62.75h2.659v2.659H62.5Zm0,0" transform="translate(-57.182 -57.432)"/><path class="a" d="M125,62.75h2.659v2.659H125Zm0,0" transform="translate(-114.365 -57.432)"/><path class="a" d="M187.5,62.75h2.659v2.659H187.5Zm0,0" transform="translate(-171.547 -57.432)"/><path class="a" d="M125,183.745a5.318,5.318,0,0,0,5.318,5.318h58.495a5.318,5.318,0,0,0,5.318-5.318V130.568a5.318,5.318,0,0,0-5.318-5.318H130.318A5.318,5.318,0,0,0,125,130.568Zm2.659-53.177a2.659,2.659,0,0,1,2.659-2.659h58.495a2.659,2.659,0,0,1,2.659,2.659v53.177a2.659,2.659,0,0,1-2.659,2.659H130.318a2.659,2.659,0,0,1-2.659-2.659Zm0,0" transform="translate(-114.365 -114.615)"/><path class="a" d="M187.5,187.75h2.659v2.659H187.5Zm0,0" transform="translate(-171.547 -171.797)"/><path class="a" d="M250,187.75h2.659v2.659H250Zm0,0" transform="translate(-228.729 -171.797)"/><path class="a" d="M312.5,187.75h2.659v2.659H312.5Zm0,0" transform="translate(-285.912 -171.797)"/><path class="a" d="M187.5,250.25h58.495v2.659H187.5Zm0,0" transform="translate(-171.547 -228.979)"/><path class="a" d="M187.5,328.375h10.635v2.659H187.5Zm0,0" transform="translate(-171.547 -300.457)"/><path class="a" d="M187.5,390.875h7.977v2.659H187.5Zm0,0" transform="translate(-171.547 -357.639)"/><path class="a" d="M431.181,453.375a9.306,9.306,0,1,0,9.306,9.306A9.306,9.306,0,0,0,431.181,453.375Zm0,15.953a6.647,6.647,0,1,1,6.647-6.647A6.647,6.647,0,0,1,431.181,469.328Zm0,0" transform="translate(-385.981 -414.822)"/><path class="a" d="M323.792,330.033a1.329,1.329,0,0,0-1.329-1.329h-3.514a16.9,16.9,0,0,0-1.052-2.539l2.485-2.483a1.331,1.331,0,0,0,0-1.88l-5.641-5.641a1.331,1.331,0,0,0-1.88,0l-2.483,2.483a17.2,17.2,0,0,0-2.539-1.05v-3.514a1.329,1.329,0,0,0-1.329-1.329h-7.977a1.329,1.329,0,0,0-1.329,1.329v3.514a17.2,17.2,0,0,0-2.539,1.05l-2.483-2.483a1.331,1.331,0,0,0-1.88,0L284.66,321.8a1.331,1.331,0,0,0,0,1.88l2.483,2.483c-.111.218-.218.436-.319.657a17.2,17.2,0,0,0-.731,1.882h-3.514a1.329,1.329,0,0,0-1.329,1.329v7.977a1.329,1.329,0,0,0,1.329,1.329h3.514a16.9,16.9,0,0,0,1.052,2.539l-2.485,2.483a1.331,1.331,0,0,0,0,1.88l5.641,5.641a1.331,1.331,0,0,0,1.88,0l2.483-2.483a17.194,17.194,0,0,0,2.539,1.05v3.514a1.329,1.329,0,0,0,1.329,1.329h7.977a1.329,1.329,0,0,0,1.329-1.329v-3.514a17.194,17.194,0,0,0,2.539-1.05l2.483,2.483a1.331,1.331,0,0,0,1.88,0l5.641-5.641a1.331,1.331,0,0,0,0-1.88l-2.485-2.483a16.9,16.9,0,0,0,1.052-2.539h3.514a1.329,1.329,0,0,0,1.329-1.329Zm-2.659,6.647H317.95a1.329,1.329,0,0,0-1.287,1,14.536,14.536,0,0,1-1.555,3.76,1.33,1.33,0,0,0,.2,1.615l2.248,2.249-3.76,3.761-2.249-2.249a1.33,1.33,0,0,0-1.616-.2,14.521,14.521,0,0,1-3.759,1.555,1.329,1.329,0,0,0-1,1.287v3.183h-5.318V349.45a1.329,1.329,0,0,0-1-1.287,14.521,14.521,0,0,1-3.759-1.555,1.33,1.33,0,0,0-1.616.2l-2.249,2.249-3.76-3.761,2.248-2.249a1.33,1.33,0,0,0,.2-1.615,14.534,14.534,0,0,1-1.555-3.76,1.329,1.329,0,0,0-1.287-1h-3.183v-5.318h3.183a1.329,1.329,0,0,0,1.287-1,14.444,14.444,0,0,1,.864-2.436,14.683,14.683,0,0,1,.691-1.329,1.33,1.33,0,0,0-.2-1.614l-2.248-2.249,3.76-3.761,2.249,2.25a1.329,1.329,0,0,0,1.616.2,14.542,14.542,0,0,1,3.759-1.555,1.329,1.329,0,0,0,1-1.286v-3.178h5.318v3.183a1.329,1.329,0,0,0,1,1.287,14.522,14.522,0,0,1,3.759,1.555,1.33,1.33,0,0,0,1.616-.2l2.249-2.249,3.76,3.761-2.248,2.249a1.33,1.33,0,0,0-.2,1.615,14.536,14.536,0,0,1,1.555,3.76,1.329,1.329,0,0,0,1.287,1h3.183Zm0,0" transform="translate(-257.32 -286.162)"/><path class="a" d="M781.25,781.5h7.977v2.659H781.25Zm0,0" transform="translate(-714.779 -715.029)"/></svg>