<svg xmlns="http://www.w3.org/2000/svg" width="480.45" height="255.935" viewBox="0 0 480.45 255.935"><defs><style>.a{fill:#fff;}.b{fill:#54463c;}.c{fill:#8f66ff;}.d{fill:#f04923;}.e{fill:#f2722a;}.f{fill:#878787;}.g{fill:#e6c59c;}.h{fill:#f5dbbc;}.i{fill:#c29f74;}.j{fill:#c44f0c;}.k{fill:#7e7974;}.l{fill:#575756;}.m{fill:#3c3c3b;}.n{fill:#f2b211;}.o{fill:#fff7b2;}.p{fill:#d4d6df;}.q{fill:#812926;}.r{fill:#a85105;}.s{fill:#fc0;}.t{fill:#dbe9f5;}.u{fill:#d2cde8;}.v{fill:#c54f0c;}.w{fill:#b2b2b2;}.x{fill:#b08c61;}.y{fill:#ccab82;}</style></defs><g transform="translate(79.005 -269.586)"><path class="a" d="M20.058,325.315a.758.758,0,1,0-.758-.758h0A.74.74,0,0,0,20.058,325.315Z" transform="translate(8.087 4.46)"/><path class="a" d="M20.058,332.715a.758.758,0,1,0-.758-.758h0A.74.74,0,0,0,20.058,332.715Z" transform="translate(8.087 5.068)"/><path class="a" d="M20.058,340.115a.758.758,0,1,0-.758-.758h0A.74.74,0,0,0,20.058,340.115Z" transform="translate(8.087 5.677)"/><path class="a" d="M20.058,347.615a.758.758,0,1,0-.758-.758h0A.912.912,0,0,0,20.058,347.615Z" transform="translate(8.087 6.294)"/><path class="a" d="M20.058,355.015a.758.758,0,1,0-.758-.758h0A.74.74,0,0,0,20.058,355.015Z" transform="translate(8.087 6.903)"/><path class="a" d="M20.058,362.415a.758.758,0,1,0-.758-.758h0A.74.74,0,0,0,20.058,362.415Z" transform="translate(8.087 7.512)"/><g transform="translate(9.638 317.762)"><rect class="b" width="311.15" height="159.525"/><path class="a" d="M131.16,397.373h-64.5a.74.74,0,0,1-.758-.758V370.858a.74.74,0,0,1,.758-.758h64.5a.74.74,0,0,1,.758.758v25.758a.912.912,0,0,1-.758.758Zm-63.853-1.407h63.1V371.615h-63.1Z" transform="translate(2.282 -309.493)"/><path class="a" d="M94.039,411.946H66.658a.74.74,0,0,1-.758-.758V400.258a.74.74,0,0,1,.758-.758H94.039a.74.74,0,0,1,.758.758v10.931a.74.74,0,0,1-.758.758Zm-26.732-1.515H93.281v-9.524H67.307Z" transform="translate(2.282 -307.075)"/><path class="a" d="M128.339,411.946H100.958a.74.74,0,0,1-.758-.758h0V400.258a.74.74,0,0,1,.758-.758h27.381a.74.74,0,0,1,.758.758h0v10.931a.912.912,0,0,1-.758.758Zm-26.732-1.515h25.974v-9.524H101.607Z" transform="translate(5.104 -307.075)"/><path class="a" d="M130.3,396.61h-.216l-63.745-25c-.433-.108-.541-.541-.433-.974s.541-.541.974-.433h0l63.745,25a.813.813,0,0,1,.433.974,1.1,1.1,0,0,1-.758.433Z" transform="translate(2.28 -309.488)"/><path class="a" d="M66.658,397.368a.74.74,0,0,1-.758-.758.731.731,0,0,1,.433-.649l64.5-25.758a.754.754,0,0,1,.541,1.407l-64.5,25.758Z" transform="translate(2.282 -309.488)"/><path class="a" d="M93.575,411.507h-.216l-26.624-10.5a.754.754,0,1,1,.541-1.407h0L93.9,410.1a.813.813,0,0,1,.433.974,1.1,1.1,0,0,1-.758.433Z" transform="translate(2.313 -307.069)"/><path class="a" d="M66.958,411.442a.74.74,0,0,1-.758-.758.731.731,0,0,1,.433-.649L93.257,400.4a.754.754,0,1,1,.541,1.407h0l-26.624,9.632Z" transform="translate(2.307 -307.004)"/><path class="a" d="M127.809,411.441h-.216l-25.758-9.632a.754.754,0,1,1,.541-1.407l25.758,9.632a.813.813,0,0,1,.433.974,1.1,1.1,0,0,1-.758.433Z" transform="translate(5.201 -307.003)"/><path class="a" d="M101.958,410.684a.74.74,0,0,1-.758-.758.686.686,0,0,1,.541-.649L127.5,400.4a.684.684,0,0,1,.866.433.736.736,0,0,1-.433.866l-25.758,8.875A.378.378,0,0,1,101.958,410.684Z" transform="translate(5.186 -307.003)"/><path class="a" d="M30.631,358.962a10.931,10.931,0,1,1,10.931-10.931,10.9,10.9,0,0,1-10.931,10.931Zm0-20.455a9.524,9.524,0,1,0,9.524,9.524,9.538,9.538,0,0,0-9.524-9.524Z" transform="translate(-1.518 -312.208)"/><path class="a" d="M97.431,358.962a10.931,10.931,0,1,1,10.931-10.931,10.9,10.9,0,0,1-10.931,10.931Zm0-20.455a9.524,9.524,0,1,0,9.524,9.524,9.538,9.538,0,0,0-9.524-9.524Z" transform="translate(3.977 -312.208)"/><path class="a" d="M180.431,358.97a10.985,10.985,0,1,1,10.931-11.039h0A10.925,10.925,0,0,1,180.431,358.97Zm0-20.455a9.524,9.524,0,1,0,9.524,9.524,9.538,9.538,0,0,0-9.524-9.524Z" transform="translate(10.805 -312.216)"/><path class="a" d="M267.431,358.97a10.985,10.985,0,1,1,10.931-11.039h0A10.925,10.925,0,0,1,267.431,358.97Zm0-20.455a9.524,9.524,0,1,0,9.524,9.524,9.538,9.538,0,0,0-9.524-9.524Z" transform="translate(17.961 -312.216)"/><path class="a" d="M94.8,350.811v-.541l.758-.649c1.732-1.623,2.489-2.489,2.489-3.463a1.2,1.2,0,0,0-1.082-1.3h-.216a2.28,2.28,0,0,0-1.407.541l-.325-.649a2.939,2.939,0,0,1,1.84-.649,1.855,1.855,0,0,1,2.056,1.732v.216c0,1.191-.866,2.273-2.273,3.571l-.541.541h3.03v.758Z" transform="translate(4.66 -311.633)"/><path class="a" d="M29.607,344.958h0l-1.19.649-.216-.649,1.407-.758h.758v6.6H29.5Z" transform="translate(-0.819 -311.624)"/><path class="a" d="M267.439,350.7v-1.84H264.3v-.541l2.922-4.221h.974v4.113h.974v.758H268.3v1.84Zm0-2.489v-3.355h0a7.848,7.848,0,0,1-.541.974l-1.623,2.273h2.164Z" transform="translate(18.603 -311.632)"/><path class="a" d="M178.6,349.728a3.522,3.522,0,0,0,1.515.433c1.19,0,1.515-.758,1.515-1.3,0-.974-.866-1.3-1.732-1.3h-.541v-.649h.541c.649,0,1.515-.325,1.515-1.082,0-.541-.325-.974-1.19-.974a2.652,2.652,0,0,0-1.3.433l-.216-.649a3.27,3.27,0,0,1,1.732-.541c1.3,0,1.948.758,1.948,1.623a1.526,1.526,0,0,1-1.19,1.515h0a1.75,1.75,0,0,1,1.515,1.732c0,1.082-.866,1.948-2.381,1.948a3.176,3.176,0,0,1-1.732-.433Z" transform="translate(11.553 -311.632)"/><path class="a" d="M216.16,413.549h-64.5a.74.74,0,0,1-.758-.758V371.558a.74.74,0,0,1,.758-.758h64.5a.74.74,0,0,1,.758.758v41.234a.74.74,0,0,1-.758.758Zm-63.745-1.407h63.1V372.315h-63.1Z" transform="translate(9.275 -309.436)"/><path class="a" d="M203.56,379.415h-39.5a.758.758,0,1,1,0-1.515h39.5a.74.74,0,0,1,.758.758A.813.813,0,0,1,203.56,379.415Z" transform="translate(10.295 -308.852)"/><path class="a" d="M203.56,385.415h-39.5a.758.758,0,0,1,0-1.515h39.5a.758.758,0,0,1,0,1.515Z" transform="translate(10.295 -308.358)"/><path class="a" d="M203.56,391.515h-39.5a.758.758,0,1,1,0-1.515h39.5a.758.758,0,1,1,0,1.515Z" transform="translate(10.295 -307.856)"/><path class="a" d="M203.56,397.615h-39.5a.758.758,0,0,1,0-1.515h39.5a.758.758,0,0,1,0,1.515Z" transform="translate(10.295 -307.355)"/><path class="a" d="M203.56,403.715h-39.5a.758.758,0,0,1,0-1.515h39.5a.758.758,0,0,1,0,1.515Z" transform="translate(10.295 -306.853)"/><path class="a" d="M45.734,372.815H22.358a.758.758,0,1,1,0-1.515H45.734a.758.758,0,1,1,0,1.515Z" transform="translate(-1.362 -309.395)"/><path class="a" d="M45.734,380.215H22.358a.758.758,0,1,1,0-1.515H45.734a.758.758,0,1,1,0,1.515Z" transform="translate(-1.362 -308.786)"/><path class="a" d="M45.734,387.615H22.358a.758.758,0,1,1,0-1.515H45.734a.758.758,0,1,1,0,1.515Z" transform="translate(-1.362 -308.177)"/><path class="a" d="M45.734,395.015H22.358a.758.758,0,0,1,0-1.515H45.734a.758.758,0,0,1,0,1.515Z" transform="translate(-1.362 -307.568)"/><path class="a" d="M45.734,402.515H22.358a.758.758,0,0,1,0-1.515H45.734a.758.758,0,0,1,0,1.515Z" transform="translate(-1.362 -306.951)"/><path class="a" d="M45.734,409.915H22.358a.758.758,0,0,1,0-1.515H45.734a.758.758,0,0,1,0,1.515Z" transform="translate(-1.362 -306.343)"/><path class="a" d="M275.389,416.569H259.7a3.88,3.88,0,0,1-3.9-3.9V372.2a3.88,3.88,0,0,1,3.9-3.9h1.948a.74.74,0,0,1,.758.758v.325a.658.658,0,0,0,.433.974c.108,0,.216.108.325.108h8.983a.74.74,0,0,0,.758-.758.4.4,0,0,0-.108-.325.8.8,0,0,1,.433-.974c.108,0,.216-.108.325-.108h2.056a3.88,3.88,0,0,1,3.9,3.9v40.477A4.22,4.22,0,0,1,275.389,416.569Zm-15.8-46.862A2.449,2.449,0,0,0,257.1,372.2v40.477a2.449,2.449,0,0,0,2.489,2.489h15.693a2.449,2.449,0,0,0,2.489-2.489V372.2a2.449,2.449,0,0,0-2.489-2.489h-1.19a2.248,2.248,0,0,1-2.273,2.056h-8.983a2.248,2.248,0,0,1-2.273-2.056Z" transform="translate(17.904 -309.641)"/><path class="a" d="M246.712,391.937H226.258a.758.758,0,1,1,0-1.515h18.723L240.76,386.2a.765.765,0,0,1,1.082-1.082h0l5.52,5.52a.723.723,0,0,1,0,1.082,1.539,1.539,0,0,1-.649.216Z" transform="translate(15.411 -308.278)"/><path class="a" d="M240.458,396.6a.74.74,0,0,1-.758-.758.827.827,0,0,1,.216-.541L245,390.219a.765.765,0,0,1,1.082,1.082L241,396.387a.6.6,0,0,1-.541.216Z" transform="translate(16.58 -307.858)"/><path class="c" d="M280.31,450.363H256.392a83.787,83.787,0,0,1,0-28.463H280.31a50.92,50.92,0,0,0,0,28.463Z" transform="translate(17.853 -305.232)"/><path class="d" d="M155.8,445.863h23.918a83.786,83.786,0,0,0,0-28.464H155.8A50.92,50.92,0,0,1,155.8,445.863Z" transform="translate(9.678 -305.602)"/><path class="d" d="M189.4,453.263h23.918a83.785,83.785,0,0,0,0-28.463H189.4A50.921,50.921,0,0,1,189.4,453.263Z" transform="translate(12.442 -304.994)"/><path class="a" d="M175.535,425.115h-14.5c-.216,0-.433-.325-.433-.758s.216-.758.433-.758h14.5c.216,0,.433.325.433.758S175.86,425.115,175.535,425.115Z" transform="translate(10.073 -305.092)"/><path class="a" d="M175.535,431.415h-14.5c-.216,0-.433-.325-.433-.758s.216-.758.433-.758h14.5c.216,0,.433.325.433.758S175.86,431.415,175.535,431.415Z" transform="translate(10.073 -304.574)"/><path class="a" d="M209.135,435.415h-14.5c-.216,0-.433-.325-.433-.758s.216-.758.433-.758h14.5c.216,0,.433.325.433.758S209.352,435.415,209.135,435.415Z" transform="translate(12.837 -304.245)"/><path class="a" d="M209.135,441.715h-14.5c-.216,0-.433-.325-.433-.758s.216-.758.433-.758h14.5c.216,0,.433.325.433.758S209.352,441.715,209.135,441.715Z" transform="translate(12.837 -303.727)"/><path class="a" d="M274.643,429.115H260.033c-.216,0-.433-.325-.433-.758s.216-.758.433-.758h14.5c.216,0,.433.325.433.758S274.86,429.115,274.643,429.115Z" transform="translate(18.217 -304.763)"/><path class="a" d="M274.643,435.415H260.033c-.216,0-.433-.325-.433-.758s.216-.758.433-.758h14.5c.216,0,.433.325.433.758S274.86,435.415,274.643,435.415Z" transform="translate(18.217 -304.245)"/><path class="a" d="M175.535,437.715h-14.5c-.216,0-.433-.325-.433-.758s.216-.758.433-.758h14.5c.216,0,.433.325.433.758S175.86,437.715,175.535,437.715Z" transform="translate(10.073 -304.056)"/><path class="d" d="M44.8,446.463H68.718a83.785,83.785,0,0,0,0-28.464H44.8A50.92,50.92,0,0,1,44.8,446.463Z" transform="translate(0.547 -305.553)"/><path class="a" d="M64.535,425.715h-14.5c-.216,0-.433-.325-.433-.758s.216-.758.433-.758h14.5c.216,0,.433.325.433.758S64.752,425.715,64.535,425.715Z" transform="translate(0.942 -305.043)"/><path class="a" d="M64.535,432.015h-14.5c-.216,0-.433-.325-.433-.758s.216-.758.433-.758h14.5c.216,0,.433.325.433.758S64.752,432.015,64.535,432.015Z" transform="translate(0.942 -304.525)"/><path class="a" d="M64.535,438.215h-14.5c-.216,0-.433-.325-.433-.758s.216-.758.433-.758h14.5c.216,0,.433.325.433.758S64.752,438.215,64.535,438.215Z" transform="translate(0.942 -304.015)"/></g><g transform="translate(288.48 366.077)"><path class="e" d="M284.6,390.818l.216,6.71c3.03.758,11.364,1.3,16.342,1.623,4.113.216,24.026,2.489,32.468-.649,4.762-8.55,2.056-5.087-.758-9.74-2.814-4.546-2.165-4.546-7.9-4.762-5.952.974-16.017,5.52-22.511,5.411C290.985,389.195,288.171,388.654,284.6,390.818Z" transform="translate(-258.569 -356.665)"/><g transform="translate(58.941 24.761)"><path class="f" d="M334.372,383.546c-.866-4.221-15.585-.541-19.048,2.165-2.273,1.732,8.333,3.788,12.987,3.03C332.857,387.875,334.7,385.386,334.372,383.546Z" transform="translate(-315.009 -381.621)"/><path class="g" d="M333.205,383.33c-.758-3.788-13.745-.433-16.883,1.948-2.056,1.515,7.359,3.355,11.364,2.706C331.8,387.226,333.53,384.953,333.205,383.33Z" transform="translate(-314.925 -381.621)"/><path class="h" d="M332.429,383.1c-.649-3.03-10.931-.325-13.312,1.515-1.623,1.191,5.844,2.706,9.091,2.056C331.347,386.134,332.754,384.294,332.429,383.1Z" transform="translate(-314.69 -381.612)"/></g><path class="g" d="M343.811,371.892l18.94,16.667c2.273,1.948,3.68,5.736,3.139,8.225l-9.524,45.239a2.752,2.752,0,0,1-1.407,2.056L347.491,447l-.649-6.6.649-.758L332.447,426.33c-2.273-1.948-3.68-5.736-3.139-8.225l9.416-45.13C339.266,370.377,341.538,369.944,343.811,371.892Z" transform="translate(-254.901 -357.761)"/><path class="h" d="M343.719,372.787l17.749,15.693a9.842,9.842,0,0,1,2.922,5.52,9.42,9.42,0,0,1-3.247,1.732l-2.922.974a10.093,10.093,0,0,0-3.139-5.736L338.2,376.575l.541-2.814C339.39,371.38,341.555,370.947,343.719,372.787Z" transform="translate(-254.16 -357.681)"/><path class="i" d="M337.111,374.492l18.94,16.667c2.273,1.948,3.68,5.736,3.139,8.225l-9.524,45.239c-.541,2.6-2.814,3.03-5.087.974l-18.831-16.559c-2.273-1.948-3.68-5.736-3.139-8.225l9.524-45.239C332.566,372.977,334.838,372.544,337.111,374.492Z" transform="translate(-255.452 -357.547)"/><path class="j" d="M309.7,394.113c-4.978-2.706-5.844,3.571-20.238.325A4.782,4.782,0,0,1,285.674,390l-.974,7.035c3.03.758,21.753,3.788,26.84,4,4.87.325,23.81-2.814,27.814-4.113C330.7,381.991,319.224,398.117,309.7,394.113Z" transform="translate(-258.561 -356.171)"/><path class="g" d="M295.37,469.524c-1.732,3.03-2.489,5.844-6.061,8.442A66.572,66.572,0,0,1,276,476.126h0c-8.009-1.623-16.017-5.628-14.178-11.256.649-1.3,2.922-1.948,4.437-1.948,4.546,0,9.2,2.814,13.312,0A15.744,15.744,0,0,0,282.708,460Z" transform="translate(-260.465 -350.413)"/><path class="k" d="M291.34,475.9c-4,1.623-5.195-.433-7.468-.758-7.251-.758-10.931,1.3-17.966-3.463-2.814-1.948-4.87-5.628-3.9-7.576l-1.3,1.84c-.758,1.732,1.19,5.628,4,7.468,4.437,2.814,9.091,3.463,15.585,4.329,4.762.649,7.684,2.056,9.524,1.407C291.34,478.494,290.8,476.979,291.34,475.9Z" transform="translate(-260.548 -350.076)"/><path class="g" d="M321.775,494.269c-.974,3.355-.974,6.277-3.9,9.74a65.267,65.267,0,0,1-13.42,1.515h0c-8.117.433-16.883-1.515-16.559-7.468.325-1.407,2.381-2.6,3.788-3.03,4.437-1.082,9.524.433,12.879-3.355a16.8,16.8,0,0,0,2.273-3.571Z" transform="translate(-258.299 -348.102)"/><path class="h" d="M293.816,495.556c6.6-1.623,7.792,1.623,11.688-2.056,2.381,3.355,9.74,5.3,14.178,3.139h0c-1.19,6.061-3.9,3.247-8.658,3.68-4.546.541-13.2,3.247-17.749.866C289.487,499.344,290.894,496.206,293.816,495.556Z" transform="translate(-258.045 -347.657)"/><path class="k" d="M319.552,501.1c-3.463,2.6-5.087.866-7.468,1.19-7.143,1.082-10.173,4-18.182,1.191-3.247-1.191-6.169-4.329-5.736-6.385l-.866,2.056c-.216,1.84,2.489,5.195,5.736,6.277,8.875,2.922,24.026.433,25.65-.649C320.2,503.7,319.228,502.295,319.552,501.1Z" transform="translate(-258.348 -347.361)"/><path class="e" d="M357.926,397.851s-3.355,6.169-4.654,9.524c-1.84,3.9-1.732,12.121-4.762,17.424-2.273,4.113-1.407,6.061-2.489,6.6-9.632,8.983-25.433,1.515-29.654-15.585-1.948-3.355-.974-11.364,6.169-23.052a24.609,24.609,0,0,1,2.381-3.463c3.139-3.139,7.9-4.978,15.909-3.355C352.947,386.487,358.142,397.742,357.926,397.851Z" transform="translate(-256.028 -356.554)"/><path class="j" d="M327.386,423.9s-29.762,2.814-37.987,17.424c-5.411,9.416-7.035,13.961-7.576,20.888-2.273,6.926,8.983,12.987,12.879,8.333,6.71-14.611,18.507-23.81,29.438-23.81-5.52,13.312-16.234,39.611-15.693,44.914-2.381,4.654,9.74,14.394,14.827,5.087,2.056-.108,2.922-13.2,7.684-25.541,1.732-4.546,10.5-15.8,12.446-19.481,7.035-12.338,3.03-15.476,4.329-17.749-5.3,1.948-24.134-.758-18.615-8.225Z" transform="translate(-258.823 -353.383)"/><path class="e" d="M326.315,422s-28.68,4.87-36.905,19.481c-5.411,9.416-7.035,13.961-7.576,20.888-2.165,5.736,4,10.281,9.416,10.065-9.416-3.788,8.117-13.312,2.814-18.4-2.706-2.706-4.978-6.061-4.329-7.468,5.844-12.771,31.169-9.2,36.689-21.212a9.323,9.323,0,0,0,0-3.03Z" transform="translate(-258.834 -353.539)"/><path class="e" d="M322.024,446.711a68.916,68.916,0,0,0-13.42,18.831c-2.165,4.654-2.6,23.269-2.381,26.082-1.732,3.247,4.113,10.281,12.662,8.55-.541-.649-4.546-1.082-5.195-2.273-4.654-7.9,6.061-21,5.411-23.377-1.082-3.463-4.762-3.247-3.68-6.494,3.139-9.632,15.693-21.212,22.511-28.247-1.082-1.191-8.658,3.9-12.338-1.082-.758-.974-1.948-8.875-2.6-14.5C318.886,425.715,321.375,444.222,322.024,446.711Z" transform="translate(-256.816 -353.358)"/><path class="g" d="M348.568,425.081c-3.9,2.056-6.385,2.273-8.333.866-3.9-2.922-3.355-14.719-11.472-21.1-7.251-5.736-12.771,4.113-12.663,1.082.649-9.2,8.766-20.455,17.966-23.7,5.411-1.948,16.342,5.952,20.13,9.2,2.706,2.381,4.437,3.463,4.221,8.117C357.984,407.548,354.629,415.881,348.568,425.081Z" transform="translate(-255.978 -356.836)"/><path class="h" d="M354.177,392.393c-7.143,1.515-9.524,7.035-12.338,15.152-2.381,7.143-8.766.108-12.013-3.463-3.139-3.355-7.576-2.165-8.225-6.061-.541-3.463,11.147-5.3,17.857-5.087C344.978,393.259,347.251,386.224,354.177,392.393Z" transform="translate(-255.527 -356.184)"/><path class="l" d="M304.821,489.211a12.6,12.6,0,0,1,1.623-2.706c-2.056,6.277,12.013,11.8,14.935,4.762a13.87,13.87,0,0,1-1.082,4.546C316.185,500.791,302.44,495.055,304.821,489.211Z" transform="translate(-256.929 -348.239)"/><path class="l" d="M333.921,385.3c-3.247,2.273-3.139,3.68-4.221,6.385,2.922,2.164,4.437,3.355,7.359,5.628,5.411-2.706,5.087-1.732,11.147-3.9C342.687,390.495,339.873,387.573,333.921,385.3Z" transform="translate(-254.859 -356.558)"/><path class="m" d="M331.215,387.5a41.025,41.025,0,0,0-1.515,4.113l1.082.866,1.082-3.247Z" transform="translate(-254.859 -356.377)"/><path class="l" d="M316.258,412.9c3.03,14.069,18.723,23.377,29.87,16.342-.541,2.056-.866,4-1.3,5.628-9.524,6.385-29.113-3.247-29.329-15.043C315.825,417.445,316.041,415.064,316.258,412.9Z" transform="translate(-256.027 -354.288)"/><g transform="translate(8.39 34.351)"><path class="m" d="M285.941,395.047c.866-.866.866-4.87-.866-4.546-1.515,0-7.576,0-8.009.216a9.165,9.165,0,0,0-1.84.433,3.178,3.178,0,0,0-1.948,1.407c-.541.649-2.273,2.489-2.706,3.139a24.213,24.213,0,0,0-2.273,3.9.784.784,0,0,0,.866.216c-.108.433-.649,1.191-.108,1.515a1.492,1.492,0,0,0,1.623-.325l-.325.433c.325.866,1.84.325,2.381,0,.433-.325,1.407-1.732,1.948-2.056,1.082-.758,3.68-2.706,1.191-.649-1.082.974-2.273,2.381-1.515,2.6,1.515.541,1.84-.866,3.03-1.732.974-.649,3.139-2.164,4.546-2.273C284.75,396.887,284.75,396.237,285.941,395.047Z" transform="translate(-268.3 -390.483)"/><path class="l" d="M281.664,394.837c-1.082.758-2.814-.108-4-.325-1.407-.325-2.6,1.515-4.437.758-1.732-.758,4.654-3.139,5.52-3.355.758-.216,3.247-.433,3.788.433C283.179,393.755,282.314,394.079,281.664,394.837Z" transform="translate(-267.919 -390.381)"/></g><path class="l" d="M285.972,389.6a21.709,21.709,0,0,0,.649,8.225c-1.84-.216-2.922-.433-2.922-.433-1.623-3.463-1.84-6.818,0-7.684A19.323,19.323,0,0,0,285.972,389.6Z" transform="translate(-258.75 -356.204)"/><path class="l" d="M280.156,460.671c.325-.541,2.6-2.706,2.273-2.165-3.463,5.52,8.658,14.394,13.312,8.333a16.976,16.976,0,0,1-2.165,4.113C288.165,474.74,276.368,465.758,280.156,460.671Z" transform="translate(-258.995 -350.543)"/><path class="l" d="M340.549,434.158c-6.494,3.68-12.338,8.442-17.749,12.771,3.139-4.113,5.844-9.2,12.662-13.528C336.978,433.508,339.034,433.941,340.549,434.158Z" transform="translate(-255.427 -352.601)"/><path class="l" d="M318.827,426.158c-.325,6.71,1.191,14.069,4.546,21.645-5.087-7.792-8.009-12.554-7.468-26.191C316.446,420.313,318.178,427.456,318.827,426.158Z" transform="translate(-255.999 -353.584)"/><path class="m" d="M342.673,381.7c-5.52.108-10.065,3.139-10.173,6.926,0,3.571,4.546,6.494,10.173,6.385,5.52-.108,10.065-3.139,10.173-6.926C352.846,384.406,348.3,381.592,342.673,381.7Z" transform="translate(-254.629 -356.854)"/><path class="l" d="M342.591,381.7c-3.788.108-7.035,1.515-8.766,3.571a5.5,5.5,0,0,0-.325,1.84c0,3.571,4.546,6.494,10.173,6.385,3.788-.108,7.035-1.515,8.766-3.571a5.5,5.5,0,0,0,.325-1.84C352.764,384.406,348.219,381.592,342.591,381.7Z" transform="translate(-254.547 -356.854)"/><path class="e" d="M359.662,370.493c1.515,5.195-1.407,14.61-3.788,18.182-7.143,4.545-17.316,9.091-25.433,2.056-6.6-5.844-6.169-22.619,2.922-29.329C341.913,355.233,356.849,360.428,359.662,370.493Z" transform="translate(-255.168 -358.743)"/><path class="j" d="M357.572,382.7a29.648,29.648,0,0,1-1.948,4.113c-7.143,4.545-17.316,9.091-25.433,2.056a12.337,12.337,0,0,1-1.19-1.19c4-.541,10.281-.758,12.338-1.732,0-.108,1.3.866,1.84.758C344.043,386.6,352.485,387.787,357.572,382.7Z" transform="translate(-254.917 -356.772)"/><path class="n" d="M352.818,363.931c5.3,4.654,7.143,11.039,4.329,14.286-2.922,3.247-9.524,2.165-14.719-2.489-5.3-4.654-7.143-11.039-4.329-14.286C341.022,358.2,347.624,359.277,352.818,363.931Z" transform="translate(-254.276 -358.674)"/><path class="o" d="M347.39,361.382c2.489,1.515,3.68,4,2.814,5.52s-3.68,1.623-6.169.108-3.68-4-2.814-5.52S344.9,359.867,347.39,361.382Z" transform="translate(-253.935 -358.615)"/><path class="p" d="M346.571,387.928c1.84-.216,3.788-.541,5.628-.758.974-2.489,1.948-5.087,3.03-7.576-4.978-15.909-15.585-19.481-22.186-18.074-8.766,6.818-9.2,23.269-2.706,29.113A13.17,13.17,0,0,0,333.8,392.8C337.7,393.989,342.133,393.232,346.571,387.928Z" transform="translate(-255.171 -358.537)"/><path class="q" d="M346.237,387.354c1.84-.325,3.463-.541,5.3-.758l2.922-7.143c-4.654-9.307-13.42-17.1-23.052-16.45-6.277,6.71-6.926,19.048-2.706,25.433C332.925,392.44,338.661,394.388,346.237,387.354Z" transform="translate(-255.162 -358.395)"/><path class="e" d="M329.1,367.163c1.191,2.273,7.9-.974,8.009,2.489.108,3.355,2.273,1.082,3.68,2.6,1.732,1.948,4.654.433,5.195,1.515.649,1.3.216,3.68,1.732,4.546a19.752,19.752,0,0,0,4.329.541c1.515-.433-3.355-5.844-4-6.6a23.491,23.491,0,0,0-17.1-8.55A17.923,17.923,0,0,0,329.1,367.163Z" transform="translate(-254.909 -358.335)"/><path class="r" d="M351.17,384.549c-5.844-4.113-19.914,2.164-24.459-9.849-.866,6.926,2.165,14.935,8.658,15.585a15.592,15.592,0,0,0,9.307-4.546A43.871,43.871,0,0,0,351.17,384.549Z" transform="translate(-255.117 -357.43)"/><path class="s" d="M339.8,369.029c0,2.056,1.732,1.082,2.814,2.273,1.3,1.515,2.814,1.515,3.355,2.273.433.866.108,2.273,1.3,3.03a17.629,17.629,0,0,0,3.355,1.191c1.191,0-2.489-4.113-3.03-4.762a27.359,27.359,0,0,0-13.1-8.333C336.881,367.081,339.8,366,339.8,369.029Z" transform="translate(-254.465 -358.253)"/><path class="j" d="M347.253,426.432c-2.273.974-4.654,2.814-6.818,1.082-4.654-4-3.355-14.719-11.472-21.1-7.251-5.736-12.771,4.113-12.662,1.082a33.709,33.709,0,0,1,.866-5.3c2.381-2.056,5.628-2.381,8.333-2.489l9.416,7.468A53.9,53.9,0,0,1,341.95,423.4c1.515,2.381,3.572,2.165,6.6.216A8.211,8.211,0,0,0,347.253,426.432Z" transform="translate(-255.962 -355.373)"/><path class="l" d="M337.282,421.1c.866.216,1.84.325,2.6.541-2.381,5.844-2.6,8.442-2.165,10.281-.866-.216-1.84-.325-2.6-.541C334.576,429.866,334.9,427.052,337.282,421.1Z" transform="translate(-254.432 -353.613)"/><path class="l" d="M316.789,403.068c.866.216,1.19-1.082,2.165-.866a30.92,30.92,0,0,0-1.623,14.935c-.974,0-.433-.649-.649-1.84A17.17,17.17,0,0,1,316.789,403.068Z" transform="translate(-256.018 -355.17)"/><path class="k" d="M348.351,424.273c-2.922,1.3-5.411,2.922-8.117.541-4.654-4-3.355-14.719-11.472-21.1-7.251-5.736-12.771,4.113-12.663,1.082a33.72,33.72,0,0,1,.866-5.3c2.381-2.056,5.628-2.381,8.333-2.489l9.416,7.468A53.9,53.9,0,0,1,341.75,420.7c2.165,3.139,4.978,1.732,9.849-2.381A53.8,53.8,0,0,1,348.351,424.273Z" transform="translate(-255.978 -355.596)"/><path class="j" d="M341.72,386.071A14.274,14.274,0,0,1,328.3,382.5C330.032,389.859,338.149,389.535,341.72,386.071Z" transform="translate(-254.975 -356.788)"/><path class="m" d="M345.7,430.534c-.325,1.515-.649,2.922-.866,4.113-9.524,6.385-29.113-3.247-29.329-15.043.216-1.84.433-3.571.541-5.3C319.4,428.261,334.764,437.244,345.7,430.534Z" transform="translate(-256.027 -354.172)"/><g transform="translate(94.526 17.946)"><path class="j" d="M359.157,375.406l-9.957,3.355,1.515,4.546,9.957-3.355a1.815,1.815,0,0,0,.974-1.948,2.923,2.923,0,0,0-1.84-2.6C359.806,375.3,359.481,375.3,359.157,375.406Z" transform="translate(-347.781 -375.325)"/><path class="t" d="M359.157,375.4h0l-9.957,3.355,1.19,3.68L361,378.864a3.737,3.737,0,0,0-.325-1.407c-.433-1.3-1.082-2.165-1.515-2.056Z" transform="translate(-347.781 -375.319)"/><path class="e" d="M359.265,375.406,349.2,378.761l1.19,3.68,11.255-3.788c.108-.216,0-.433,0-.649a2.923,2.923,0,0,0-1.84-2.6C359.806,375.3,359.481,375.3,359.265,375.406Z" transform="translate(-347.781 -375.325)"/><path class="n" d="M349.2,378.755l.758,2.273,11.58-3.9c-.325-.866-.974-1.732-1.732-1.732h-.649Z" transform="translate(-347.781 -375.319)"/><path class="l" d="M348.2,380.451c-.108-1.3.541-2.165,1.623-1.948.974.108,1.732,1.407,1.84,2.6.108,1.3-.541,2.164-1.623,1.948A2.923,2.923,0,0,1,348.2,380.451Z" transform="translate(-347.864 -375.066)"/><path class="e" d="M349,379.008l.758-.108a2.462,2.462,0,0,1,1.407,3.03l-.541.649a2.081,2.081,0,0,0,.325-1.3C350.732,380.307,349.866,379.116,349,379.008Z" transform="translate(-347.798 -375.031)"/><path class="l" d="M347.9,380.726c-.108-1.082.541-1.84,1.3-1.623a2.224,2.224,0,0,1,1.515,2.273c.108,1.082-.541,1.84-1.3,1.623A2.608,2.608,0,0,1,347.9,380.726Z" transform="translate(-347.889 -375.017)"/><path class="u" d="M348.2,380.708c0-.866.433-1.515,1.082-1.407a1.7,1.7,0,0,1,1.19,1.732c0,.866-.433,1.515-1.082,1.407C348.849,382.439,348.2,381.574,348.2,380.708Z" transform="translate(-347.863 -374.999)"/></g><g transform="translate(70.512 38.833)"><path class="j" d="M328.822,395.772a3.48,3.48,0,0,1-1.623,2.273c-.758.433-1.3,0-1.3-.758a3.48,3.48,0,0,1,1.623-2.273C328.389,394.582,328.93,394.906,328.822,395.772Z" transform="translate(-325.684 -394.607)"/><path class="e" d="M328.622,395.572A3.48,3.48,0,0,1,327,397.845c-.758.433-1.3,0-1.3-.758a3.48,3.48,0,0,1,1.623-2.273C328.081,394.382,328.73,394.706,328.622,395.572Z" transform="translate(-325.7 -394.624)"/><path class="k" d="M328.048,395.746a2.042,2.042,0,0,1-1.082,1.407c-.541.216-.866,0-.866-.541a2.042,2.042,0,0,1,1.082-1.407C327.723,394.989,328.156,395.313,328.048,395.746Z" transform="translate(-325.667 -394.581)"/></g><path class="o" d="M348.9,380.333c0-.325.108-.433.325-.433a.731.731,0,0,1,.433.649c0,.325-.108.433-.325.433A.731.731,0,0,1,348.9,380.333Z" transform="translate(-253.28 -357.002)"/><g transform="translate(72.784 40.564)"><path class="j" d="M331.022,397.372a3.48,3.48,0,0,1-1.623,2.273c-.758.433-1.3,0-1.3-.758a3.48,3.48,0,0,1,1.623-2.273C330.481,396.182,331.022,396.506,331.022,397.372Z" transform="translate(-327.775 -396.207)"/><path class="e" d="M330.722,397.172a3.48,3.48,0,0,1-1.623,2.273c-.758.433-1.3,0-1.3-.758a3.48,3.48,0,0,1,1.623-2.273C330.181,395.982,330.83,396.306,330.722,397.172Z" transform="translate(-327.8 -396.224)"/><path class="k" d="M330.148,397.452a2.042,2.042,0,0,1-1.082,1.407c-.541.216-.866,0-.866-.541a2.043,2.043,0,0,1,1.082-1.407C329.823,396.587,330.148,396.8,330.148,397.452Z" transform="translate(-327.767 -396.179)"/></g><g transform="translate(74.949 42.296)"><path class="j" d="M333.022,398.972a3.48,3.48,0,0,1-1.623,2.273c-.866.433-1.3,0-1.3-.758a3.48,3.48,0,0,1,1.623-2.273C332.481,397.782,333.13,398.106,333.022,398.972Z" transform="translate(-329.775 -397.807)"/><path class="e" d="M332.722,398.772a3.48,3.48,0,0,1-1.623,2.273c-.866.433-1.3,0-1.3-.758a3.48,3.48,0,0,1,1.623-2.273C332.289,397.582,332.939,397.906,332.722,398.772Z" transform="translate(-329.8 -397.824)"/><path class="k" d="M332.148,398.947a2.043,2.043,0,0,1-1.082,1.407c-.541.216-.866,0-.866-.541a2.042,2.042,0,0,1,1.082-1.407C331.932,398.19,332.365,398.406,332.148,398.947Z" transform="translate(-329.767 -397.783)"/></g><g transform="translate(77.33 43.938)"><path class="j" d="M335.122,400.572a3.48,3.48,0,0,1-1.623,2.273c-.758.433-1.3,0-1.3-.758a3.48,3.48,0,0,1,1.623-2.273C334.581,399.382,335.23,399.706,335.122,400.572Z" transform="translate(-331.984 -399.318)"/><path class="e" d="M334.922,400.271a3.48,3.48,0,0,1-1.623,2.273c-.758.433-1.3,0-1.3-.758a3.48,3.48,0,0,1,1.623-2.273C334.381,399.08,334.922,399.513,334.922,400.271Z" transform="translate(-332 -399.341)"/><path class="k" d="M334.348,400.547a2.042,2.042,0,0,1-1.082,1.407c-.541.216-.866,0-.866-.541a2.042,2.042,0,0,1,1.082-1.407C334.023,399.79,334.348,400.006,334.348,400.547Z" transform="translate(-331.967 -399.293)"/></g><path class="h" d="M267.667,464.4c6.926.108,7.143,3.463,11.8.974,1.515,3.788,8.225,7.576,12.879,6.494h0c-2.706,5.52-4.546,2.056-9.307,1.407-4.546-.649-13.528-.108-17.316-3.571C262.581,467,264.637,464.4,267.667,464.4Z" transform="translate(-260.251 -350.051)"/><path class="j" d="M322.833,403c-1.407,2.489-2.165,4.654-1.515,6.169,3.463,4.87,7.359,7.035,11.256,9.849C328.136,414.58,324.132,409.818,322.833,403Z" transform="translate(-255.568 -355.102)"/><path class="j" d="M321.6,409.7c-1.19,2.6-1.732,4.87-.866,6.277,3.9,4.546,8.009,6.385,12.121,8.766C327.983,420.739,323.438,416.41,321.6,409.7Z" transform="translate(-255.632 -354.551)"/><path class="j" d="M320.773,416.4c-.974,2.381-1.3,4.329-.541,5.52,3.571,3.9,7.359,5.195,11.039,7.143C326.942,425.816,322.829,422.244,320.773,416.4Z" transform="translate(-255.673 -354)"/><path class="l" d="M321.354,424.829c2.273,2.706,5.952,4.978,11.039,6.926,1.19.541-.108,4.654-.433,5.411-.541,1.082-1.3,1.082-2.165,1.732-6.385-3.463-11.147-6.061-12.446-8.117a3.776,3.776,0,0,1-.649-1.948l.325-2.922C317.025,424.937,320.488,423.855,321.354,424.829Z" transform="translate(-255.929 -353.338)"/><path class="m" d="M318.64,425.93l9.957,6.926A3.5,3.5,0,0,1,330,435.345l-.108,2.814a.731.731,0,0,1-.433.649c-5.411-3.03-10.281-6.169-12.121-8.225a3.589,3.589,0,0,1-.541-1.623l.216-2.814C317.016,425.5,317.882,425.28,318.64,425.93Z" transform="translate(-255.921 -353.248)"/><path class="e" d="M342.762,397.49c.758.866.541,2.056-.649,2.814-.216.108-.325.216-.541.325l-.216-.325c.108-.108.216-.108.433-.216a1.915,1.915,0,0,0,.866-1.84l-1.623,1.191-.216-.433.974-.649-.974.541-.216-.325a20.18,20.18,0,0,0,2.165-1.082Zm-2.706.108.325-.216-.325.216-.216-.433.649-.433c-.216,0-.649-.108-.866,0l-.216-.325a4.179,4.179,0,0,1,2.273.325l-1.407,1.407Zm1.515,3.03a4.507,4.507,0,0,1-2.706.216h0c-.216-.108-.433-.108-.541-.216l.325-.216.758-.541.649-.433.649-.433.216.433-1.623,1.19a3.333,3.333,0,0,0,2.056-.325l.216.325Zm-.866-1.732-1.623.866h0l-1.407.758a1085.739,1085.739,0,0,0-.216-.216l.216-.325h0l2.381-2.381.216.433-1.623,1.623,1.948-.974.108.216Zm-.649-1.3-.216-.433-2.6,1.84c-.216-.649.108-1.3.866-1.84a2.586,2.586,0,0,1,1.515-.541l-.216-.325a4.782,4.782,0,0,0-1.732.649,1.916,1.916,0,0,0-.866,2.273h0c.108.108.108.216.216.433l.325-.216.866-.649.649-.433Z" transform="translate(-254.285 -355.653)"/><g transform="translate(89.274 38.101)"><g transform="translate(0.475 51.941)"><path class="l" d="M350.537,449.389c-.108,1.407-1.407,1.84-2.6,2.706-1.407.974-1.623,3.9-3.68,4.978-1.082.541-.974-1.19-.108-2.814s.541-3.138,1.3-4.329c.433-.758,2.165-3.139,3.247-3.03C350.753,447.333,350.32,448.307,350.537,449.389Z" transform="translate(-343.475 -441.534)"/><path class="m" d="M356.4,444.169c-.433-1.407-4.654-3.355-5.195-1.407-.866,1.515-5.087,6.385-5.3,6.818-.216.758.325,2.381.216,3.247a3.6,3.6,0,0,0,.325,2.6c.325.866,1.19,3.463,1.623,4.329.866,1.3,2.165,4.437,2.706,4.221.325-.108.866-.433.866-.866.325.433.541,1.407,1.3,1.082a1.607,1.607,0,0,0,.541-1.84l.325.541c.974.325,1.3-1.407,1.19-2.164-.108-.649-.758-2.489-.866-3.139-.216-1.515-.758-4.978,0-1.515.325,1.515,1.19,3.68,1.84,2.922.974-1.191,0-2.381-.108-4-.108-1.407-.216-4.113.325-5.52C357.592,446.442,356.943,446.117,356.4,444.169Z" transform="translate(-343.279 -441.941)"/></g><path class="l" d="M348.04,448.3a18.16,18.16,0,0,0-1.84,4.654c.433,1.082,1.3,1.84,2.6,1.3a1.688,1.688,0,0,0,2.381,0,1.732,1.732,0,0,0,2.273-.541,2.261,2.261,0,0,0,1.407-.866c.433-1.19.216-2.273.433-3.788C352.585,449.058,349.23,449.49,348.04,448.3Z" transform="translate(-342.776 -389.477)"/><path class="j" d="M364.859,427.338c.433,8.55-7.468,23.377-7.468,23.377l-8.225-2.489c1.3-5.844,5.628-25.866-2.706-31.818-9.416-11.8,3.355-24.026,5.411-22.295a18.115,18.115,0,0,1,4.437,3.68C359.988,402.879,363.993,412.619,364.859,427.338Z" transform="translate(-343.037 -393.948)"/><path class="e" d="M364.854,427.258c.433,8.55-7.468,23.377-7.468,23.377l-5.087-1.515a25.49,25.49,0,0,1,1.3-3.68c1.732-4.221,3.355-13.42,2.056-18.29-1.407-5.628-12.663-16.126-12.554-21v-.541h0c.866-7.251,8.875-11.688,10.39-10.5a7.755,7.755,0,0,1,2.706,2.706C359.983,402.8,363.988,412.539,364.854,427.258Z" transform="translate(-343.031 -393.868)"/><path class="v" d="M351.469,396.639c6.6-3.355,11.9,10.714,10.714,15.585-.758,3.247-11.255-2.381-13.42-6.385A6.676,6.676,0,0,1,351.469,396.639Z" transform="translate(-342.634 -393.769)"/><path class="l" d="M343.6,410.64c.649-3.463,3.68-8.875,7.468-9.74.866,1.3.433,1.732,1.3,3.03-4.654,1.407-6.6,7.143-7.143,10.173A14.115,14.115,0,0,1,343.6,410.64Z" transform="translate(-342.99 -393.376)"/><g transform="translate(5.568 1.556)"><path class="f" d="M351.665,395.834c6.494-3.139,11.9,11.039,10.823,16.017-.758,3.247-11.255-2.706-13.42-6.818C346.9,400.7,349.067,397.025,351.665,395.834Z" transform="translate(-348.181 -395.385)"/><path class="g" d="M352.739,396.329c5.736-2.706,10.5,9.74,9.524,14.069-.649,2.814-9.957-2.489-11.8-6.061A5.589,5.589,0,0,1,352.739,396.329Z" transform="translate(-348.065 -395.339)"/><path class="h" d="M353.287,396.423c4.546-2.165,8.333,7.792,7.576,11.256-.541,2.273-7.9-1.948-9.416-4.87A4.554,4.554,0,0,1,353.287,396.423Z" transform="translate(-347.964 -395.325)"/></g><path class="v" d="M352.947,432l5.087.433c.216,0,.325.216.325.433l-2.814,10.39a.414.414,0,0,1-.541.325l-4.978-.541c-.216,0-.325-.216-.325-.433l2.814-10.39C352.514,432.108,352.73,432,352.947,432Z" transform="translate(-342.488 -390.818)"/><path class="l" d="M350.141,434.918a15.769,15.769,0,0,1,11.147,2.381c-.433,1.191-.866,2.273-1.3,3.355a16.212,16.212,0,0,0-10.39-2.273C349.816,437.191,350.033,436,350.141,434.918Z" transform="translate(-342.497 -390.597)"/><g transform="translate(6.779 40.1)"><path class="l" d="M352.214,431.3l5.087.433c.216,0,.325.216.325.433l-2.273,10.39a.413.413,0,0,1-.541.325l-5.087-.433c-.216,0-.325-.216-.325-.433l2.273-10.39C351.781,431.41,352,431.194,352.214,431.3Z" transform="translate(-349.292 -430.977)"/><path class="w" d="M352.114,431l5.087.433c.216,0,.325.216.325.433l-2.273,10.39a.414.414,0,0,1-.541.325l-5.087-.433c-.216,0-.325-.216-.325-.433l2.273-10.39C351.573,431.108,351.9,431,352.114,431Z" transform="translate(-349.3 -431)"/><path class="m" d="M352.189,431.5l4.437.433c.216.108.325.216.325.433l-2.056,9.524c-.108.216-.216.325-.433.325l-4.437-.433c-.216-.108-.325-.216-.325-.433l2.056-9.524A.58.58,0,0,1,352.189,431.5Z" transform="translate(-349.267 -430.959)"/></g><g transform="translate(16.613 33.227)"><path class="k" d="M363.488,424.812c4.221,1.3.758,9.849-1.84,11.58-1.732,1.082-3.788-5.952-3.139-8.55A3.958,3.958,0,0,1,363.488,424.812Z" transform="translate(-358.387 -424.65)"/><path class="g" d="M364.275,425.312h0c2.6,2.273-.325,9.307-2.706,10.931-1.407-1.082-2.706-6.061-2.056-8.117A3.8,3.8,0,0,1,364.275,425.312Z" transform="translate(-358.308 -424.609)"/><path class="h" d="M364.1,431.456c-1.082,2.489-4,3.139-4-2.706,0-2.381,2.706-3.571,4.221-3.247C365.295,426.911,365.078,429.292,364.1,431.456Z" transform="translate(-358.246 -424.584)"/></g><path class="l" d="M348.549,444.1a36.127,36.127,0,0,0,9.524,2.273,21.607,21.607,0,0,1-1.407,2.6c-3.788.433-8.55-.649-8.766-2.706C348.116,445.615,348.333,444.858,348.549,444.1Z" transform="translate(-342.636 -389.822)"/></g></g><g transform="translate(-79.005 269.586)"><g transform="translate(83.32 67.501)"><path class="e" d="M21.595,343.584c-3.788-2.706-6.818-3.355-9.2-5.087-3.355-2.381-9.957-7.792-13.528-6.277-4.221,1.732,7.792,13.961,12.013,14.394a93.3,93.3,0,0,0,10.606,8.117c3.03,1.948,8.009,5.195,10.173,6.061l3.03-3.9C33.283,355.164,28.413,348.346,21.595,343.584Z" transform="translate(2.018 -331.957)"/><path class="j" d="M20.92,353.9a53.153,53.153,0,0,0,10.173,6.061l2.489-4.437a3.237,3.237,0,0,1-4,.974c-4.437-2.056-7.468-6.061-11.58-8.875C-9.059,334.745,12.8,347.3,20.92,353.9Z" transform="translate(2.585 -331.127)"/><g transform="translate(33.999 25.265)"><path class="m" d="M31.348,360.928a9.166,9.166,0,0,1,1.623,3.247c.325.974,0,1.84.974,2.273.541.108.433-1.191.216-2.165-.541-2.273.108,0,.433.866.108.433.108,1.623.216,1.948s.866,1.3,1.407.974v-.433s.108.866.866.974c.433,0,.433-.541.541-.974.108.216.325.216.541.216a16.517,16.517,0,0,0,.325-3.247c0-.541-.216-2.273-.216-2.922a2.125,2.125,0,0,0-.541-1.623,9.47,9.47,0,0,0-.866-1.082c-.216-.216-3.68-2.814-4.545-3.463-.866-.974-3.03,1.623-2.922,2.489C29.725,359.2,29.941,359.3,31.348,360.928Z" transform="translate(-29.396 -355.301)"/><path class="l" d="M32.862,357.4c.649-.325,2.056.974,2.381,1.407.325.541,3.03,4.654,1.732,4.329-1.407-.325-1.3-1.948-2.273-2.381-.866-.325-2.165-.649-2.489-1.515C32.1,358.486,31.671,357.945,32.862,357.4Z" transform="translate(-29.178 -355.132)"/></g></g><g transform="translate(85.55 66.867)"><path class="f" d="M2.594,339.411c2.922,1.732,11.58,1.3,10.823-.974-1.19-3.463-9.957-9.957-12.662-5.628A4.623,4.623,0,0,0,2.594,339.411Z" transform="translate(-0.043 -331.371)"/><path class="g" d="M3.167,338.643c2.489,1.515,10.173,1.19,9.524-.866-1.082-3.03-8.766-8.875-11.147-4.978A4.248,4.248,0,0,0,3.167,338.643Z" transform="translate(0.034 -331.36)"/><path class="h" d="M3.232,337.229c1.948,1.191,8.117.974,7.576-.649-.866-2.381-6.926-7.035-8.875-4A3.427,3.427,0,0,0,3.232,337.229Z" transform="translate(0.077 -331.353)"/></g><g transform="translate(29.302)"><path class="g" d="M-37.163,283.079a12.222,12.222,0,0,0-2.814,0c-3.247.541-3.68,4.113-5.628,6.169-.649.649-1.948,1.407-2.922,1.082-3.68-1.948-2.381-7.684.216-12.121h0c1.3-2.489,5.087-8.009,8.009-8.009,5.844,1.3,3.03,6.061,4.654,7.9Z" transform="translate(52.023 -269.536)"/><path class="h" d="M-45.114,275.99c.758-1.082,6.385-7.251,6.061-1.19-4.221,3.03-3.03,4.654-2.6,5.628C-46.63,284.324-47.171,279.454-45.114,275.99Z" transform="translate(52.399 -269.374)"/><path class="k" d="M-43.348,270.683c-3.03,3.03-7.9,9.307-8.55,14.069a5.83,5.83,0,0,0,1.84,4.978l1.732.758c-1.407-.433-2.273-3.139-2.056-5.52.541-5.628,2.814-4.221,4.87-8.009,2.922-5.52,5.952-6.169,8.875-4.654C-35.664,270.467-40.75,268.194-43.348,270.683Z" transform="translate(51.931 -269.586)"/></g><path class="e" d="M-5.4,321.04c2.165,4.113,6.818,6.926,8.225,9.632a9.765,9.765,0,0,1-.108,10.281c-2.273,4-7.576-.433-7.359-4.762-.758,1.515-8.658,2.922-6.169-5.952,1.515-2.6.866-3.03-.433-5.628A112.73,112.73,0,0,1-15.9,313.681l4.221-2.381C-10.164,312.815-9.082,313.681-5.4,321.04Z" transform="translate(84.196 -266.155)"/><path class="j" d="M1.271,338.325l-.325.325a4.524,4.524,0,0,1-.433-1.082c-.541-1.84.216-5.087,1.407-7.468a10.984,10.984,0,0,1,.866,5.087A7.072,7.072,0,0,1,1.271,338.325Z" transform="translate(85.532 -264.608)"/><g transform="translate(0 12.715)"><path class="g" d="M-64.032,294.646a13.3,13.3,0,0,0-2.922.216c-3.247.758-4,4.221-6.061,6.494a3.6,3.6,0,0,1-3.03,1.3c-3.571-1.623-1.948-7.359.974-12.013h0c1.515-2.6,5.628-8.225,8.658-8.442,4.978,1.732,2.6,5.411,4.87,5.952Z" transform="translate(79.081 -281.264)"/><path class="h" d="M-76.4,298.2c.541-5.087,4.113-7.359,5.411-10.173,1.732-3.463,6.6-6.169,6.061-2.706-4.437,3.247-6.71,5.736-6.277,6.6C-71.309,292.032-77.045,304.8-76.4,298.2Z" transform="translate(79.216 -281.139)"/><path class="k" d="M-69.476,282.812c-3.139,3.03-8.55,9.74-9.416,14.394a5.2,5.2,0,0,0,1.515,4.87l1.732.649c-1.407-.433-2.165-3.03-1.84-5.3.866-5.628,3.03-4.437,5.3-8.333,3.247-5.628,5.411-6.277,8.009-5.736C-64.173,281.622-66.878,280.107-69.476,282.812Z" transform="translate(79.005 -281.335)"/></g><path class="e" d="M-4.43,343.48c4-4.221,5.411-8.442,4.654-11.58a3.189,3.189,0,0,0-.541-1.407c-4.437-8.766-10.173-13.1-12.987-13.2-12.013-4-22.619,2.814-20.779,12.121-.108.866,1.407.974,3.03,4,2.056,3.788,7.143,6.926,8.875,9.524a60.01,60.01,0,0,1,4,6.494C-18.175,349.54-9.3,350.514-4.43,343.48Z" transform="translate(82.683 -265.758)"/><path class="e" d="M-16.151,319.757c-4-5.411-18.507,6.818-15.043,12.121-6.6-6.6-20.888-7.9-26.84-14.935-7.035-8.225-12.879-17.749-12.446-21.753-1.948-4.762,8.009-9.307,10.065-5.628,3.139.649,2.922,10.606,8.55,14.827,4.762,3.571,9.091,3.03,14.069,4.978-1.948-2.489-1.948-2.706-3.788-4.762-6.494-7.468-4.545-21-3.571-23.377-.216-6.385,11.472-4.978,11.364-.433,2.056,3.355-1.407,12.879,2.273,16.992,9.957,11.256,19.481,21,19.481,21Z" transform="translate(79.686 -268.984)"/><path class="x" d="M-19.5,348.671c2.706,1.84,4,1.3,6.494.541,3.463-1.082,12.338-4.654,13.2-8.766,1.515-6.818-2.165-16.017-7.576-19.914-1.732-1.19-12.662-.216-21.321,7.143-1.623.649-2.381,2.273-2.6,5.411C-27.945,340.23-24.157,345.424-19.5,348.671Z" transform="translate(82.929 -265.43)"/><path class="y" d="M-9.58,339.188c2.706-4,5.952-11.8,3.68-12.771-2.706-1.082-3.571,2.056-6.818,2.706-3.355.649-12.121,3.247-7.792,6.494,4.221,3.139,7.468,7.9,5.628,12.771C-8.389,346.547-11.852,342.543-9.58,339.188Z" transform="translate(83.72 -264.93)"/><path class="l" d="M-12.9,347.1c.974-4.437.649-4.654.974-8.983,2.489-.974,9.416-3.139,11.9-4.113,1.19,1.623-.216,1.948,0,4.87A117.39,117.39,0,0,1-12.9,347.1Z" transform="translate(84.443 -264.287)"/><path class="l" d="M-16.453,314.494c-7.251-4.437-20.671,3.9-20.347,12.121l2.922,2.922c0-9.416,11.58-15.476,21.321-11.9C-13.856,316.658-15.154,315.576-16.453,314.494Z" transform="translate(82.477 -265.994)"/><g transform="translate(85.972 65.816)"><path class="k" d="M1.371,339.6l-.325.325a4.522,4.522,0,0,1-.433-1.082c-.649-2.056.541-6.061,1.948-8.442C3.428,333.971,3.428,337.326,1.371,339.6Z" transform="translate(-0.432 -330.4)"/><path class="g" d="M1.413,339.376v-.108c-.541-1.84.325-5.087,1.515-7.468C3.361,334.722,3.036,337.428,1.413,339.376Z" transform="translate(-0.365 -330.285)"/></g><path class="m" d="M.673,336.823c-1.515-2.165-5.411-2.165-8.766,0s-4.978,5.736-3.463,7.9,5.411,2.165,8.766,0C.565,342.451,2.08,338.88.673,336.823Z" transform="translate(84.507 -264.189)"/><path class="l" d="M.591,336.79a4.132,4.132,0,0,0-.974-.974c-1.84-.541-4.437,0-6.71,1.407-3.355,2.164-4.978,5.736-3.463,7.9a4.133,4.133,0,0,0,.974.974c1.84.541,4.437,0,6.71-1.407C.482,342.417,2,338.846.591,336.79Z" transform="translate(84.589 -264.155)"/><path class="k" d="M-29.235,337.117c-.649-4.546-1.407-5.3,1.3-5.411,2.381-7.792,19.589-12.554,23.485-8.55a19.88,19.88,0,0,0-2.922-2.489c-4-5.411-16.992.216-21.862,5.736-1.623,1.84-1.84,4.221-2.165,6.494C-30.642,334.412-29.993,335.819-29.235,337.117Z" transform="translate(82.921 -265.565)"/><path class="m" d="M-13.523,316.875c-.974-.758-1.948-1.515-3.03-2.381-7.251-4.437-20.671,3.9-20.347,12.121l2.165,2.165C-34.519,319.472-23.155,313.628-13.523,316.875Z" transform="translate(82.468 -265.994)"/><path class="m" d="M1.873,337.723c-1.515-2.165-5.411-2.165-8.766,0s-4.978,5.736-3.463,7.9,5.411,2.165,8.766,0C1.765,343.351,3.388,339.78,1.873,337.723Z" transform="translate(84.605 -264.115)"/><path class="l" d="M1.791,337.69a4.132,4.132,0,0,0-.974-.974c-1.84-.541-4.437,0-6.71,1.407-3.355,2.164-4.978,5.736-3.463,7.9a4.133,4.133,0,0,0,.974.974c1.84.541,4.437,0,6.71-1.407C1.682,343.317,3.306,339.746,1.791,337.69Z" transform="translate(84.688 -264.081)"/><path class="m" d="M3.073,338.723c-1.515-2.165-5.411-2.165-8.766,0s-4.978,5.736-3.463,7.9,5.411,2.165,8.766,0S4.588,340.888,3.073,338.723Z" transform="translate(84.704 -264.032)"/><path class="l" d="M2.991,338.69a4.132,4.132,0,0,0-.974-.974c-1.84-.541-4.437,0-6.71,1.407-3.355,2.164-4.978,5.736-3.463,7.9a4.133,4.133,0,0,0,.974.974c1.84.541,4.437,0,6.71-1.407C2.882,344.426,4.506,340.854,2.991,338.69Z" transform="translate(84.786 -263.999)"/><path class="y" d="M-21.356,339.665c-1.84,0-5.195-2.6-6.494-3.788A13.4,13.4,0,0,1-29.8,333.5c-.216-1.623.541-2.706,1.623-4.221,2.922-4.221,8.983-6.385,15.152-7.576a16.427,16.427,0,0,1,4.87,4.113c9.957,11.58-10.931,4.437-10.39,12.879C-18.217,339.449-21.031,339.665-21.356,339.665Z" transform="translate(83.05 -265.299)"/><path class="m" d="M-5.677,335.973-7.3,334.025l.974-.325c.433.649,1.19,1.515,1.948,2.489Z" transform="translate(84.904 -264.312)"/><g transform="translate(47.893 70.511)"><g transform="translate(3.932 36.592)"><path class="l" d="M-24.685,372.5c.866,0,1.84,1.948,2.056,2.489.433.974,0,1.948.541,3.247.433,1.191.325,2.489-.325,1.948-1.407-.974-1.3-3.03-2.165-3.9-.758-.758-1.623-1.082-1.623-2.165C-25.984,373.258-26.2,372.608-24.685,372.5Z" transform="translate(31.524 -368.224)"/><path class="m" d="M-30.124,373.474a9.917,9.917,0,0,1-.325,4c-.216,1.082-1.082,1.948-.433,2.814.325.541,1.19-.866,1.623-1.948.974-2.381.216,0-.108,1.082-.108.433-.866,1.732-.974,2.165s-.108,1.732.649,1.623l.325-.325a1.2,1.2,0,0,0,.216,1.407c.433.325.758-.325.974-.649a1.012,1.012,0,0,0,.541.758c.433.216,1.732-1.84,2.381-2.706.325-.541,1.3-2.273,1.623-2.922a2.833,2.833,0,0,0,.541-1.84c0-.541.541-1.732.433-2.273,0-.325-2.6-4.221-3.03-5.411-.216-1.407-3.463-.433-3.9.541C-30.233,370.985-30.666,371.2-30.124,373.474Z" transform="translate(31.119 -368.549)"/></g><path class="l" d="M-29.393,373.3a11.274,11.274,0,0,0,0,2.706,1.813,1.813,0,0,0,.974.758,1.2,1.2,0,0,0,1.515.541c.216.541.974.649,1.623.216.866.541,1.515.108,1.948-.649a12.512,12.512,0,0,0-.866-3.463C-25.172,374.166-27.445,373.516-29.393,373.3Z" transform="translate(35.185 -331.566)"/><path class="j" d="M-24.1,336.97a13.017,13.017,0,0,1,3.463-2.165c1.623-.974,9.524,8.875,1.623,16.342-6.494,3.463-5.411,18.074-5.087,22.4l-6.061.974s-4.113-11.256-3.03-17.424C-31.13,346.6-27.234,340-24.1,336.97Z" transform="translate(34.866 -334.738)"/><path class="e" d="M-24.2,336.929a7.142,7.142,0,0,1,2.273-1.623c1.082-.649,6.385,3.139,6.277,8.442h0v.325c-.433,3.463-9.416,9.849-10.931,13.636-1.407,3.355-1.19,10.065-.325,13.2a15.9,15.9,0,0,1,.541,2.814l-3.788.541s-4.113-11.255-3.03-17.424C-31.13,346.561-27.234,339.959-24.2,336.929Z" transform="translate(34.866 -334.697)"/><path class="v" d="M-20.226,343.155c-1.948,2.706-9.957,5.628-10.173,3.247-.325-3.571,4.87-12.987,9.2-9.957A4.682,4.682,0,0,1-20.226,343.155Z" transform="translate(35.109 -334.646)"/><path class="l" d="M-18.8,349.557c0-2.273-.866-6.494-4-7.9.758-.866.433-1.191,1.19-2.056,2.6.974,4.221,4.978,4.329,7.576A21.281,21.281,0,0,1-18.8,349.557Z" transform="translate(35.736 -334.338)"/><g transform="translate(4.588 0.497)"><path class="f" d="M-20.326,342.451c-1.948,2.814-9.957,5.952-10.173,3.571-.325-3.571,4.978-13.2,9.2-10.281A4.6,4.6,0,0,1-20.326,342.451Z" transform="translate(30.513 -335.197)"/><path class="g" d="M-21.317,341.987c-1.732,2.381-8.766,5.195-8.983,3.139-.216-3.139,4.329-11.58,8.117-9.091A3.993,3.993,0,0,1-21.317,341.987Z" transform="translate(30.53 -335.166)"/><path class="h" d="M-22.056,340.789c-1.3,1.948-6.926,4.113-7.143,2.489-.216-2.489,3.463-9.2,6.494-7.251A3.316,3.316,0,0,1-22.056,340.789Z" transform="translate(30.62 -335.158)"/></g><path class="v" d="M-25.787,361.733l.974,7.684c0,.216-.108.325-.216.325l-3.571-.108a.287.287,0,0,1-.325-.325l-.974-7.684c0-.216.108-.325.216-.325l3.571.108C-26,361.408-25.9,361.625-25.787,361.733Z" transform="translate(35.152 -332.553)"/><path class="l" d="M-24.283,366.221a11.7,11.7,0,0,0-7.576.649,20.471,20.471,0,0,1-.541-2.489,11.422,11.422,0,0,1,8.225-.541A16.756,16.756,0,0,0-24.283,366.221Z" transform="translate(34.946 -332.387)"/><g transform="translate(5.576 27.989)"><path class="l" d="M-25.271,361.233l.541,7.576a.287.287,0,0,1-.325.325l-3.68-.108a.346.346,0,0,1-.325-.325l-.541-7.576a.287.287,0,0,1,.325-.325l3.68.108A.346.346,0,0,1-25.271,361.233Z" transform="translate(29.6 -360.584)"/><g transform="translate(0.108)"><path class="w" d="M-25.171,361.033l.541,7.576a.287.287,0,0,1-.325.325l-3.68-.108a.346.346,0,0,1-.325-.325l-.541-7.576a.287.287,0,0,1,.325-.325l3.68.108Q-25.171,360.87-25.171,361.033Z" transform="translate(29.5 -360.6)"/><path class="m" d="M-25.42,361.433l.433,6.926a.233.233,0,0,1-.216.216l-3.139-.108a.346.346,0,0,1-.325-.325l-.433-6.926a.233.233,0,0,1,.216-.216l3.139.108A.287.287,0,0,1-25.42,361.433Z" transform="translate(29.533 -360.567)"/></g></g><g transform="translate(0 22.218)"><path class="k" d="M-29.826,357.9c.325,1.948-1.948,6.818-3.03,5.844-1.623-1.515-3.247-7.9-.108-8.442A2.751,2.751,0,0,1-29.826,357.9Z" transform="translate(34.753 -355.267)"/><path class="g" d="M-30.583,357.986c.216,1.623-1.19,4.978-2.273,5.628-1.515-1.407-2.922-6.71-.866-8.009h0A2.588,2.588,0,0,1-30.583,357.986Z" transform="translate(34.752 -355.245)"/><path class="h" d="M-33.742,355.7a2.607,2.607,0,0,1,2.706,2.706c-.649,4.113-2.6,3.355-3.139,1.515C-34.716,358.3-34.608,356.566-33.742,355.7Z" transform="translate(34.773 -355.232)"/></g><path class="l" d="M-23.849,372.023c-.433,1.407-3.9,1.732-6.494.974,0,0-.325-.758-.758-1.948a23.577,23.577,0,0,0,6.926-.649C-24.065,370.941-23.957,371.59-23.849,372.023Z" transform="translate(35.053 -331.804)"/></g><path class="l" d="M32,354.2c-1.082-.325-3.247,1.948-4,4.113a10.813,10.813,0,0,1,1.84,1.082c1.082-1.84,2.165-2.381,3.463-3.68C32.87,355.393,32.329,354.419,32,354.2Z" transform="translate(87.808 -262.628)"/><path class="j" d="M-70.593,294.31c-.433,4,5.411,13.528,12.446,21.753,6.061,6.926,20.238,8.333,26.84,14.935-1.19-1.948-.108-4.762,1.948-7.359l-9.416-6.061c-4.329-2.922-16.667-2.165-15.909-7.684.325-2.814-1.948-.216-2.6-1.191s.974-3.9.216-4.329c-1.732-1.082-3.463.758-4.978-.866-.649-.758-1.3-2.922-2.165-4-1.84-2.381-6.494-7.251-1.515-11.9C-67.454,289.115-71.35,292.362-70.593,294.31Z" transform="translate(79.689 -268.104)"/><path class="l" d="M-71.1,293.188a2.69,2.69,0,0,0,.541,1.191c-.108-3.9,7.792-9.416,10.39-5.3a10.235,10.235,0,0,0-.758-2.165C-63.087,282.69-71.961,288.534-71.1,293.188Z" transform="translate(79.651 -268.281)"/><path class="j" d="M-47.02,281.222c-.974,2.273-2.922,15.909,3.571,23.377,1.84,2.056,1.84,2.273,3.788,4.762,2.381-.216,4.221-1.515,6.926-1.732.216,0,3.355,0,2.922-.325-3.355-2.273-5.736,2.489-7.468-2.706-.649-1.948-3.571-2.273-4-4.113-.216-.758.541-2.381.433-2.489-.974-.974-3.03-.216-3.03-.866.108-.866,6.061-1.948,2.273-1.732-2.165.108-3.68.866-2.381-2.381.866-2.056-.541-3.247-.325-4.978.649-5.52-.758-7.576,4-10.5.216-.108.325-.216.216-.325C-43.341,276.46-47.128,277.542-47.02,281.222Z" transform="translate(81.55 -268.977)"/><path class="l" d="M-47.5,278.552a15.243,15.243,0,0,0,.541,3.355c0-5.52,10.823-5.628,11.256-.974a13.251,13.251,0,0,0,.325-2.273C-35.27,274.115-46.092,274.115-47.5,278.552Z" transform="translate(81.596 -269.121)"/><path class="x" d="M-15.272,322.1a.335.335,0,0,1,.216.108,35.21,35.21,0,0,1,8.333,6.169h0l.325.325h0l.108.108h0A5.672,5.672,0,0,1-5.207,330a33.238,33.238,0,0,1-4.221,9.091,8.376,8.376,0,0,0-.758,1.732,7.325,7.325,0,0,1-4.329-.541,12.18,12.18,0,0,1-2.273-1.3c-3.9-3.572-8.009-7.576-12.013-10.065C-25.661,325.888-20.467,323.29-15.272,322.1Z" transform="translate(83.135 -265.266)"/><g transform="translate(45.677 39.519)"><path class="y" d="M7.464,333.927h0v-.108l1.082-5.411-5.52.108-16.559-15.8a6.751,6.751,0,0,0-6.277-1.19l-11.472,3.788.325-.758-4.654-2.273-1.19,5.844v.108h0a2.223,2.223,0,0,0,.758,1.732l20.347,19.7a6.489,6.489,0,0,0,6.169.974l15.043-4.87C6.6,335.334,7.356,334.685,7.464,333.927Z" transform="translate(36.8 -305.682)"/><path class="x" d="M4.912,332.7v-.216l.866-3.788-15.693,4.978a7.624,7.624,0,0,1-6.818-.758,13.037,13.037,0,0,0-.866,4.546,6.891,6.891,0,0,0,5.195,1.3L2.964,334.22A2.607,2.607,0,0,0,4.912,332.7Z" transform="translate(38.378 -304.243)"/><path class="g" d="M7.811,327.1l-20.238-19.481a6.751,6.751,0,0,0-6.277-1.19l-15.043,4.87c-2.056.649-2.6,2.164-1.3,3.463l20.238,19.481a6.751,6.751,0,0,0,6.277,1.19l15.043-4.87C8.569,329.91,9.11,328.394,7.811,327.1Z" transform="translate(36.886 -306.102)"/><path class="y" d="M4.78,326.182-12.86,309.3a6.292,6.292,0,0,0-5.411-1.082l-13.1,4.221c-1.84.541-2.273,1.948-1.082,3.03l17.641,16.883A6.292,6.292,0,0,0-9.4,333.433l13.1-4.221C5.538,328.563,5.971,327.264,4.78,326.182Z" transform="translate(37.103 -305.945)"/><path class="g" d="M5.08,324.982-12.56,308.1a6.292,6.292,0,0,0-5.411-1.082l-13.1,4.221c-1.84.541-2.273,1.948-1.082,3.03l17.641,16.883A6.292,6.292,0,0,0-9.1,332.233L4,328.012C5.73,327.363,6.271,326.064,5.08,324.982Z" transform="translate(37.128 -306.044)"/><g transform="translate(8.739 3.542)"><path class="y" d="M.344,326.252l-16.126-15.26a.607.607,0,0,1,0-.974h0a.607.607,0,0,1,.974,0l16.126,15.26a.607.607,0,0,1,0,.974h0A.808.808,0,0,1,.344,326.252Z" transform="translate(29.77 -309.342)"/><path class="y" d="M-3.856,327.552l-16.126-15.26a.607.607,0,0,1,0-.974h0a.607.607,0,0,1,.974,0l16.126,15.26a.607.607,0,0,1,0,.974h0A.808.808,0,0,1-3.856,327.552Z" transform="translate(29.424 -309.235)"/><path class="y" d="M-8.156,328.852l-16.126-15.26a.607.607,0,0,1,0-.974h0a.607.607,0,0,1,.974,0l16.126,15.26a.607.607,0,0,1,0,.974h0A.808.808,0,0,1-8.156,328.852Z" transform="translate(29.07 -309.128)"/><path class="y" d="M-12.356,330.152l-16.126-15.26a.607.607,0,0,1,0-.974h0a.607.607,0,0,1,.974,0l16.126,15.26a.607.607,0,0,1,0,.974h0A.808.808,0,0,1-12.356,330.152Z" transform="translate(28.725 -309.021)"/><path class="h" d="M.444,325.852l-16.126-15.26a.607.607,0,0,1,0-.974h0a.607.607,0,0,1,.974,0L1.31,324.878a.607.607,0,0,1,0,.974h0A.563.563,0,0,1,.444,325.852Z" transform="translate(29.778 -309.375)"/><path class="h" d="M-3.856,327.152l-16.126-15.26a.607.607,0,0,1,0-.974h0a.607.607,0,0,1,.974,0l16.017,15.26a.607.607,0,0,1,0,.974h0A.655.655,0,0,1-3.856,327.152Z" transform="translate(29.424 -309.268)"/><path class="h" d="M-8.056,328.552l-16.126-15.26a.607.607,0,0,1,0-.974h0a.607.607,0,0,1,.974,0l16.126,15.26a.607.607,0,0,1,0,.974h0A.808.808,0,0,1-8.056,328.552Z" transform="translate(29.079 -309.153)"/><path class="h" d="M-12.256,329.752l-16.126-15.26a.607.607,0,0,1,0-.974h0a.607.607,0,0,1,.974,0l16.126,15.26a.607.607,0,0,1,0,.974h0C-11.606,329.969-12.039,330.077-12.256,329.752Z" transform="translate(28.733 -309.054)"/></g></g><g transform="translate(72.553 60.658)"><path class="m" d="M-9.189,335.613c-2.489.866-3.463,4.654-2.273,8.442s4.221,6.169,6.71,5.3,3.463-4.654,2.273-8.442S-6.808,334.748-9.189,335.613Z" transform="translate(11.967 -324.828)"/><path class="l" d="M-9.255,335.613a1.841,1.841,0,0,0-1.082.649,9.043,9.043,0,0,0-.325,6.818c1.19,3.788,4.221,6.169,6.71,5.3a1.84,1.84,0,0,0,1.082-.649,9.042,9.042,0,0,0,.325-6.818C-3.844,337.129-6.874,334.748-9.255,335.613Z" transform="translate(12.034 -324.828)"/><path class="e" d="M14.671,343.095c-2.273,7.684-13.528,12.013-19.048,8.983-6.71-3.788-6.061-11.8-4.654-17.749,1.84-2.489,7.468-6.818,11.364-6.926C9.693,326.861,16.836,335.735,14.671,343.095Z" transform="translate(12.133 -325.491)"/><path class="j" d="M-6.208,342.206c.108.325,1.082.974.974,1.082-.108,1.623,1.19,5.952,1.84,8.875a3.386,3.386,0,0,1-1.082-.541c-6.71-3.788-6.061-11.8-4.654-17.749A14.926,14.926,0,0,1-6.858,331.6C-9.13,336.254-6.316,341.773-6.208,342.206Z" transform="translate(12.125 -325.143)"/><ellipse class="n" cx="5.628" cy="9.091" rx="5.628" ry="9.091" transform="translate(28.131 8.895) rotate(119.287)"/><ellipse class="o" cx="2.273" cy="3.788" rx="2.273" ry="3.788" transform="translate(26.032 9.749) rotate(129.384)"/><path class="p" d="M-6.887,349.742a9.419,9.419,0,0,0,2.273,1.84c5.52,3.03,16.559-1.191,19.048-8.766C13.785,338.053,8.806,331.776-3.1,332.1c-1.515,1.3-2.922,2.6-4.437,3.9.216,1.3.541,2.706.758,4C-9.159,344.222-8.618,347.469-6.887,349.742Z" transform="translate(12.262 -325.103)"/><path class="q" d="M-2.838,352.289c5.411,1.3,13.528-1.948,16.559-7.9-1.84-6.71-9.2-10.714-16.667-11.688-1.407,1.191-2.814,2.381-4.113,3.68.216,1.3.433,2.489.758,3.788C-9.331,346.986-6.626,350.341-2.838,352.289Z" transform="translate(12.326 -325.053)"/><path class="e" d="M12.66,344.638a17.071,17.071,0,0,0-9.849-9.524c-.758-.216-5.52-2.273-5.411-1.19a17.067,17.067,0,0,0,1.407,2.814c.974.866,2.489,0,3.463.108.866.108.541,2.381,2.273,3.139,1.407.541.325,2.6,2.706,1.84s1.84,4.654,3.68,4.87A10.279,10.279,0,0,0,12.66,344.638Z" transform="translate(12.737 -324.978)"/><path class="r" d="M-5.611,340.762c-.216.758-1.84,3.788-.866,7.359,1.948,4.221,8.117,4.329,12.554,2.056-9.2-.108-8.333-11.147-12.554-14.178C-6.152,337.515-6.044,338.922-5.611,340.762Z" transform="translate(12.393 -324.781)"/><path class="s" d="M11.071,342.116a19.069,19.069,0,0,0-8.766-6.926c-.541-.216-4.221-1.732-4-.974a12.9,12.9,0,0,0,1.623,1.948c.758.649,1.623,0,2.381.108.649.108.974,1.082,2.381,1.732,1.082.433.866,1.84,2.165,1.3C8.907,338.87,8.907,341.034,11.071,342.116Z" transform="translate(12.811 -324.945)"/><path class="j" d="M.076,350.625A10.051,10.051,0,0,1-5.66,342.4C-7.175,345.539-5.444,351.166.076,350.625Z" transform="translate(12.443 -324.255)"/><g transform="translate(6.458 1.194)"><path class="j" d="M-2.753,327.454a2.081,2.081,0,0,0-2.165-.649A1.262,1.262,0,0,0-6,327.887l.108,7.576h3.463l-.108-7.576C-2.645,327.779-2.645,327.563-2.753,327.454Z" transform="translate(6 -326.737)"/><path class="t" d="M-2.594,327.841c0-.325-.866-.541-1.732-.541a2.4,2.4,0,0,0-.974.108l.108,8.009h2.706l-.108-7.576Z" transform="translate(6.058 -326.691)"/><path class="e" d="M-2.8,327.555a2.081,2.081,0,0,0-2.165-.649c-.108,0-.216.108-.433.108l.108,8.55h2.706l-.108-7.684C-2.694,327.663-2.694,327.555-2.8,327.555Z" transform="translate(6.049 -326.729)"/><path class="n" d="M-2.668,327.99c0-.216,0-.433-.108-.433A2.115,2.115,0,0,0-4.4,326.8l.108,8.766H-2.56Z" transform="translate(6.132 -326.732)"/><path class="l" d="M-5.792,335.521c-.325-.649.108-1.3.974-1.515a1.9,1.9,0,0,1,2.165.649c.325.649-.108,1.3-.974,1.515A2.081,2.081,0,0,1-5.792,335.521Z" transform="translate(6.008 -326.146)"/><path class="e" d="M-4.742,334.528a1.38,1.38,0,0,0-.758.541l.216-.541a.925.925,0,0,1,.649-.325c.649-.108,1.515,0,1.732.541l.108.541A1.809,1.809,0,0,0-4.742,334.528Z" transform="translate(6.041 -326.126)"/><path class="l" d="M-5.591,335.8c-.325-.541,0-1.082.866-1.3a1.761,1.761,0,0,1,1.948.541c.325.541,0,1.082-.866,1.3S-5.374,336.346-5.591,335.8Z" transform="translate(6.024 -326.105)"/><path class="u" d="M-5.394,335.78c-.216-.433,0-.866.649-.974a1.242,1.242,0,0,1,1.515.433c.216.433,0,.866-.649.974A1.62,1.62,0,0,1-5.394,335.78Z" transform="translate(6.043 -326.081)"/></g><path class="o" d="M-4.4,335.325c-.108-.108,0-.325.216-.325a.811.811,0,0,1,.541.108c.108.108,0,.325-.216.325C-4.072,335.541-4.289,335.541-4.4,335.325Z" transform="translate(12.586 -324.864)"/></g></g></g></svg>